<ttFont>
          <CharString index="0">
            rmoveto
            -7 5 -5 7 3 4 2 3 5 vhcurveto
            35 21 66 21 34 6 rrcurveto
            22 4 15 15 21 vvcurveto
            21 -18 15 -20 -39 -74 -66 -37 -37 vhcurveto
            return
          </CharString>
          <CharString index="1">
            rmoveto
            -26 19 -14 21 31 22 21 31 26 -20 15 -21 -31 -21 -22 -31 vhcurveto
            -190 hmoveto
            -26 19 -14 21 31 22 21 31 26 -20 15 -21 -31 -21 -22 -31 vhcurveto
            return
          </CharString>
          <CharString index="2">
            -104 callgsubr
            endchar
          </CharString>
          <CharString index="3">
            rmoveto
            7 -4 5 -5 -3 -3 -2 -3 -4 vhcurveto
            -27 -21 -51 -25 -27 -6 -27 6 -51 25 -27 21 rrcurveto
            3 -4 -3 2 -3 hhcurveto
            -5 -4 -5 -7 -4 2 -5 4 -5 hvcurveto
            26 -33 48 -56 33 -12 rrcurveto
            -1 3 4 -1 4 hhcurveto
            4 3 1 1 4 hvcurveto
            32 12 49 56 26 33 rrcurveto
            return
          </CharString>
          <CharString index="4">
            -71 93 87 71 -126 vhcurveto
            -114 -6 -74 -85 -99 vvcurveto
            -65 50 -49 68 72 49 40 67 32 vhcurveto
            8 -22 rlineto
            -35 13 22 -50 38 hhcurveto
            23 14 18 23 37 -36 19 -16 43 hvcurveto
            -267 22 rmoveto
            58 47 31 49 20 21 -5 -11 18 vhcurveto
            10 -26 10 -15 -32 vvcurveto
            -47 -40 -39 -49 -47 -39 39 47 vhcurveto
            return
          </CharString>
          <CharString index="5">
            51 27 31 36 47 24 -25 -43 vhcurveto
            -98 -156 -82 -178 vvcurveto
            -128 111 -72 123 87 73 40 39 47 vhcurveto
            -27 vlineto
            -101 callsubr
            -103 -4 -70 -2 -50 vhcurveto
            -27 -33 -73 -35 -62 hhcurveto
            -102 -91 48 117 hvcurveto
            139 149 95 110 vvcurveto
            return
          </CharString>
          <CharString index="6">
            -26 19 -26 29 29 19 26 26 vhcurveto
            53 -9 79 170 -96 callgsubr
            vvcurveto
            return
          </CharString>
          <CharString index="7">
            -24 hlineto
            -363 52 -153 -58 vvcurveto
            -26 -16 -26 -25 -26 -21 18 36 -3 vhcurveto
            -18 252 rlineto
            -24 -114 5 -30 1 callsubr
            -11 -9 1 -10 hhcurveto
            -96 -12 -80 -115 -68 -133 rrcurveto
            -1 53 55 -1 14 hhcurveto
            28 106 3 1 31 hvcurveto
            -9 119 -4 108 30 vvcurveto
            return
          </CharString>
          <CharString index="8">
            rmoveto
            11 -6 5 -9 vhcurveto
            hintmask 00100000
            -19 5 -66 -48 hhcurveto
            hintmask 00001000
            -81 callgsubr
            hintmask 00100000
            -12 7 -5 10 vhcurveto
            hintmask 00001000
            19 -13 45 57 hhcurveto
            hintmask 00100000
            -82 callsubr
            endchar
          </CharString>
          <CharString index="9">
            -6 50 hhcurveto
            -94 callgsubr
            return
          </CharString>
          <CharString index="10">
            rmoveto
            85 68 67 85 85 64 -67 -85 -85 -64 -68 -85 -17 callgsubr
            vhcurveto
            -66 -65 rmoveto
            -84 59 -82 97 112 166 115 181 84 -59 82 -97 -63 callsubr
            vhcurveto
            return
          </CharString>
          <CharString index="11">
            66 52 -5 21 -92 callsubr
            -21 -52 -6 return
          </CharString>
          <CharString index="12">
            385 252 rmoveto
            112 208 102 144 53 vvcurveto
            19 -9 20 -25 -20 -17 -19 -20 -10 vhcurveto
            -14 -28 -62 -163 -89 -146 -24 28 -42 54 -55 85 rrcurveto
            111 -73 -32 98 -53 hhcurveto
            -28 -16 -16 -28 -48 62 -56 82 -112 hvcurveto
            73 -99 41 -60 19 -28 rrcurveto
            -179 -99 -244 -277 -127 -21 -14 8 -18 hhcurveto
            -36 -14 -24 -19 -27 28 -21 45 191 219 260 282 168 hvcurveto
            return
          </CharString>
          <CharString index="13">
            -88 callgsubr
            hstemhm
            return
          </CharString>
          <CharString index="14">
            21 15 16 21 21 -15 15 -21 hvcurveto
            return
          </CharString>
          <CharString index="15">
            hhcurveto
            -93 callsubr
            return
          </CharString>
          <CharString index="16">
            4 67 10 36 50 vvcurveto
            36 -18 21 -25 -25 -21 -23 -37 -48 6 -95 1 -82 vhcurveto
            -57 -34 -46 -50 -60 -17 44 56 -12 vhcurveto
            -44 209 rlineto
            33 -7 -12 46 -54 callsubr
            60 38 47 28 17 hvcurveto
            1 -37 0 -41 -47 vvcurveto
            -84 -68 -73 -85 vhcurveto
            return
          </CharString>
          <CharString index="17">
            147 3 callgsubr
            -170 9 -79 -53 vvcurveto
            -26 -19 -26 27 callgsubr
            26 26 vhcurveto
            53 9 79 170 191 -9 60 43 vvcurveto
            26 19 28 29 29 19 -28 -26 vhcurveto
            -43 -9 -17 callsubr
            vvcurveto
            return
          </CharString>
          <CharString index="18">
            rmoveto
            140 1 70 2 44 vhcurveto
            93 -19 81 -69 61 -155 rrcurveto
            -322 127 177 -328 152 hhcurveto
            33 20 22 20 62 -57 -22 -94 80 hvcurveto
            -40 34 -42 56 -53 84 rrcurveto
            101 1 110 3 98 vhcurveto
            -60 callgsubr
            -28 -22 -24 -31 vhcurveto
            return
          </CharString>
          <CharString index="19">
            rmoveto
            -19 -22 -15 -24 hvcurveto
            hintmask 0000110000100000
            -24 21 -15 19 vhcurveto
            15 18 13 20 hhcurveto
            5 3 -2 -5 hvcurveto
            4 -24 0 -48 -24 vvcurveto
            -23 0 -48 -4 -18 vhcurveto
            hintmask 0000110001000000
            -6 -20 -12 -10 -19 vvcurveto
            -25 18 -21 27 29 15 26 29 vhcurveto
            25 -3 30 74 94 2 36 22 vvcurveto
            14 -11 5 -11 vhcurveto
            hintmask 0000100110000000
            -25 -40 -3 -43 hhcurveto
            hintmask 0100001000000000
            517 -41 -93 callgsubr
            return
          </CharString>
          <CharString index="20">
            1 -41 8 -56 -176 vvcurveto
            145 279 rmoveto
            83 84 -38 -110 -110 -116 -22 -41 -23 -29 7 7 -25 hvcurveto
            171 8 53 1 41 vhcurveto
            18 19 1 21 hhcurveto
            return
          </CharString>
          <CharString index="21">
            -107 callsubr
            -5 -5 -3 -5 -4 vvcurveto
            return
          </CharString>
          <CharString index="22">
            -37 31 -24 30 43 34 41 36 37 -31 24 -30 -43 -34 -41 -36 vhcurveto
            34 8 rmoveto
            19 15 15 20 19 15 -15 -19 -20 -15 -15 -19 -20 -15 15 20 vhcurveto
            endchar
          </CharString>
          <CharString index="23">
            -92 callgsubr
            -43 callsubr
            26 return
          </CharString>
          <CharString index="24">
            -17 -26 5 -13 20 callgsubr
            -13 -25 -25 23 -13 20 hvcurveto
            35 21 7 45 45 21 -7 35 hhcurveto
            20 23 13 25 25 -21 13 -20 hvcurveto
            -13 -26 -5 -17 hhcurveto
            -8 77 0 85 121 vvcurveto
            153 1 61 5 56 vhcurveto
            return
          </CharString>
          <CharString index="25">
            44 19 -45 48 hhcurveto
            54 50 75 38 hvcurveto
            return
          </CharString>
          <CharString index="26">
            -5 -5 -3 -5 -4 vvcurveto
            endchar
          </CharString>
          <CharString index="27">
            363 46 rmoveto
            21 -8 32 -1 206 vhcurveto
            15 16 30 34 56 71 rrcurveto
            86 109 58 74 48 vvcurveto
            23 -12 16 -23 -44 -38 -116 -103 -65 vhcurveto
            -48 -76 -29 -33 -13 -13 -18 22 -32 40 -45 70 rrcurveto
            111 -73 -32 98 -53 hhcurveto
            -28 -16 -16 -28 -48 62 -56 82 -112 hvcurveto
            52 -71 33 -48 17 -26 rrcurveto
            -1 -193 -8 -31 -21 vvcurveto
            -35 callsubr
            vhcurveto
            return
          </CharString>
          <CharString index="28">
            50 102 56 99 62 59 rrcurveto
            -4 -51 -108 -10 -32 20 callgsubr
            13 24 22 21 17 19 hvcurveto
            return
          </CharString>
          <CharString index="29">
            -50 callgsubr
            75 -94 callsubr
            -34 callgsubr
            hintmask 11001100
            return
          </CharString>
          <CharString index="30">
            332 -6 rmoveto
            208 147 162 220 110 -52 97 -81 58 hvcurveto
            17 29 10 21 16 vvcurveto
            15 -4 14 -24 -21 -19 -23 -39 -20 vhcurveto
            14 -35 -38 8 -40 hhcurveto
            -208 -147 -162 -220 -111 52 -97 82 -58 hvcurveto
            -18 -29 -9 -20 -16 vvcurveto
            -15 4 -14 24 20 19 23 38 20 vhcurveto
            -14 35 38 -7 40 hhcurveto
            return
          </CharString>
          <CharString index="31">
            58 -52 153 363 vvcurveto
            24 hlineto
            24 17 return
          </CharString>
          <CharString index="32">
            380 rmoveto
            120 9 112 90 vvcurveto
            28 -18 20 -16 callgsubr
            vhcurveto
            -90 10 -111 -120 -120 -10 -128 -90 -65 callgsubr
            54 -4 67 -2 72 vhcurveto
            -167 207 37 -74 44 hhcurveto
            27 17 18 26 54 -90 25 -203 194 hvcurveto
            40 26 46 27 53 hhcurveto
            return
          </CharString>
          <CharString index="33">
            -44 -57 -6 -33 vvcurveto
            -13 9 -9 12 vhcurveto
            21 18 7 13 hhcurveto
            24 15 -17 -22 -22 -19 -21 -13 hvcurveto
            return
          </CharString>
          <CharString index="34">
            rmoveto
            -28 20 -15 23 34 24 22 35 27 -21 17 -23 -35 -22 -24 -34 vhcurveto
            return
          </CharString>
          <CharString index="35">
            -34 7 -45 43 23 26 -3 callgsubr
            return
          </CharString>
          <CharString index="36">
            -84 27 23 4 -454 vhcurveto
            -38 76 -36 92 -49 109 rrcurveto
            219 -98 -147 74 -92 hhcurveto
            -42 -21 -18 -29 -27 26 -13 24 -1 hvcurveto
            return
          </CharString>
          <CharString index="37">
            rmoveto
            -66 44 -59 73 101 75 92 107 65 -44 60 -73 -101 -75 -93 -106 vhcurveto
            236 36 rmoveto
            -57 -40 -45 -50 -49 -40 45 57 return
          </CharString>
          <CharString index="38">
            51 -30 11 -20 -39 -25 -27 -28 hvcurveto
            return
          </CharString>
          <CharString index="39">
            23 16 12 25 25 -16 12 -23 return
          </CharString>
          <CharString index="40">
            -77 30 25 2 -441 vhcurveto
            -26 47 -39 82 -59 126 rrcurveto
            215 -101 -144 78 -92 hhcurveto
            -42 -21 -18 -29 hvcurveto
            return
          </CharString>
          <CharString index="41">
            36 28 -31 -38 -37 -28 -32 -36 -35 -29 32 37 return
          </CharString>
          <CharString index="42">
            60 418 rmoveto
            -25 20 -12 19 vhcurveto
            42 37 6 45 hhcurveto
            24 26 -2 -2 25 hvcurveto
            -65 -76 -135 -151 -18 -22 rrcurveto
            -17 -21 -11 -14 -24 vvcurveto
            -32 44 -49 118 81 112 61 34 11 -9 5 -10 vhcurveto
            return
          </CharString>
          <CharString index="43">
            -128 -6 76 175 53 -53 211 return
          </CharString>
          <CharString index="44">
            -112 -166 -115 -181 return
          </CharString>
          <CharString index="45">
            rmoveto
            hintmask 01100000
            -80 -85 -36 callsubr
            hintmask 10000000
            19 85 4 80 hhcurveto
            hintmask 01100000
            80 85 -4 19 hhcurveto
            19 13 14 19 19 -13 13 -19 hvcurveto
            hintmask 10000000
            -19 -85 -5 -80 hhcurveto
            endchar
          </CharString>
          <CharString index="46">
            19 -26 29 return
          </CharString>
          <CharString index="47">
            39 -39 7 56 vvcurveto
            30 2 34 2 30 vhcurveto
            return
          </CharString>
          <CharString index="48">
            18 callgsubr
            -53 callsubr
            50 -36 30 -48 hvcurveto
            5 4 8 14 19 vvcurveto
            8 -4 10 -4 6 vhcurveto
            157 12 99 123 40 vvcurveto
            11 -8 11 -12 return
          </CharString>
          <CharString index="49">
            -127 -1 114 -61 hhcurveto
            -31 -18 -22 -30 -51 62 -71 114 163 113 112 122 return
          </CharString>
          <CharString index="50">
            1 35 52 5 67 hhcurveto
            return
          </CharString>
          <CharString index="51">
            -93 -43 callgsubr
            75 -21 129 -20 17 callsubr
            106 78 return
          </CharString>
          <CharString index="52">
            525 -86 callsubr
            return
          </CharString>
          <CharString index="53">
            -46 hhcurveto
            -26 -28 -17 -39 -39 35 2 12 -56 hvcurveto
            38 -172 rlineto
            -67 15 39 -74 83 hhcurveto
            return
          </CharString>
          <CharString index="54">
            -21 -23 -23 -26 -26 19 -17 24 40 80 56 88 return
          </CharString>
          <CharString index="55">
            63 -63 129 -84 49 hstemhm
            return
          </CharString>
          <CharString index="56">
            -85 callgsubr
            endchar
          </CharString>
          <CharString index="57">
            55 55 -55 86 hintmask 11010000
            130 696 rmoveto
            -24 -51 -71 -56 -39 23 -8 15 30 18 20 21 hvcurveto
            hintmask 11100000
            34 -31 -3 30 30 30 12 19 vvcurveto
            7 -4 4 -6 vhcurveto
            return
          </CharString>
          <CharString index="58">
            17 callgsubr
            -29 21 -23 31 vhcurveto
            28 24 4 66 37 15 -4 23 hhcurveto
            87 81 85 81 61 -54 55 -72 -30 -25 -18 -22 -27 23 -12 21 40 31 -29 -33 return
          </CharString>
          <CharString index="59">
            114 -73 73 hintmask 11000000
            55 -113 rmoveto
            32 67 92 66 -9 callgsubr
            -42 41 -5 -37 -32 -40 -13 -21 -39 callsubr
            return
          </CharString>
          <CharString index="60">
            86 -65 65 hintmask 11100000
            66 492 rmoveto
            24 51 89 68 -44 callsubr
            hintmask 11010000
            -52 21 6 -45 -30 -20 -12 -19 vvcurveto
            -11 4 0 6 vhcurveto
            return
          </CharString>
          <CharString index="61">
            45 7 62 10 vvcurveto
            20 -14 19 -21 -21 -14 -19 -20 vhcurveto
            -10 7 -62 -45 -40 -7 -67 -12 vvcurveto
            -19 14 -18 21 21 14 18 19 vhcurveto
            12 -7 67 40 vvcurveto
            return
          </CharString>
          <CharString index="62">
            -23 26 18 -38 28 hhcurveto
            28 20 17 36 55 -63 57 -103 -78 -158 -50 -168 hvcurveto
            -206 348 49 -249 vvcurveto
            -189 -169 -93 -134 vhcurveto
            return
          </CharString>
          <CharString index="63">
            39 -23 8 -15 -30 -18 -20 -21 hvcurveto
            return
          </CharString>
          <CharString index="64">
            29 19 26 return
          </CharString>
          <CharString index="65">
            50 -11 -53 37 hhcurveto
            27 21 29 38 41 -29 24 -36 -57 -59 -46 -72 -40 hvcurveto
            return
          </CharString>
          <CharString index="66">
            -30 -26 -44 -90 hhcurveto
            -50 -42 7 26 9 7 10 -41 callgsubr
            22 31 159 173 24 26 rrcurveto
            19 21 13 20 27 vvcurveto
            25 -16 13 -23 vhcurveto
            return
          </CharString>
          <CharString index="67">
            rmoveto
            162 115 125 162 163 134 -143 -164 -162 -115 -125 -162 -163 -134 143 164 vhcurveto
            return
          </CharString>
          <CharString index="68">
            vvcurveto
            -9 6 -6 8 vhcurveto
            return
          </CharString>
          <CharString index="69">
            -43 callsubr
            26 return
          </CharString>
          <CharString index="70">
            -103 -20 callsubr
            78 -94 callsubr
            25 66 302 66 return
          </CharString>
          <CharString index="71">
            5 -19 hhcurveto
            -19 -14 -13 -19 -19 14 -14 19 hvcurveto
            return
          </CharString>
          <CharString index="72">
            -26 -61 callsubr
            -38 callsubr
            return
          </CharString>
          <CharString index="73">
            -23 -23 26 callsubr
            return
          </CharString>
          <CharString index="74">
            -25 callsubr
            19 29 32 -29 22 -54 -114 -107 -83 -70 hvcurveto
            -121 246 33 -79 vvcurveto
            -42 -63 -22 -42 vhcurveto
            return
          </CharString>
          <CharString index="75">
            -2 7 -3 7 -2 8 -22 69 -77 210 -25 58 rrcurveto
            24 -10 -16 11 -15 hhcurveto
            -24 -15 -20 -21 -20 7 -19 12 -27 hvcurveto
            return
          </CharString>
          <CharString index="76">
            89 -6 69 443 190 -76 76 return
          </CharString>
          <CharString index="77">
            rrcurveto
            -70 -107 -48 -109 -56 vvcurveto
            -72 38 -49 65 66 106 94 113 64 -31 80 -48 76 vhcurveto
            51 66 62 60 65 33 return
          </CharString>
          <CharString index="78">
            6 -32 20 callgsubr
            -15 -34 callsubr
            return
          </CharString>
          <CharString index="79">
            hstemhm
            55 112 -77 77 -58 77 361 81 -49 49 -49 64 return
          </CharString>
          <CharString index="80">
            -38 callgsubr
            endchar
          </CharString>
          <CharString index="81">
            94 -16 147 112 vvcurveto
            136 42 99 109 81 61 -67 -85 -85 -61 -68 -81 vhcurveto
            -28 -5 10 -29 hhcurveto
            return
          </CharString>
          <CharString index="82">
            53 23 -24 26 hhcurveto
            21 23 return
          </CharString>
          <CharString index="83">
            1 -44 3 -69 -147 vvcurveto
            return
          </CharString>
          <CharString index="84">
            52 47 rmoveto
            -31 33 -22 50 116 124 86 87 vhcurveto
            123 -246 -23 63 vvcurveto
            26 35 22 51 vhcurveto
            return
          </CharString>
          <CharString index="85">
            -14 -14 9 -14 hhcurveto
            -22 -22 -20 -25 -17 11 -25 36 55 71 60 93 109 -98 83 -142 hvcurveto
            endchar
          </CharString>
          <CharString index="86">
            149 377 rmoveto
            34 -7 45 -43 -23 -26 -17 -39 vhcurveto
            return
          </CharString>
          <CharString index="87">
            -6 78 305 79 return
          </CharString>
          <CharString index="88">
            20 -26 -27 41 -32 hhcurveto
            -28 -17 -20 -28 -62 93 -55 103 275 73 291 269 hvcurveto
            184 return
          </CharString>
          <CharString index="89">
            -37 104 -38 108 -23 69 -52 155 -31 113 -8 22 rrcurveto
            24 -9 -19 17 -24 hhcurveto
            -28 -14 return
          </CharString>
          <CharString index="90">
            -60 -191 return
          </CharString>
          <CharString index="91">
            15 -26 callgsubr
            return
          </CharString>
          <CharString index="92">
            -55 -30 -59 -39 -39 -26 44 46 39 31 77 50 80 vhcurveto
            32 -58 21 -60 -54 vvcurveto
            endchar
          </CharString>
          <CharString index="93">
            71 -71 89 -89 110 return
          </CharString>
          <CharString index="94">
            0 26 callgsubr
            return
          </CharString>
          <CharString index="95">
            -50 callgsubr
            54 -52 callsubr
            -34 callgsubr
            hintmask 11000110
            return
          </CharString>
          <CharString index="96">
            -15 -30 -10 -31 -31 17 -16 31 106 157 115 181 84 -56 82 -93 -66 return
          </CharString>
          <CharString index="97">
            406 rmoveto
            32 -24 18 -26 -40 -29 -26 -41 -32 26 -20 26 41 26 29 40 vhcurveto
            return
          </CharString>
          <CharString index="98">
            -4 -67 -7 -36 -50 vvcurveto
            -36 18 -21 25 vhcurveto
            return
          </CharString>
          <CharString index="99">
            -39 37 -7 -56 vvcurveto
            -30 -2 -34 -2 -30 vhcurveto
            return
          </CharString>
          <CharString index="100">
            -170 -19 -79 -53 vvcurveto
            -26 -61 callsubr
            vhcurveto
            return
          </CharString>
          <CharString index="101">
            -20 -138 -50 36 -48 48 26 15 14 20 return
          </CharString>
          <CharString index="102">
            -290 77 -77 141 143 return
          </CharString>
          <CharString index="103">
            15 -21 388 74 return
          </CharString>
          <CharString index="104">
            rrcurveto
            -64 57 -35 90 86 vvcurveto
            175 96 97 144 42 37 -11 -17 33 vhcurveto
            return
          </CharString>
          <CharString index="105">
            44 rmoveto
            -32 24 -18 26 40 29 26 41 32 -26 20 -26 -41 -26 -29 -40 vhcurveto
            return
          </CharString>
          <CharString index="106">
            65 61 60 45 31 31 8 -17 20 hhcurveto
            30 24 20 30 30 -24 20 -30 return
          </CharString>
          <CharString index="107">
            -61 vvcurveto
            -35 callgsubr
            return
          </CharString>
          <CharString index="108">
            hhcurveto
            150 327 rmoveto
            return
          </CharString>
          <CharString index="109">
            -3 callgsubr
            39 return
          </CharString>
          <CharString index="110">
            -89 callgsubr
            191 9 return
          </CharString>
          <CharString index="111">
            -25 19 -14 20 30 22 20 31 24 -20 16 -20 -31 -20 -22 -30 vhcurveto
            return
          </CharString>
          <CharString index="112">
            303 21 callgsubr
            return
          </CharString>
          <CharString index="113">
            -21 274 81 0 -20 38 -21 hstemhm
            60 169 -86 86 -64 64 return
          </CharString>
          <CharString index="114">
            -71 hhcurveto
            -162 -96 153 141 166 90 106 155 hvcurveto
            return
          </CharString>
          <CharString index="115">
            rrcurveto
            1 29 30 1 25 69 83 -6 50 hhcurveto
            20 21 13 26 hvcurveto
            return
          </CharString>
          <CharString index="116">
            rmoveto
            108 134 115 131 77 vvcurveto
            26 -21 13 -20 vhcurveto
            return
          </CharString>
          <CharString index="117">
            rmoveto
            -25 20 -9 19 vhcurveto
            31 hlineto
            2 return
          </CharString>
          <CharString index="118">
            59 40 46 50 49 40 -46 -59 vhcurveto
            return
          </CharString>
          <CharString index="119">
            hstemhm
            60 151 return
          </CharString>
          <CharString index="120">
            -169 -202 -183 119 -134 162 -13 hvcurveto
            return
          </CharString>
          <CharString index="121">
            56 -39 -21 65 -20 hstemhm
            hintmask 10000000
            return
          </CharString>
          <CharString index="122">
            25 -19 26 27 callgsubr
            -26 -25 return
          </CharString>
          <CharString index="123">
            112 -21 393 -20 return
          </CharString>
          <CharString index="124">
            hstemhm
            35 55 -55 125 return
          </CharString>
          <CharString index="125">
            -56 -54 -6 -38 hhcurveto
            return
          </CharString>
          <CharString index="126">
            21 23 18 31 return
          </CharString>
          <CharString index="127">
            93 97 93 return
          </CharString>
          <CharString index="128">
            -417 -35 -21 802 -20 hstem
            57 56 vstem
            113 return
          </CharString>
          <CharString index="129">
            -97 -5 callsubr
            74 388 -20 return
          </CharString>
          <CharString index="130">
            vvcurveto
            -29 18 -15 17 -7 vhcurveto
            -8 20 39 -9 52 hhcurveto
            return
          </CharString>
          <CharString index="131">
            55 1 -23 34 hhcurveto
            19 callsubr
            38 -35 15 -44 return
          </CharString>
          <CharString index="132">
            hintmask 1111000010000000
            return
          </CharString>
          <CharString index="133">
            21 -15 20 return
          </CharString>
          <CharString index="134">
            -290 80 -80 186 635 165 -60 60 return
          </CharString>
          <CharString index="135">
            vvcurveto
            24 -14 19 -26 -23 -14 -19 -19 -12 vhcurveto
            -38 return
          </CharString>
          <CharString index="136">
            -37 3 20 -50 34 hhcurveto
            29 20 24 33 43 return
          </CharString>
          <CharString index="137">
            67 -67 129 48 179 -84 84 -63 63 return
          </CharString>
          <CharString index="138">
            hlineto
            102 68 83 82 vhcurveto
            55 23 -23 26 hhcurveto
            return
          </CharString>
          <CharString index="139">
            171 110 134 42 11 -8 11 -12 return
          </CharString>
          <CharString index="140">
            -84 -66 67 85 79 57 74 92 hvcurveto
            endchar
          </CharString>
          <CharString index="141">
            32 108 10 4 51 hvcurveto
            return
          </CharString>
          <CharString index="142">
            107 -73 73 -56 56 -56 72 return
          </CharString>
          <CharString index="143">
            49 24 -3 21 hhcurveto
            29 17 18 25 hvcurveto
            return
          </CharString>
          <CharString index="144">
            -197 15 -21 330 132 -79 79 return
          </CharString>
          <CharString index="145">
            -250 543 -21 174 -20 hstemhm
            55 return
          </CharString>
          <CharString index="146">
            37 60 73 103 94 108 rrcurveto
            endchar
          </CharString>
        <CharString name=".notdef">
          -287 endchar
        </CharString>
        <CharString name=".null">
          -587 endchar
        </CharString>
        <CharString name="A">
          -68 callgsubr
          hstemhm
          502 62 -48 100 hintmask 11100010
          -90 callgsubr
          hintmask 11100100
          -76 callsubr
          11 26 hvcurveto
          hintmask 11001100
          23 -16 16 -24 vhcurveto
          hintmask 11100100
          -24 -131 -6 -82 hhcurveto
          hintmask 11001100
          -63 callgsubr
          hintmask 11100100
          -26 21 -11 20 vhcurveto
          hintmask 11010100
          -105 callgsubr
          endchar
        </CharString>
        <CharString name="A.swash">
          -77 callgsubr
          hstemhm
          502 62 -48 100 hintmask 11110100
          -22 callgsubr
          hintmask 11110010
          -76 callsubr
          13 24 hvcurveto
          hintmask 11101100
          22 -16 17 -24 vhcurveto
          hintmask 11110100
          -11 callgsubr
          hintmask 11101100
          34 callsubr
          hintmask 11110100
          -62 -59 -56 -99 -50 -102 rrcurveto
          -86 callgsubr
          150 327 rmoveto
          -30 4 -108 9 -119 vhcurveto
          -1 -31 -106 -3 -28 hhcurveto
          -14 -55 1 1 -53 hvcurveto
          68 133 80 115 96 12 rrcurveto
          10 9 -1 11 hhcurveto
          endchar
        </CharString>
        <CharString name="AE">
          406 -6 72 -45 -21 300 74 -35 62 217 78 -64 64 -6 -20 hstemhm
          527 78 hintmask 10100011
          527 21 callgsubr
          hintmask 10101001
          -131 -137 6 -94 20 callgsubr
          -13 -26 -26 -15 callgsubr
          hvcurveto
          hintmask 10100101
          57 75 10 4 78 hvcurveto
          -62 -60 -55 -107 -41 -91 rrcurveto
          -29 -27 1 -14 hhcurveto
          -18 -20 -16 -22 -25 20 -12 19 hvcurveto
          36 hlineto
          -2 -6 rlineto
          -76 -180 -111 -20 -56 vvcurveto
          -36 23 -8 26 64 80 161 108 41 vhcurveto
          4 12 5 13 6 14 rrcurveto
          1 54 58 2 15 hhcurveto
          26 92 -4 -1 38 hvcurveto
          -2 -137 -7 -70 -47 vvcurveto
          -26 18 -26 27 vhcurveto
          hintmask 01101001
          38 52 6 67 hhcurveto
          hintmask 10011001
          22 callgsubr
          -91 callgsubr
          2 26 36 2 42 -96 callsubr
          -66 hhcurveto
          -42 -36 2 2 -26 hvcurveto
          1 129 6 59 1 40 rrcurveto
          -3 107 100 -12 79 hhcurveto
          -94 callgsubr
          hvcurveto
          hintmask 10100011
          -100 -133 -6 -139 hhcurveto
          -315 vmoveto
          -1 -38 -94 -3 -26 hhcurveto
          -12 -40 1 1 -43 hvcurveto
          126 54 78 135 100 hhcurveto
          12 hlineto
          2 -43 6 -64 1 -152 rrcurveto
          endchar
        </CharString>
        <CharString name="AE.swash">
          376 -269 -21 290 26 callgsubr
          201 54 52 70 -32 62 64 64 106 61 -6 -20 hstemhm
          497 78 47 232 hintmask 1101101101100000
          497 21 callgsubr
          -116 -124 6 -123 hhcurveto
          -19 -21 -17 -22 -24 26 callsubr
          hvcurveto
          hintmask 1101011011100000
          34 callsubr
          -62 -59 -56 -97 -50 -102 rrcurveto
          hintmask 1011101101100000
          -86 callgsubr
          27 94 -4 -1 37 hvcurveto
          hintmask 1101011101100000
          -2 -137 -7 -70 -47 vvcurveto
          -26 -61 callsubr
          vhcurveto
          -57 callsubr
          hintmask 1011011101100000
          69 73 -6 50 hhcurveto
          hintmask 1101011101100000
          -94 callgsubr
          -103 callgsubr
          40 6 -24 21 hhcurveto
          hintmask 1101101101100000
          22 18 17 22 hvcurveto
          hintmask 1101011101100000
          38 -28 11 -32 -60 -82 -49 -79 -38 vhcurveto
          -27 1 -23 1 -18 2 1 128 6 60 1 40 rrcurveto
          -3 89 121 -12 76 hhcurveto
          -94 callgsubr
          hvcurveto
          -50 -253 -6 -69 hhcurveto
          hintmask 1101011011100000
          -9 -56 rmoveto
          2 -43 6 -70 1 -146 rrcurveto
          -1 -38 -96 -3 -26 hhcurveto
          -14 -55 1 1 -53 hvcurveto
          2 5 3 5 3 5 rrcurveto
          78 42 90 169 121 4 6 -1 2 hhcurveto
          endchar
        </CharString>
        <CharString name="Aacute">
          -102 callgsubr
          -138 387 -107 callsubr
          hintmask 0000011000000000
          -81 callsubr
        </CharString>
        <CharString name="Aacute.swash">
          -77 callgsubr
          95 -94 callsubr
          502 62 -48 100 hintmask 1111000100000000
          -22 callgsubr
          25 callsubr
          -76 callsubr
          13 24 hvcurveto
          hintmask 1110100100000000
          22 -16 17 -24 vhcurveto
          hintmask 1111000100000000
          -11 callgsubr
          hintmask 1110100100000000
          34 callsubr
          hintmask 1111000100000000
          -62 -59 -56 -99 -50 -102 rrcurveto
          -86 callgsubr
          150 327 rmoveto
          -30 4 -108 9 -119 vhcurveto
          -1 -31 -106 -3 -28 hhcurveto
          -14 -55 1 1 -53 hvcurveto
          68 133 80 115 96 12 rrcurveto
          10 9 -1 11 hhcurveto
          -90 130 -107 callsubr
          hintmask 0000011000000000
          -81 callsubr
        </CharString>
        <CharString name="Acircumflex">
          -102 callgsubr
          hintmask 0000011000000000
          45 387 -107 callgsubr
          endchar
        </CharString>
        <CharString name="Acircumflex.swash">
          -77 callgsubr
          95 -94 callsubr
          502 62 -48 100 hintmask 1111000100000000
          -97 callgsubr
          25 callsubr
          10 15 0 -1 18 hvcurveto
          hintmask 1110100100000000
          -79 callsubr
          hintmask 1111000100000000
          42 116 -6 60 hhcurveto
          hintmask 1110100100000000
          -66 callgsubr
          hintmask 1111000100000000
          -100 callsubr
          hintmask 0000011000000000
          93 130 -107 callgsubr
          endchar
        </CharString>
        <CharString name="Adieresis">
          -68 callgsubr
          112 93 hstemhm
          260 20 callsubr
          -41 62 -48 100 hintmask 1110000001000000
          -90 callgsubr
          hintmask 1110000010000000
          -76 callsubr
          11 26 hvcurveto
          hintmask 1100100010000000
          23 -16 16 -24 vhcurveto
          hintmask 1110000010000000
          -24 -131 -6 -82 hhcurveto
          hintmask 1100100010000000
          -63 callgsubr
          hintmask 1110000010000000
          -26 21 -11 20 vhcurveto
          hintmask 1101000010000000
          -105 callgsubr
          hintmask 0000011100000000
          -52 453 -106 callsubr
          endchar
        </CharString>
        <CharString name="Adieresis.swash">
          -77 callgsubr
          112 93 hstemhm
          295 20 callsubr
          -76 62 -48 100 25 callsubr
          -97 callgsubr
          hintmask 1111000001000000
          10 15 0 -1 18 hvcurveto
          hintmask 1110100010000000
          -79 callsubr
          25 callsubr
          42 116 -6 60 hhcurveto
          hintmask 1110100010000000
          -66 callgsubr
          25 callsubr
          -100 callsubr
          hintmask 0000011100000000
          -4 196 -106 callsubr
          endchar
        </CharString>
        <CharString name="Agrave">
          -102 callgsubr
          hintmask 0000011000000000
          -52 387 -105 callsubr
        </CharString>
        <CharString name="Agrave.swash">
          -77 callgsubr
          95 -94 callsubr
          502 62 -48 100 hintmask 1111000100000000
          -97 callgsubr
          25 callsubr
          10 15 0 -1 18 hvcurveto
          hintmask 1110100100000000
          -79 callsubr
          hintmask 1111000100000000
          42 116 -6 60 hhcurveto
          hintmask 1110100100000000
          -66 callgsubr
          hintmask 1111000100000000
          -100 callsubr
          hintmask 0000011000000000
          -4 130 -105 callsubr
        </CharString>
        <CharString name="Aring">
          -68 callgsubr
          74 34 69 35 hstemhm
          373 34 69 35 -9 62 -48 100 hintmask 1110000000100000
          -90 callgsubr
          hintmask 1110000001000000
          -76 callsubr
          11 26 hvcurveto
          hintmask 1100100001000000
          23 -16 16 -24 vhcurveto
          hintmask 1110000001000000
          -24 -131 -6 -82 hhcurveto
          hintmask 1100100001000000
          -63 callgsubr
          hintmask 1110000001000000
          -26 21 -11 20 vhcurveto
          hintmask 1101000001000000
          -105 callgsubr
          hintmask 0000011110000000
          -129 436 rmoveto
          -85 callsubr
        </CharString>
        <CharString name="Aring.swash">
          -77 callgsubr
          74 34 69 35 hstemhm
          408 34 60 62 -53 35 -30 100 25 callsubr
          -97 callgsubr
          hintmask 1111000000100000
          10 15 0 -1 18 hvcurveto
          hintmask 1110100010000000
          -79 callsubr
          25 callsubr
          42 116 -6 60 hhcurveto
          hintmask 1110100010000000
          -66 callgsubr
          25 callsubr
          -100 callsubr
          hintmask 0000011101000000
          -81 179 rmoveto
          -85 callsubr
        </CharString>
        <CharString name="Atilde">
          -68 callgsubr
          74 -52 callsubr
          502 62 -48 100 hintmask 1110000001000000
          -90 callgsubr
          hintmask 1110000010000000
          -76 callsubr
          11 26 hvcurveto
          hintmask 1100100010000000
          23 -16 16 -24 vhcurveto
          hintmask 1110000010000000
          -24 -131 -6 -82 hhcurveto
          hintmask 1100100010000000
          -63 callgsubr
          hintmask 1110000010000000
          -26 21 -11 20 vhcurveto
          hintmask 1101000010000000
          -105 callgsubr
          hintmask 0000001000000000
          67 488 -70 callgsubr
        </CharString>
        <CharString name="Atilde.swash">
          -77 callgsubr
          74 -52 callsubr
          502 62 -48 100 25 callsubr
          -97 callgsubr
          hintmask 1111000001000000
          10 15 0 -1 18 hvcurveto
          hintmask 1110100010000000
          -79 callsubr
          25 callsubr
          42 116 -6 60 hhcurveto
          hintmask 1110100010000000
          -66 callgsubr
          25 callsubr
          -100 callsubr
          hintmask 0000001000000000
          115 231 -70 callgsubr
        </CharString>
        <CharString name="B">
          17 -6 58 325 70 180 -4 callgsubr
          147 -78 78 173 71 29 87 hintmask 11101011
          253 627 rmoveto
          83 44 -48 -60 -34 -12 -23 -18 -15 hvcurveto
          -65 -49 -28 -20 -29 hvcurveto
          1 131 8 42 35 vvcurveto
          6 -1 7 -3 6 vhcurveto
          1 12 14 0 15 hhcurveto
          144 -187 rmoveto
          32 28 22 43 35 vvcurveto
          75 -69 75 -110 vhcurveto
          -25 -35 -6 -38 -38 -3 6 -32 hhcurveto
          hintmask 11011011
          -20 -21 -14 -20 callgsubr
          21 hlineto
          hintmask 11101011
          -2 -4 0 -5 -5 -40 9 -117 -110 vvcurveto
          -115 -2 -86 -7 -69 vhcurveto
          -19 hlineto
          -20 -21 -15 -23 hvcurveto
          hintmask 11100111
          -23 26 callsubr
          vhcurveto
          hintmask 11101011
          4 callgsubr
          -68 -388 rmoveto
          -32 -43 6 8 -38 hvcurveto
          -4 100 -5 14 callgsubr
          -117 -76 -50 -75 hvcurveto
          endchar
        </CharString>
        <CharString name="B.swash">
          17 -6 65 318 70 3 246 -67 67 hstemhm
          -7 73 -6 147 -78 78 173 71 29 87 hintmask 1101010110000000
          -7 488 rmoveto
          hintmask 1110101110000000
          -22 11 -16 25 23 14 16 22 42 18 37 36 31 vhcurveto
          1 -40 8 -55 -163 -155 -9 -66 -49 vvcurveto
          -19 hlineto
          -20 -21 -15 -20 callgsubr
          4 callgsubr
          31 27 23 34 45 vvcurveto
          75 -69 75 -110 -150 -129 -123 -85 vhcurveto
          hintmask 1110010110000000
          336 -429 rmoveto
          -32 -43 3 4 -38 hvcurveto
          -2 100 -7 14 callgsubr
          -112 -76 -48 -75 hvcurveto
          hintmask 1110101110000000
          -113 548 rmoveto
          7 -2 7 -3 7 vhcurveto
          7 7 1 8 hhcurveto
          93 54 -40 -70 -34 -12 -23 -18 -15 hvcurveto
          -75 -52 -37 -14 -16 hvcurveto
          1 134 8 41 36 vvcurveto
          endchar
        </CharString>
        <CharString name="C">
          69 -50 callgsubr
          hstemhm
          25 82 vstemhm
          378 696 rmoveto
          -206 -147 -169 -202 -192 132 -139 175 32 callsubr
          -8 -7 -6 -18 -15 hvcurveto
          -42 -36 -67 -64 -100 -36 callgsubr
          155 hvcurveto
          hintmask 11100000
          9 callgsubr
          hvcurveto
          endchar
        </CharString>
        <CharString name="C.swash">
          69 -6 68 289 78 199 68 hstemhm
          25 82 336 173 -55 55 hintmask 11110100
          376 696 rmoveto
          -203 -148 -169 -202 -192 132 -139 175 hvcurveto
          hintmask 11111000
          32 callsubr
          -10 -7 -8 -16 -13 hvcurveto
          -29 callgsubr
          -22 callsubr
        </CharString>
        <CharString name="CR">
          -287 endchar
        </CharString>
        <CharString name="Ccedilla">
          69 34 callgsubr
          61 67 469 165 -68 68 hstemhm
          25 82 172 86 -29 29 26 45 hintmask 1011101011000000
          306 -5 rmoveto
          18 -1 12 -10 -16 vvcurveto
          hintmask 1011101101000000
          -74 callsubr
          hintmask 0111011101000000
          -59 callsubr
          -8 -7 -6 -18 -15 vhcurveto
          -42 -36 -67 -64 -100 -36 callgsubr
          155 hvcurveto
          hintmask 1011101101000000
          9 callgsubr
          -206 -147 13 callsubr
          endchar
        </CharString>
        <CharString name="Ccedilla.swash">
          69 34 callgsubr
          61 67 289 78 199 68 hstemhm
          25 82 172 86 -29 29 26 45 7 173 -55 55 hintmask 1011111011100000
          376 696 rmoveto
          -203 -148 13 callsubr
          hintmask 1011111101100000
          18 -1 12 -10 -16 -44 -57 -6 -33 vvcurveto
          -13 9 -9 12 vhcurveto
          21 18 7 13 hhcurveto
          24 15 -17 -22 -22 -19 -21 -13 hvcurveto
          -59 callsubr
          -10 -7 -8 -16 -13 vhcurveto
          hintmask 0111111101010000
          -29 callgsubr
          hintmask 1011111101100000
          -22 callsubr
        </CharString>
        <CharString name="D">
          104 -6 71 562 -4 callgsubr
          178 -78 78 355 73 hintmask 11010100
          297 -6 rmoveto
          -21 callgsubr
          hvcurveto
          hintmask 10110100
          -74 -28 -6 -54 hhcurveto
          hintmask 11010100
          -44 -27 -29 callsubr
          15 16 1 1 19 hvcurveto
          hintmask 11001100
          1 -42 8 -56 -176 -120 -9 -113 -53 23 callsubr
          -59 354 rmoveto
          183 8 53 1 42 -23 callgsubr
          -5 81 -4 105 87 vvcurveto
          endchar
        </CharString>
        <CharString name="D.swash">
          104 -6 71 169 179 214 69 -6 -20 hstemhm
          63 74 72 78 56 94 156 73 hintmask 11101111
          209 392 rmoveto
          -73 -35 -73 -55 -106 vvcurveto
          -129 117 -73 117 -21 callgsubr
          vhcurveto
          -74 -28 -6 -54 -44 -27 -29 callsubr
          27 27 3 2 48 hvcurveto
          -2 -6 -1 -6 -6 -30 9 -35 -150 vvcurveto
          134 -109 rmoveto
          -24 19 -25 29 29 17 25 26 60 -49 68 -101 vhcurveto
          129 9 35 30 vvcurveto
          hintmask 11011111
          6 -2 7 -2 7 vhcurveto
          hintmask 11101111
          5 hlineto
          192 104 -101 -164 -164 -116 -133 -155 -122 -63 66 85 64 31 49 40 19 hvcurveto
          -2 -76 -6 -37 -30 vvcurveto
          -24 19 -25 29 29 19 25 24 30 -7 38 -2 79 vhcurveto
          35 -11 21 -25 -33 vvcurveto
          endchar
        </CharString>
        <CharString name="E">
          12 -13 callsubr
          345 62 217 78 -6 -24 callgsubr
          hintmask 10101100
          5 callsubr
          hintmask 10110100
          -69 -83 6 -50 20 callgsubr
          -13 -26 -26 -15 callgsubr
          hvcurveto
          23 hlineto
          hintmask 01110010
          2 -43 7 -68 -159 -92 callgsubr
          vhcurveto
          hintmask 10110100
          -57 callsubr
          hintmask 01110100
          22 callgsubr
          hvcurveto
          hintmask 10110100
          -91 callgsubr
          2 26 36 2 42 -96 callsubr
          -66 hhcurveto
          -42 -36 2 2 -26 hvcurveto
          1 122 6 57 1 38 rrcurveto
          1 29 30 1 25 69 83 -98 callsubr
          hvcurveto
          hintmask 10101100
          40 callgsubr
        </CharString>
        <CharString name="E.swash">
          -73 callgsubr
          12 callsubr
          -78 78 47 232 hintmask 1011100110100000
          5 callsubr
          hintmask 1011101010100000
          -69 -83 6 -50 20 callgsubr
          -13 -26 -26 -15 callgsubr
          hvcurveto
          23 hlineto
          hintmask 0111101001100000
          2 -43 7 -68 -159 -92 callgsubr
          vhcurveto
          hintmask 1011101010100000
          -57 callsubr
          hintmask 0111101010100000
          22 callgsubr
          hvcurveto
          hintmask 1011011010100000
          -103 callgsubr
          hhcurveto
          hintmask 1011101010100000
          -98 callgsubr
          hintmask 1011100110100000
          40 callgsubr
        </CharString>
        <CharString name="Eacute">
          12 -13 callsubr
          345 62 217 78 -6 -20 101 -21 129 -24 callgsubr
          hintmask 1010100100000000
          5 callsubr
          hintmask 1011000100000000
          -69 -83 6 -50 20 callgsubr
          -13 -26 -26 -15 callgsubr
          hvcurveto
          23 hlineto
          hintmask 0111000010000000
          2 -43 7 -68 -159 -92 callgsubr
          vhcurveto
          hintmask 1011000100000000
          -57 callsubr
          hintmask 0111000100000000
          22 callgsubr
          hvcurveto
          hintmask 1011000100000000
          -91 callgsubr
          2 26 36 2 42 -96 callsubr
          -66 hhcurveto
          -42 -36 2 2 -26 hvcurveto
          1 122 6 57 1 38 rrcurveto
          1 29 30 1 25 69 83 -98 callsubr
          hvcurveto
          hintmask 1010100100000000
          -62 callgsubr
          -49 72 -107 callsubr
          hintmask 0000011000000000
          -81 callsubr
        </CharString>
        <CharString name="Eacute.swash">
          -73 callgsubr
          101 -21 129 -24 callgsubr
          47 232 hintmask 0000000011000000
          254 762 -86 callsubr
          hintmask 1011100100101000
          49 -72 rmoveto
          hintmask 1011101000101000
          -69 -83 6 -50 20 callgsubr
          -13 -26 -26 -15 callgsubr
          hvcurveto
          23 hlineto
          hintmask 0111101000011000
          2 -43 7 -68 -159 -92 callgsubr
          vhcurveto
          hintmask 1011101000101000
          -57 callsubr
          hintmask 0111101000101000
          22 callgsubr
          hvcurveto
          hintmask 1011011000101000
          -103 callgsubr
          hhcurveto
          hintmask 1011101000101000
          -98 callgsubr
          hintmask 1011100100101000
          40 callgsubr
        </CharString>
        <CharString name="Ecircumflex">
          12 -13 callsubr
          345 62 217 78 -6 -20 101 -21 129 -24 callgsubr
          hintmask 1010100100000000
          5 callsubr
          hintmask 1011000100000000
          -69 -83 6 -50 20 callgsubr
          -13 -26 -26 -15 callgsubr
          hvcurveto
          23 hlineto
          hintmask 0111000010000000
          2 -43 7 -68 -159 -92 callgsubr
          vhcurveto
          hintmask 1011000100000000
          -57 callsubr
          hintmask 0111000100000000
          22 callgsubr
          hvcurveto
          hintmask 1011000100000000
          -91 callgsubr
          2 26 36 2 42 -96 callsubr
          -66 hhcurveto
          -42 -36 2 2 -26 hvcurveto
          1 122 6 57 1 38 rrcurveto
          1 29 30 1 25 69 83 -98 callsubr
          hvcurveto
          hintmask 1010100100000000
          -62 callgsubr
          hintmask 0000011000000000
          153 72 -107 callgsubr
          endchar
        </CharString>
        <CharString name="Ecircumflex.swash">
          -73 callgsubr
          101 -21 129 -24 callgsubr
          47 232 hintmask 0000000011000000
          456 762 -107 callgsubr
          hintmask 1011100100101000
          -153 -72 rmoveto
          hintmask 1011101000101000
          -69 -83 6 -50 20 callgsubr
          -13 -26 -26 -15 callgsubr
          hvcurveto
          23 hlineto
          hintmask 0111101000011000
          2 -43 7 -68 -159 -92 callgsubr
          vhcurveto
          hintmask 1011101000101000
          -57 callsubr
          hintmask 0111101000101000
          22 callgsubr
          hvcurveto
          hintmask 1011011000101000
          -103 callgsubr
          hhcurveto
          hintmask 1011101000101000
          -98 callgsubr
          hintmask 1011100100101000
          40 callgsubr
        </CharString>
        <CharString name="Edieresis">
          12 -13 callsubr
          345 62 217 78 -6 -20 118 93 -51 callgsubr
          -21 20 callsubr
          hintmask 1010101000000000
          5 callsubr
          hintmask 1011001000000000
          -69 -83 6 -50 20 callgsubr
          -13 -26 -26 -15 callgsubr
          hvcurveto
          23 hlineto
          hintmask 0111000100000000
          2 -43 7 -68 -159 -92 callgsubr
          vhcurveto
          hintmask 1011001000000000
          -57 callsubr
          hintmask 0111001000000000
          22 callgsubr
          hvcurveto
          hintmask 1011001000000000
          -91 callgsubr
          2 26 36 2 42 -96 callsubr
          -66 hhcurveto
          -42 -36 2 2 -26 hvcurveto
          1 122 6 57 1 38 rrcurveto
          1 29 30 1 25 69 83 -98 callsubr
          hvcurveto
          hintmask 1010101000000000
          -62 callgsubr
          hintmask 0000010011000000
          77 138 -106 callsubr
          endchar
        </CharString>
        <CharString name="Edieresis.swash">
          -73 callgsubr
          118 93 -51 callgsubr
          -21 93 -25 232 -110 93 hintmask 0000000010010100
          380 828 -106 callsubr
          hintmask 1011100101001000
          113 -138 rmoveto
          hintmask 1011101001001000
          -69 -83 6 -50 20 callgsubr
          -13 -26 -26 -15 callgsubr
          hvcurveto
          23 hlineto
          hintmask 0111101000101000
          2 -43 7 -68 -159 -92 callgsubr
          vhcurveto
          hintmask 1011101001001000
          -57 callsubr
          hintmask 0111101001001000
          22 callgsubr
          hvcurveto
          hintmask 1011011001001000
          -103 callgsubr
          hhcurveto
          hintmask 1011101001001000
          -98 callgsubr
          hintmask 1011100101001000
          40 callgsubr
        </CharString>
        <CharString name="Egrave">
          12 -13 callsubr
          345 62 217 78 -6 -20 101 -21 129 -24 callgsubr
          hintmask 1010100100000000
          5 callsubr
          hintmask 1011000100000000
          -69 -83 6 -50 20 callgsubr
          -13 -26 -26 -15 callgsubr
          hvcurveto
          23 hlineto
          hintmask 0111000010000000
          2 -43 7 -68 -159 -92 callgsubr
          vhcurveto
          hintmask 1011000100000000
          -57 callsubr
          hintmask 0111000100000000
          22 callgsubr
          hvcurveto
          hintmask 1011000100000000
          -91 callgsubr
          2 26 36 2 42 -96 callsubr
          -66 hhcurveto
          -42 -36 2 2 -26 hvcurveto
          1 122 6 57 1 38 rrcurveto
          1 29 30 1 25 69 83 -98 callsubr
          hvcurveto
          hintmask 1010100100000000
          -62 callgsubr
          hintmask 0000011000000000
          97 72 -105 callsubr
        </CharString>
        <CharString name="Egrave.swash">
          -73 callgsubr
          101 -21 129 -24 callgsubr
          47 232 hintmask 1011100100101000
          5 callsubr
          hintmask 1011101000101000
          -69 -83 6 -50 20 callgsubr
          -13 -26 -26 -15 callgsubr
          hvcurveto
          23 hlineto
          hintmask 0111101000011000
          2 -43 7 -68 -159 -92 callgsubr
          vhcurveto
          hintmask 1011101000101000
          -57 callsubr
          hintmask 0111101000101000
          22 callgsubr
          hvcurveto
          hintmask 1011011000101000
          -103 callgsubr
          hhcurveto
          hintmask 1011101000101000
          -98 callgsubr
          hintmask 1011100100101000
          -62 callgsubr
          hintmask 0000000011000000
          97 72 -105 callsubr
        </CharString>
        <CharString name="Eth">
          119 -6 71 237 70 255 -4 callgsubr
          178 -166 166 -78 78 355 73 hintmask 11101001
          297 -6 rmoveto
          -21 callgsubr
          hvcurveto
          hintmask 11011001
          -74 -28 -6 -54 hhcurveto
          hintmask 11101001
          -44 -27 -29 callsubr
          15 16 1 1 19 hvcurveto
          hintmask 11100011
          1 -40 7 -54 1 -156 rrcurveto
          1 -24 -18 2 -10 hhcurveto
          hintmask 11100101
          -71 callgsubr
          hintmask 11100011
          10 18 1 1 24 hvcurveto
          -2 -103 -7 -93 -46 23 callsubr
          89 308 rmoveto
          -93 callsubr
          -21 -52 -6 -75 hhcurveto
          165 8 51 1 41 -23 callgsubr
          -4 68 -4 86 -1 78 rrcurveto
          75 52 -5 21 hhcurveto
          endchar
        </CharString>
        <CharString name="Euro">
          70 -6 68 162 71 57 66 63 161 -66 66 hstemhm
          hintmask 11101000
          24 381 rmoveto
          -25 20 -9 19 vhcurveto
          13 hlineto
          -4 -18 -3 -19 -2 -18 rrcurveto
          -4 hlineto
          -19 -20 -9 -25 -25 20 -9 22 hvcurveto
          -123 11 74 -107 119 hhcurveto
          171 109 135 39 14 -8 10 -12 -8 -9 -7 -17 -13 hvcurveto
          -37 -26 -58 -69 -88 hhcurveto
          -86 -68 67 97 -26 hvcurveto
          1 28 28 2 32 51 59 -8 48 hhcurveto
          -68 callsubr
          hvcurveto
          -48 -59 -8 -51 hhcurveto
          -36 -32 1 2 -30 hvcurveto
          -1 9 0 9 9 vvcurveto
          11 0 10 1 11 vhcurveto
          1 31 31 2 36 51 59 -8 48 hhcurveto
          -68 callsubr
          hvcurveto
          -48 -59 -8 -51 hhcurveto
          -32 -28 1 1 -27 hvcurveto
          96 27 68 68 85 hhcurveto
          50 31 -24 -20 21 hvcurveto
          hintmask 11110000
          -23 24 29 -28 32 hhcurveto
          23 12 15 23 45 -74 78 -90 -136 -107 -95 -133 -49 hvcurveto
          1 -11 -10 0 -11 hhcurveto
          -19 -20 -9 -25 hvcurveto
          endchar
        </CharString>
        <CharString name="F">
          -21 15 -21 325 62 237 78 -6 -24 callgsubr
          hintmask 11011000
          hintmask 11101000
          5 callsubr
          -69 -83 6 -50 20 callgsubr
          -13 -26 -26 -15 callgsubr
          hvcurveto
          23 hlineto
          2 -43 7 -68 -159 -84 callsubr
          49 -8 73 -1 147 vhcurveto
          2 26 36 2 42 -96 callsubr
          -66 hhcurveto
          -42 -36 2 2 -26 hvcurveto
          hintmask 11100100
          1 137 5 60 2 40 8 callsubr
          hintmask 11011000
          26 -21 13 -20 vhcurveto
          40 callgsubr
        </CharString>
        <CharString name="F.swash">
          -1 15 -21 297 81 -81 136 191 78 -6 -20 12 callsubr
          -137 137 -78 78 hintmask 11001100
          hintmask 11010100
          5 callsubr
          -69 -83 6 -50 20 callgsubr
          -13 -26 -26 -15 callgsubr
          hvcurveto
          23 hlineto
          2 -37 6 -58 1 -119 rrcurveto
          -34 -22 -25 -33 -21 vvcurveto
          hintmask 11010001
          -19 9 -8 13 14 10 13 13 13 vhcurveto
          -1 -155 24 callgsubr
          53 -9 79 178 vvcurveto
          -9 49 24 -56 81 hhcurveto
          77 50 73 38 hvcurveto
          hintmask 11010010
          17 -9 8 -15 vhcurveto
          -37 16 -55 -83 hhcurveto
          hintmask 10110001
          -38 -44 46 7 -71 hvcurveto
          hintmask 11010100
          2 109 5 53 1 35 8 callsubr
          hintmask 11001100
          26 -21 13 -20 vhcurveto
          40 callgsubr
        </CharString>
        <CharString name="G">
          104 -50 callgsubr
          hstemhm
          40 82 418 87 vstemhm
          393 696 rmoveto
          -206 -147 -162 -220 -176 132 -144 175 77 68 34 38 48 hvcurveto
          -21 vlineto
          -25 -61 callsubr
          -43 callsubr
          25 vhcurveto
          28 -9 35 55 55 9 35 28 vvcurveto
          15 callsubr
          vhcurveto
          -28 9 -35 -55 -9 -1 -9 -9 vvcurveto
          -34 -37 -60 -40 7 callsubr
          hintmask 11110000
          149 12 -97 55 hhcurveto
          28 20 22 27 62 -122 54 -116 hvcurveto
          endchar
        </CharString>
        <CharString name="G.swash">
          104 -268 -21 283 68 566 68 hstemhm
          40 82 427 78 vstemhm
          393 696 rmoveto
          -206 -147 -162 -220 -176 132 -144 175 79 72 36 41 51 hvcurveto
          -42 vlineto
          -1 -157 -8 -63 -49 vvcurveto
          -24 19 -25 29 29 19 25 24 vhcurveto
          49 -9 63 157 170 9 43 39 vvcurveto
          15 callsubr
          -22 5 -39 3 -84 vhcurveto
          -35 -37 -60 -39 7 callsubr
          hintmask 11111000
          149 12 -97 55 hhcurveto
          28 20 22 26 63 -122 54 -116 hvcurveto
          endchar
        </CharString>
        <CharString name="H">
          63 15 -21 336 72 293 -20 hstemhm
          60 131 -78 78 292 78 hintmask 11101100
          303 402 rmoveto
          -36 -40 1 2 -36 hvcurveto
          1 146 8 53 39 31 callgsubr
          -52 2 -144 vhcurveto
          -12 hlineto
          -20 -21 -13 -26 -26 -15 callgsubr
          hvcurveto
          12 hlineto
          -1 -158 24 callgsubr
          51 -9 77 159 vvcurveto
          2 37 41 1 34 hhcurveto
          hintmask 11110100
          59 71 -5 -1 50 hvcurveto
          -1 -158 -8 -75 -51 vvcurveto
          hintmask 11101100
          3 callsubr
          61 43 31 callgsubr
          -52 2 -144 vhcurveto
          -1 -50 -71 -5 -59 hhcurveto
          endchar
        </CharString>
        <CharString name="H.swash">
          63 15 -21 277 71 26 73 254 -20 hstemhm
          59 132 -79 79 291 79 hintmask 11110110
          191 368 rmoveto
          -3 84 29 -94 121 hhcurveto
          21 19 5 9 17 hvcurveto
          -2 -127 -6 -66 -46 vvcurveto
          3 callsubr
          61 43 vvcurveto
          26 -19 26 27 callgsubr
          -27 -26 -42 8 -59 1 -180 vhcurveto
          -11 -12 -17 -8 -30 -55 -59 99 -105 hhcurveto
          -5 -4 0 -1 -5 hvcurveto
          2 120 7 48 35 31 callgsubr
          -51 1 -140 vhcurveto
          hintmask 11111010
          -32 -21 -21 -30 -24 vvcurveto
          -19 11 -8 16 10 8 6 9 9 vhcurveto
          -1 -155 -8 -75 -50 vvcurveto
          -74 callgsubr
          190 vvcurveto
          endchar
        </CharString>
        <CharString name="I">
          -371 -16 callsubr
          hstem
          69 78 vstem
          147 3 callgsubr
          -96 callgsubr
          -170 -9 -79 -53 vvcurveto
          -89 callgsubr
          vvcurveto
          endchar
        </CharString>
        <CharString name="I.swash">
          -93 -43 callgsubr
          17 callsubr
          106 78 hintmask 11011010
          127 509 rmoveto
          -67 callgsubr
          hintmask 11100110
          -83 callsubr
          -1 20 21 -7 17 hhcurveto
          20 21 13 24 41 -60 8 -89 -97 -168 -6 callsubr
          19 -13 16 -20 hvcurveto
          endchar
        </CharString>
        <CharString name="IJ">
          -14 -269 -21 305 -21 624 78 -6 -20 26 -20 hstemhm
          69 78 99 238 -75 75 hintmask 01001100
          147 3 callgsubr
          -96 callgsubr
          -170 -9 -79 -53 vvcurveto
          -89 callgsubr
          vvcurveto
          hintmask 10010010
          219 342 rmoveto
          -27 -32 6 -20 20 callgsubr
          -13 -26 -26 -15 callgsubr
          hvcurveto
          12 40 6 27 hhcurveto
          11 12 -1 -1 11 hvcurveto
          2 -49 7 -93 -212 vvcurveto
          hintmask 10100010
          -33 callgsubr
          hintmask 10100001
          26 -18 28 -29 vhcurveto
          hintmask 10010010
          -25 -29 -6 -26 hhcurveto
          endchar
        </CharString>
        <CharString name="IJ.swash">
          6 -290 60 -60 165 119 76 370 69 104 83 -66 66 17 callsubr
          106 78 265 75 hintmask 1011101011000000
          350 618 rmoveto
          9 56 -5 58 43 41 12 44 hhcurveto
          6 -57 2 -97 -203 vvcurveto
          25 callgsubr
          hintmask 0111100111000000
          -19 callsubr
          10 106 82 vvcurveto
          26 -18 28 -29 vhcurveto
          -49 -61 -6 -50 -19 -155 6 -12 hhcurveto
          -97 -169 -6 callsubr
          19 -13 16 -20 hvcurveto
          hintmask 1011011011000000
          -67 callgsubr
          -83 callsubr
          endchar
        </CharString>
        <CharString name="Iacute">
          -351 15 -52 callgsubr
          69 78 hintmask 11001000
          147 3 callgsubr
          -96 callgsubr
          -170 -9 -79 -53 vvcurveto
          -89 callgsubr
          vvcurveto
          -107 414 -107 callsubr
          hintmask 00110000
          -81 callsubr
        </CharString>
        <CharString name="Iacute.swash">
          -56 callsubr
          hintmask 0000110000000000
          237 762 -86 callsubr
          -110 -253 rmoveto
          -67 callgsubr
          hintmask 1101001010000000
          -83 callsubr
          -1 20 21 -7 17 hhcurveto
          20 21 13 24 41 -60 8 -89 -97 -168 -6 callsubr
          hvcurveto
          hintmask 1110000110000000
          19 -13 16 -20 vhcurveto
          endchar
        </CharString>
        <CharString name="Icircumflex">
          -351 15 -52 callgsubr
          69 78 hintmask 11001000
          -90 callsubr
          hintmask 00110000
          85 414 -107 callgsubr
          endchar
        </CharString>
        <CharString name="Icircumflex.swash">
          -56 callsubr
          hintmask 0000110000000000
          429 762 -107 callgsubr
          hintmask 1101001010000000
          -302 -253 rmoveto
          20 13 -16 -19 -20 -15 -14 -26 -48 -36 48 50 138 168 20 97 89 60 -8 -41 -24 -21 -13 -20 -17 -21 7 1 -20 hvcurveto
          -5 -56 -1 -61 -153 vvcurveto
          -121 0 -85 8 -77 vhcurveto
          17 26 5 13 hhcurveto
          20 21 -13 -25 -25 -23 -13 -20 hvcurveto
          -35 -21 7 -45 -45 -21 -7 -35 hhcurveto
          -20 -23 13 25 hvcurveto
          hintmask 1110000110000000
          -51 callsubr
        </CharString>
        <CharString name="Idieresis">
          -351 -16 callsubr
          112 93 hstemhm
          -31 93 7 78 12 93 hintmask 11001000
          -90 callsubr
          hintmask 00110100
          12 480 -106 callsubr
          endchar
        </CharString>
        <CharString name="Idieresis.swash">
          -93 -43 callgsubr
          92 93 17 callsubr
          6 93 7 78 12 93 hintmask 0000100101000000
          356 828 -106 callsubr
          hintmask 1101010010000000
          -39 -319 rmoveto
          20 13 -16 -19 -20 -15 -14 -26 -48 -36 48 50 138 168 20 97 89 60 -8 -41 -24 -21 -13 -20 -17 -21 7 1 -20 hvcurveto
          -5 -56 -1 -61 -153 vvcurveto
          -121 0 -85 8 -77 vhcurveto
          17 26 5 13 hhcurveto
          20 21 -13 -25 -25 -23 -13 -20 hvcurveto
          -35 -21 7 -45 -45 -21 -7 -35 hhcurveto
          -20 -23 13 25 hvcurveto
          hintmask 1110001010000000
          -51 callsubr
        </CharString>
        <CharString name="Igrave">
          -351 15 -52 callgsubr
          69 78 hintmask 11001000
          -90 callsubr
          hintmask 00110000
          29 414 -105 callsubr
        </CharString>
        <CharString name="Igrave.swash">
          -56 callsubr
          hintmask 1101001010000000
          127 509 rmoveto
          20 13 -16 -19 -20 -15 -14 -26 -48 -36 48 50 138 168 20 97 89 60 -8 -41 -24 -21 -13 -20 -17 -21 7 1 -20 hvcurveto
          -5 -56 -1 -61 -153 vvcurveto
          -121 0 -85 8 -77 vhcurveto
          17 26 5 13 hhcurveto
          20 21 -13 -25 -25 -23 -13 -20 hvcurveto
          -35 -21 7 -45 -45 -21 -7 -35 hhcurveto
          -20 -23 13 25 hvcurveto
          hintmask 1110000110000000
          -85 callgsubr
          hintmask 0000110000000000
          226 253 -105 callsubr
        </CharString>
        <CharString name="Itilde">
          -351 -16 callsubr
          77 -52 callsubr
          69 78 hintmask 11000100
          -90 callsubr
          hintmask 00010000
          119 518 -99 callsubr
        </CharString>
        <CharString name="Itilde.swash">
          -79 -43 callgsubr
          57 -52 callsubr
          35 55 -55 125 106 78 hintmask 0000010000000000
          463 866 rmoveto
          11 -6 5 -9 vhcurveto
          hintmask 0000100000000000
          -19 5 -66 -48 hhcurveto
          hintmask 0000001000000000
          -81 callgsubr
          hintmask 0000100000000000
          -12 7 -5 10 vhcurveto
          hintmask 0000001000000000
          19 -13 45 57 hhcurveto
          hintmask 0000100000000000
          -82 callsubr
          hintmask 1101000101000000
          -336 -357 rmoveto
          20 13 -16 -19 -20 -15 -14 -26 -48 -36 48 50 138 168 20 97 89 60 -8 -41 -24 -21 -13 -20 -17 -21 7 1 -20 hvcurveto
          -5 -56 -1 -61 -153 vvcurveto
          -121 0 -85 8 -77 vhcurveto
          17 26 5 13 hhcurveto
          20 21 -13 -25 -25 -23 -13 -20 hvcurveto
          -35 -21 7 -45 -45 -21 -7 -35 hhcurveto
          -20 -23 13 25 hvcurveto
          hintmask 1110000011000000
          -51 callsubr
        </CharString>
        <CharString name="J">
          -230 -269 -21 908 78 -6 -20 hstemhm
          30 238 -75 75 hintmask 10110000
          hintmask 11010000
          150 21 callgsubr
          -27 -32 6 -20 20 callgsubr
          -13 -26 -26 -15 callgsubr
          hvcurveto
          12 40 6 27 hhcurveto
          11 12 -1 -1 11 hvcurveto
          2 -49 7 -93 -212 vvcurveto
          hintmask 11001000
          -33 callgsubr
          hintmask 10110000
          26 -18 28 -29 vhcurveto
          -25 -29 -6 -26 hhcurveto
          endchar
        </CharString>
        <CharString name="J.swash">
          -160 -290 60 -60 165 561 69 121 70 17 callsubr
          103 75 hintmask 10111010
          255 622 rmoveto
          6 -56 2 -97 -201 vvcurveto
          hintmask 01110110
          25 callgsubr
          -19 callsubr
          9 102 82 vvcurveto
          51 -55 7 -42 -96 -119 -45 -117 -50 36 -48 48 vhcurveto
          hintmask 10111010
          26 15 14 20 20 -13 15 -20 -24 -13 20 32 44 58 25 56 21 16 -2 -2 14 hvcurveto
          endchar
        </CharString>
        <CharString name="Jcircumflex">
          -230 -269 -21 908 78 -6 -20 104 -94 callsubr
          30 238 -75 75 hintmask 10100100
          150 21 callgsubr
          hintmask 11000100
          26 29 6 25 hhcurveto
          29 18 -28 -26 hvcurveto
          -43 -9 -83 -246 vvcurveto
          -460 -121 -100 -61 -30 -19 25 21 vhcurveto
          hintmask 11000010
          36 32 8 32 34 vhcurveto
          63 67 29 122 245 vvcurveto
          212 -7 93 -2 49 vhcurveto
          1 -11 -12 1 -11 -27 -40 -6 -12 20 callgsubr
          13 26 26 21 13 20 hvcurveto
          hintmask 10100100
          20 32 -6 27 hhcurveto
          hintmask 00011000
          152 75 -107 callgsubr
          endchar
        </CharString>
        <CharString name="K">
          -30 15 -21 602 100 -83 83 hstemhm
          65 86 hintmask 10110000
          470 696 rmoveto
          -82 -166 -139 -123 -74 hvcurveto
          hintmask 11010000
          1 77 2 76 57 vvcurveto
          26 -15 26 -29 -29 -18 -27 -26 vhcurveto
          -83 5 -101 -111 -110 -5 -109 -83 vvcurveto
          -26 18 -26 29 29 15 26 26 vhcurveto
          83 -4 89 115 vvcurveto
          15 -15 37 -36 73 -79 rrcurveto
          -113 105 56 -96 52 hhcurveto
          25 17 16 33 48 -84 61 -110 112 hvcurveto
          -146 147 19 29 25 33 28 30 rlinecurve
          -1 callsubr
          hvcurveto
          endchar
        </CharString>
        <CharString name="K.swash">
          -30 -269 -21 305 -21 619 83 hstem
          65 86 vstem
          147 3 callgsubr
          49 -62 113 -128 103 -95 rrcurveto
          -176 190 231 -177 88 hhcurveto
          35 18 19 25 29 -33 24 -32 15 hvcurveto
          -83 39 -334 151 -306 397 19 30 26 33 28 31 rrcurveto
          -1 callsubr
          -82 -166 -139 -123 -74 hvcurveto
          1 77 2 76 57 vvcurveto
          26 -15 26 -29 -29 -18 -27 -26 vhcurveto
          -83 5 -101 -111 -110 -5 -109 -83 vvcurveto
          -26 18 -26 29 29 15 26 26 vhcurveto
          89 -4 95 118 vvcurveto
          endchar
        </CharString>
        <CharString name="L">
          -104 0 66 -51 -26 callgsubr
          hstemhm
          69 78 hintmask 01110000
          147 3 callgsubr
          hintmask 10110000
          38 callgsubr
          -29 -19 -28 -26 vhcurveto
          hintmask 01110000
          2 callgsubr
          hintmask 10110000
          17 callgsubr
          -27 19 -25 29 vhcurveto
          35 51 6 66 69 33 -98 callsubr
          -43 -116 -5 -1 -97 hvcurveto
          -2 53 -7 79 150 vvcurveto
          endchar
        </CharString>
        <CharString name="L.swash">
          16 callgsubr
          420 -20 hstemhm
          69 78 145 181 -66 66 hintmask 10111100
          332 71 rmoveto
          hintmask 01111100
          -19 callgsubr
          hintmask 10111100
          -29 -19 -28 -26 hvcurveto
          hintmask 01111100
          2 callgsubr
          hintmask 10111010
          -49 callsubr
          -35 -35 -26 -40 -3 hvcurveto
          endchar
        </CharString>
        <CharString name="Ldotaccent">
          -104 -13 callsubr
          255 101 346 -20 hstemhm
          69 78 138 101 hintmask 01011000
          147 3 callgsubr
          hintmask 10011000
          38 callgsubr
          -29 -19 -28 -26 vhcurveto
          hintmask 01011000
          2 callgsubr
          hintmask 10011000
          17 callgsubr
          -27 19 -25 29 vhcurveto
          35 51 6 66 69 33 -98 callsubr
          -43 -116 -5 -1 -97 hvcurveto
          -2 53 -7 79 150 vvcurveto
          hintmask 00100100
          138 -56 -73 callsubr
          endchar
        </CharString>
        <CharString name="Ldotaccent.swash">
          16 callgsubr
          73 101 246 -20 hstemhm
          69 78 138 101 -94 181 -66 66 hintmask 0001001000000000
          285 392 -73 callsubr
          47 -321 rmoveto
          hintmask 1010110100000000
          -19 callgsubr
          hintmask 0110110100000000
          -29 -19 -28 -26 hvcurveto
          hintmask 1010110100000000
          2 callgsubr
          hintmask 0110110100000000
          -49 callsubr
          hvcurveto
          hintmask 1010110010000000
          -35 -35 -26 -40 -3 vhcurveto
          endchar
        </CharString>
        <CharString name="Lslash">
          -104 0 66 -51 -26 callgsubr
          hstemhm
          -52 199 -79 79 -79 196 hintmask 10110000
          -52 205 rmoveto
          7 callgsubr
          -27 19 -25 29 vhcurveto
          35 51 6 66 hhcurveto
          hintmask 01101000
          69 33 -6 50 hhcurveto
          20 21 13 26 hvcurveto
          hintmask 10110000
          26 -21 13 -20 -43 -116 -5 -1 -97 vhcurveto
          hintmask 01110000
          -2 callgsubr
          hintmask 10110000
          -14 -37 -32 -33 -41 hvcurveto
          hintmask 10100100
          189 9 60 43 vvcurveto
          26 -19 28 27 callgsubr
          -28 -26 vhcurveto
          hintmask 10110000
          2 callgsubr
          -54 vlineto
          -65 -40 -56 -24 -25 vvcurveto
          endchar
        </CharString>
        <CharString name="Lslash.swash">
          16 callgsubr
          420 -20 hstemhm
          -52 199 -78 78 -78 195 28 181 -66 66 hintmask 1011100100000000
          332 71 rmoveto
          hintmask 1011001100000000
          -4 -39 -52 -1 -50 hhcurveto
          -35 hlineto
          -2 callgsubr
          hintmask 1011010100000000
          -14 -37 -32 -33 -41 hvcurveto
          hintmask 0111100100000000
          189 9 60 43 vvcurveto
          26 -19 28 27 callgsubr
          -28 -26 vhcurveto
          2 callgsubr
          -54 vlineto
          hintmask 1011100100000000
          -65 -40 -56 -24 -25 vvcurveto
          7 callgsubr
          -29 21 -23 31 vhcurveto
          28 24 4 66 hhcurveto
          hintmask 0111100100000000
          37 15 -4 23 hhcurveto
          87 81 85 81 hvcurveto
          hintmask 1011100010000000
          61 -54 55 -72 -30 -25 -18 -22 -27 23 -12 21 40 31 -29 -33 -35 -35 -26 -40 -3 vhcurveto
          endchar
        </CharString>
        <CharString name="M">
          320 0 65 -50 -26 callgsubr
          hstemhm
          55 78 154 62 134 79 159 106 hintmask 10111110
          151 3 callgsubr
          11 135 13 64 6 42 77 -27 86 -78 61 -91 -30 callsubr
          32 -161 15 -178 13 -166 rrcurveto
          hintmask 01111110
          29 callsubr
          -46 12 -7 62 hvcurveto
          -15 135 -4 160 -4 150 -55 callgsubr
          -48 -2 -77 -10 -128 rrcurveto
          -14 -170 -25 -89 -53 vvcurveto
          -26 21 -16 19 19 17 16 26 2 vhcurveto
          5 53 -2 89 15 170 rrcurveto
          332 -169 rmoveto
          hintmask 10111110
          -15 callsubr
        </CharString>
        <CharString name="M.swash">
          320 -265 -21 286 65 -50 -26 callgsubr
          hstemhm
          20 124 143 62 134 79 159 106 hintmask 11011111
          144 268 rmoveto
          15 189 16 78 7 53 77 -27 86 -78 60 -90 -30 callsubr
          31 -150 16 -178 13 -177 rrcurveto
          hintmask 10111111
          29 callsubr
          -47 12 -6 62 hvcurveto
          -15 168 -1 79 -7 198 -55 callgsubr
          -62 -2 -95 -17 -176 rrcurveto
          -25 -265 -42 -146 -91 vvcurveto
          -32 26 -20 24 24 21 20 32 3 vhcurveto
          8 91 -3 146 21 265 rrcurveto
          339 -89 rmoveto
          hintmask 11011111
          -15 callsubr
        </CharString>
        <CharString name="N">
          144 -16 callsubr
          -28 callsubr
          hintmask 11100100
          1 callgsubr
          hintmask 11001100
          -24 callsubr
          hintmask 11010100
          -7 callsubr
          hintmask 11001100
          -38 callsubr
          hvcurveto
          hintmask 11100100
          -79 callgsubr
          hintmask 11100001
          -60 callgsubr
          vhcurveto
          hintmask 11100100
          -28 -22 -24 -31 hvcurveto
          hintmask 11100010
          -67 callsubr
          endchar
        </CharString>
        <CharString name="N.swash">
          -6 callgsubr
          -8 callgsubr
          hintmask 11110100
          167 348 -89 callsubr
          hintmask 11110010
          -71 callsubr
          hintmask 11101100
          -24 callsubr
          hintmask 11110100
          -170 -19 -79 -53 vvcurveto
          -35 callsubr
          vhcurveto
          53 -19 -13 callgsubr
          endchar
        </CharString>
        <CharString name="Nacute">
          144 -16 callsubr
          98 -21 129 -20 -28 callsubr
          hintmask 1100100100000000
          1 callgsubr
          hintmask 1100001100000000
          -24 callsubr
          hintmask 1100010100000000
          -7 callsubr
          hintmask 1100001100000000
          -38 callsubr
          hvcurveto
          hintmask 1100100100000000
          -79 callgsubr
          hintmask 1100100001000000
          -60 callgsubr
          vhcurveto
          hintmask 1100100100000000
          -28 -22 -24 -31 hvcurveto
          hintmask 1100100010000000
          -67 callsubr
          212 116 -107 callsubr
          hintmask 0011000000000000
          -81 callsubr
        </CharString>
        <CharString name="Nacute.swash">
          -6 callgsubr
          98 -21 129 -20 -8 callgsubr
          hintmask 1110010100000000
          167 348 -89 callsubr
          hintmask 1110010010000000
          -71 callsubr
          hintmask 1110001100000000
          -24 callsubr
          hintmask 1110010100000000
          -170 -19 -79 -53 vvcurveto
          -35 callsubr
          vhcurveto
          53 -19 -13 callgsubr
          100 417 -107 callsubr
          hintmask 0001100000000000
          -81 callsubr
        </CharString>
        <CharString name="Ntilde">
          144 -16 callsubr
          74 63 -63 129 -84 49 -28 callsubr
          hintmask 1100010010000000
          1 callgsubr
          hintmask 1100000110000000
          -24 callsubr
          hintmask 1100001010000000
          -7 callsubr
          hintmask 1100000110000000
          -38 callsubr
          hvcurveto
          hintmask 1100010010000000
          -79 callgsubr
          hintmask 1100010000100000
          -60 callgsubr
          vhcurveto
          hintmask 1100010010000000
          -28 -22 -24 -31 hvcurveto
          hintmask 1100010001000000
          -67 callsubr
          hintmask 0001000000000000
          462 214 rmoveto
          11 -6 5 -9 vhcurveto
          hintmask 0010000000000000
          -19 5 -66 -48 hhcurveto
          hintmask 0000100000000000
          -81 callgsubr
          hintmask 0010000000000000
          -12 7 -5 10 vhcurveto
          hintmask 0000100000000000
          19 -13 45 57 hhcurveto
          hintmask 0010000000000000
          -82 callsubr
          endchar
        </CharString>
        <CharString name="Ntilde.swash">
          -6 callgsubr
          74 63 -63 129 -84 49 -8 callgsubr
          hintmask 0000100000000000
          524 863 rmoveto
          11 -6 5 -9 vhcurveto
          hintmask 0001000000000000
          -19 5 -66 -48 hhcurveto
          hintmask 0000010000000000
          -81 callgsubr
          hintmask 0001000000000000
          -12 7 -5 10 vhcurveto
          hintmask 0000010000000000
          19 -13 45 57 hhcurveto
          hintmask 0001000000000000
          -82 callsubr
          hintmask 1110001010000000
          -357 -515 -89 callsubr
          hintmask 1110001001000000
          -71 callsubr
          hintmask 1110000110000000
          -24 callsubr
          hintmask 1110001010000000
          -170 -19 -79 -53 vvcurveto
          -35 callsubr
          vhcurveto
          53 -19 -13 callgsubr
          endchar
        </CharString>
        <CharString name="O">
          -50 callgsubr
          hstem
          -34 callgsubr
          vstem
          365 62 -106 callgsubr
          endchar
        </CharString>
        <CharString name="O.swash">
          -50 callgsubr
          hstem
          -34 callgsubr
          vstem
          292 345 rmoveto
          38 29 31 35 -66 callsubr
          vhcurveto
          73 -283 -106 callgsubr
          endchar
        </CharString>
        <CharString name="OE">
          366 -6 72 -45 -21 339 62 223 72 -6 -20 hstemhm
          25 82 380 78 hintmask 10101110
          657 21 callgsubr
          hintmask 10110110
          -102 -89 6 -86 hhcurveto
          -28 callgsubr
          hintmask 01110110
          35 52 6 67 hhcurveto
          hintmask 10110110
          22 callgsubr
          -91 callgsubr
          2 26 36 2 42 -96 callsubr
          -66 hhcurveto
          -42 -36 2 2 -26 hvcurveto
          1 122 6 57 1 38 rrcurveto
          1 29 30 1 25 69 83 -98 callsubr
          hvcurveto
          hintmask 10101110
          -62 callgsubr
          -292 -628 -49 callgsubr
          endchar
        </CharString>
        <CharString name="OE.swash">
          391 -6 72 -45 -21 195 54 90 62 40 88 -64 64 95 72 -6 -20 hstemhm
          40 82 313 145 -78 78 47 232 hintmask 1011101011010000
          395 696 rmoveto
          -28 callgsubr
          hintmask 0111101011010000
          -57 callsubr
          hintmask 1011011011010000
          22 callgsubr
          -103 callgsubr
          hhcurveto
          hintmask 1011101010110000
          -98 callgsubr
          hintmask 1011100111010000
          -62 callgsubr
          hintmask 1011101010110000
          -102 -89 6 -86 hhcurveto
          -15 -634 -49 callgsubr
          -73 283 rmoveto
          38 29 31 35 vhcurveto
          hintmask 1011101011010000
          -66 callsubr
          hvcurveto
          endchar
        </CharString>
        <CharString name="Oacute">
          -78 callsubr
          365 62 -106 callgsubr
          -35 768 -107 callsubr
          hintmask 00110000
          -81 callsubr
        </CharString>
        <CharString name="Oacute.swash">
          -78 callsubr
          292 345 rmoveto
          -37 29 -32 35 36 28 32 37 38 -28 31 -36 -35 -29 -31 -38 vhcurveto
          73 -283 -106 callgsubr
          -28 768 -107 callsubr
          hintmask 00110000
          -81 callsubr
        </CharString>
        <CharString name="Ocircumflex">
          -78 callsubr
          365 62 -106 callgsubr
          hintmask 00110000
          167 768 -107 callgsubr
          endchar
        </CharString>
        <CharString name="Ocircumflex.swash">
          -78 callsubr
          292 345 rmoveto
          38 29 31 35 -66 callsubr
          vhcurveto
          73 -283 -106 callgsubr
          hintmask 00110000
          174 768 -107 callgsubr
          endchar
        </CharString>
        <CharString name="Odieresis">
          -50 callgsubr
          92 93 hstemhm
          25 82 120 20 callsubr
          95 82 hintmask 11010010
          365 62 -106 callgsubr
          hintmask 00101100
          85 834 -106 callsubr
          endchar
        </CharString>
        <CharString name="Odieresis.swash">
          -50 callgsubr
          92 93 hstemhm
          25 82 127 20 callsubr
          88 82 hintmask 11010010
          292 345 rmoveto
          38 29 31 35 -66 callsubr
          vhcurveto
          73 -283 -106 callgsubr
          hintmask 00101100
          92 834 -106 callsubr
          endchar
        </CharString>
        <CharString name="Ograve">
          -78 callsubr
          365 62 -106 callgsubr
          hintmask 00110000
          101 768 -105 callsubr
        </CharString>
        <CharString name="Ograve.swash">
          -78 callsubr
          292 345 rmoveto
          38 29 31 35 -66 callsubr
          vhcurveto
          73 -283 -106 callgsubr
          hintmask 00110000
          108 768 -105 callsubr
        </CharString>
        <CharString name="Oslash">
          -25 -21 40 68 566 68 40 -20 hstem
          -34 callgsubr
          vstem
          -77 callsubr
          18 371 rmoveto
          -57 -107 -49 -77 -38 -58 -3 callsubr
          -28 -65 -34 -82 -47 -88 rrcurveto
          15 -303 rmoveto
          -42 -37 10 17 -32 hvcurveto
          28 65 34 83 47 88 56 106 49 77 38 58 10 callgsubr
        </CharString>
        <CharString name="Oslash.swash">
          -25 -21 40 68 214 138 214 68 40 -20 hstem
          25 82 185 128 185 82 cntrmask 00000111
          -77 callsubr
          -40 351 rmoveto
          -19 7 -18 13 -13 vhcurveto
          -41 -72 -36 -56 -29 -44 -3 callsubr
          -23 -54 -27 -65 -35 -70 rrcurveto
          2 -6 -6 1 -6 hhcurveto
          -35 -29 -31 -38 hvcurveto
          73 -283 rmoveto
          -42 -37 10 17 -32 hvcurveto
          23 53 27 66 35 70 rrcurveto
          -1 5 6 -1 6 hhcurveto
          36 28 32 37 19 -7 18 -12 12 hvcurveto
          40 72 35 55 30 45 10 callgsubr
        </CharString>
        <CharString name="Otilde">
          -12 callsubr
          365 62 -106 callgsubr
          hintmask 00010000
          185 869 -99 callsubr
        </CharString>
        <CharString name="Otilde.swash">
          -12 callsubr
          292 345 rmoveto
          38 29 31 35 -66 callsubr
          vhcurveto
          73 -283 -106 callgsubr
          hintmask 00010000
          192 869 -99 callsubr
        </CharString>
        <CharString name="P">
          27 15 -21 238 78 -78 102 293 -4 callgsubr
          141 -109 109 -80 80 -66 66 307 66 hintmask 1101010001000000
          316 627 rmoveto
          105 87 -69 -105 -95 -64 -48 -65 hvcurveto
          hintmask 1011010001000000
          -44 callgsubr
          -31 29 -22 54 112 146 95 181 94 -98 94 -96 hvcurveto
          hintmask 1100110001000000
          -59 -49 -6 -68 hhcurveto
          hintmask 1101010001000000
          -38 -33 -29 callsubr
          hvcurveto
          hintmask 1101000101000000
          20 hlineto
          hintmask 1101000011000000
          12 -170 2 -148 -134 vvcurveto
          hintmask 1101001001000000
          -62 -43 -7 -43 vvcurveto
          15 callgsubr
          419 7 89 5 36 vhcurveto
          1 29 34 1 40 hhcurveto
          endchar
        </CharString>
        <CharString name="P.swash">
          43 -270 -21 525 67 -67 87 306 69 hstemhm
          33 195 -121 109 -70 70 304 70 hintmask 11011001
          398 696 rmoveto
          -190 -175 -188 -64 -18 8 -13 19 17 11 16 23 11 hvcurveto
          hintmask 11010011
          9 19 15 23 19 22 1 -36 0 -39 3 -87 rrcurveto
          2 -74 2 -323 -74 -62 -43 -7 -43 vvcurveto
          hintmask 11010101
          15 callgsubr
          428 8 263 4 102 vhcurveto
          hintmask 11011001
          23 37 43 15 46 hhcurveto
          108 58 -82 -88 hvcurveto
          hintmask 10111001
          -88 -65 -68 -74 vhcurveto
          -49 -11 20 -33 hhcurveto
          -22 -19 -14 -24 -23 5 -26 88 149 101 136 133 123 -73 70 -119 hvcurveto
          endchar
        </CharString>
        <CharString name="Q">
          -290 78 -78 133 172 -21 634 68 hstemhm
          25 82 266 21 -21 71 161 82 hintmask 01111011
          365 62 rmoveto
          -187 19 -71 136 144 vvcurveto
          169 99 98 136 171 92 -153 -146 vhcurveto
          -233 -232 -40 -192 vvcurveto
          -100 63 -54 79 99 65 83 31 11 -9 8 -9 vhcurveto
          hintmask 10111011
          -23 -31 -55 -69 hhcurveto
          -53 -41 33 65 hvcurveto
          158 243 42 275 vvcurveto
          202 -132 133 -180 -203 -147 -170 -203 -211 158 -118 138 vhcurveto
          hintmask 10111101
          54 19 18 24 22 -15 3 -14 1 hvcurveto
          endchar
        </CharString>
        <CharString name="Q.swash">
          -290 78 -78 92 192 69 -30 74 521 68 hstemhm
          25 82 464 116 -82 82 -66 66 hintmask 1010110100000000
          hintmask 1010111000000000
          343 63 rmoveto
          -115 -121 132 174 158 99 101 138 169 92 -152 -151 hvcurveto
          -91 -34 -41 -24 vvcurveto
          hintmask 1001110010000000
          -9 5 -16 19 53 39 133 99 181 -132 139 -182 vhcurveto
          hintmask 0101111000000000
          -201 -147 -170 -204 -205 149 -123 155 hvcurveto
          88 27 39 62 hhcurveto
          67 48 -45 -68 -78 -64 -54 -57 hvcurveto
          -29 -12 14 -18 hhcurveto
          hintmask 1010111000000000
          -23 -22 -23 -27 -22 14 -20 33 78 166 109 157 85 -49 46 -90 hvcurveto
          -89 -50 -44 -66 hhcurveto
          endchar
        </CharString>
        <CharString name="R">
          -7 15 -21 633 -4 callgsubr
          146 -78 78 234 71 hintmask 11010100
          -72 callgsubr
          48 -8 71 -1 141 vhcurveto
          33 -12 53 -27 60 -64 rrcurveto
          -113 105 -1 -96 52 hhcurveto
          25 17 16 33 48 -37 81 -110 92 hvcurveto
          -19 15 -18 12 -20 11 rrcurveto
          75 26 90 65 123 vvcurveto
          136 -119 44 -70 vhcurveto
          hintmask 10110100
          18 callsubr
          hintmask 11010100
          -69 callgsubr
          hintmask 11001100
          -87 callsubr
          endchar
        </CharString>
        <CharString name="R.swash">
          -7 -269 -21 305 -21 269 44 320 -4 callgsubr
          146 -78 78 234 71 hintmask 11110101
          -72 callgsubr
          42 -6 62 -3 113 vhcurveto
          249 140 -553 140 hhcurveto
          39 23 26 25 54 -58 0 -87 104 hvcurveto
          -87 103 -95 189 -114 56 rrcurveto
          73 31 82 71 127 vvcurveto
          152 -119 48 -70 vhcurveto
          hintmask 11101101
          18 callsubr
          hintmask 11110101
          -69 callgsubr
          hintmask 11110011
          1 -41 8 -56 -176 vvcurveto
          145 279 rmoveto
          83 84 -44 -124 -126 -116 -26 -41 -23 -29 7 7 -25 hvcurveto
          27 vlineto
          182 8 54 1 42 vhcurveto
          18 19 1 21 hhcurveto
          endchar
        </CharString>
        <CharString name="Racute">
          -7 15 -21 633 69 -6 -20 104 -94 callsubr
          60 146 -78 78 234 71 hintmask 11000101
          -72 callgsubr
          48 -8 71 -1 141 vhcurveto
          33 -12 53 -27 60 -64 rrcurveto
          -113 105 -1 -96 52 hhcurveto
          25 17 16 33 48 -37 81 -110 92 hvcurveto
          -19 15 -18 12 -20 11 rrcurveto
          75 26 90 65 123 vvcurveto
          136 -119 44 -70 vhcurveto
          hintmask 10100101
          18 callsubr
          hintmask 11000101
          -69 callgsubr
          hintmask 11000011
          -87 callsubr
          -81 138 -107 callsubr
          hintmask 00011000
          -81 callsubr
        </CharString>
        <CharString name="Rcaron">
          -7 15 -21 633 69 -6 -20 104 -94 callsubr
          60 146 -78 78 234 71 hintmask 11000101
          -72 callgsubr
          48 -8 71 -1 141 vhcurveto
          33 -12 53 -27 60 -64 rrcurveto
          -113 105 -1 -96 52 hhcurveto
          25 17 16 33 48 -37 81 -110 92 hvcurveto
          -19 15 -18 12 -20 11 rrcurveto
          75 26 90 65 123 vvcurveto
          136 -119 44 -70 vhcurveto
          hintmask 10100101
          18 callsubr
          hintmask 11000101
          -69 callgsubr
          hintmask 11000011
          -87 callsubr
          141 243 -104 callsubr
          hintmask 00011000
          -27 callsubr
        </CharString>
        <CharString name="Rcommaaccent">
          -7 -290 214 91 -21 633 -4 callgsubr
          146 -78 78 57 114 -83 83 63 71 hintmask 0110100010000000
          -72 callgsubr
          48 -8 71 -1 141 vhcurveto
          33 -12 53 -27 60 -64 rrcurveto
          -113 105 -1 -96 52 hhcurveto
          25 17 16 33 48 -37 81 -110 92 hvcurveto
          -19 15 -18 12 -20 11 rrcurveto
          75 26 90 65 123 vvcurveto
          136 -119 44 -70 vhcurveto
          hintmask 0101100010000000
          18 callsubr
          hintmask 0110100010000000
          -69 callgsubr
          hintmask 0110010010000000
          -87 callsubr
          hintmask 1000001000000000
          5 -917 rmoveto
          32 67 89 63 -69 callsubr
          hintmask 1000000100000000
          -53 callgsubr
        </CharString>
        <CharString name="S">
          -65 32 callgsubr
          hstemhm
          40 100 -77 77 281 44 -44 71 hintmask 10011010
          244 636 rmoveto
          hintmask 10100110
          -42 callgsubr
          hvcurveto
          -205 358 11 callgsubr
          hintmask 01011001
          -58 callsubr
          hvcurveto
          235 -352 12 callgsubr
          endchar
        </CharString>
        <CharString name="S.swash">
          -48 27 callsubr
          hstemhm
          90 77 271 54 -54 71 hintmask 10011100
          271 636 rmoveto
          50 27 -22 -22 24 hvcurveto
          hintmask 10101100
          -45 callsubr
          hintmask 01011010
          -47 callgsubr
        </CharString>
        <CharString name="Scaron">
          -19 32 callgsubr
          75 -94 callsubr
          58 100 -77 77 281 44 -44 71 hintmask 1001001010000000
          262 636 rmoveto
          hintmask 1010000110000000
          -42 callgsubr
          hvcurveto
          -205 358 11 callgsubr
          hintmask 0101001001000000
          -58 callsubr
          hvcurveto
          235 -352 12 callgsubr
          176 231 -104 callsubr
          hintmask 0000110000000000
          -27 callsubr
        </CharString>
        <CharString name="Scaron.swash">
          -19 27 callsubr
          75 -94 callsubr
          90 77 271 54 -54 71 hintmask 0000110000000000
          438 867 -104 callsubr
          -38 callgsubr
          hintmask 1001001100000000
          -167 -231 rmoveto
          50 27 -22 -22 24 hvcurveto
          hintmask 1010001100000000
          -45 callsubr
          hintmask 0101001010000000
          -47 callgsubr
        </CharString>
        <CharString name="T">
          -71 15 -21 629 73 -6 -20 hstemhm
          219 78 hintmask 10110000
          hintmask 11010000
          258 21 callgsubr
          -69 -83 6 -50 20 callgsubr
          -13 -26 -26 -15 callgsubr
          23 69 4 1 62 hvcurveto
          2 -43 7 -67 -165 -170 -9 -79 -53 vvcurveto
          -89 callgsubr
          vvcurveto
          165 6 67 2 43 vhcurveto
          -1 57 59 -4 39 hhcurveto
          20 21 13 26 hvcurveto
          hintmask 10110000
          26 -21 13 -20 vhcurveto
          40 callgsubr
        </CharString>
        <CharString name="T.swash">
          -18 15 -21 624 78 hstemhm
          15 55 -55 150 107 78 hintmask 11011000
          263 627 rmoveto
          2 -43 7 -71 -165 vvcurveto
          hintmask 11101000
          -170 -9 -79 -53 vvcurveto
          -89 callgsubr
          vvcurveto
          165 6 67 2 43 vhcurveto
          -1 57 59 -4 39 hhcurveto
          -94 callgsubr
          hvcurveto
          -202 hlineto
          -127 -169 -21 -152 -62 44 -61 60 29 17 16 23 21 -16 15 -22 4 hvcurveto
          -36 7 -21 19 41 vvcurveto
          72 76 10 64 vhcurveto
          20 18 -1 15 hhcurveto
          endchar
        </CharString>
        <CharString name="Thorn">
          -25 -6 240 -102 78 -78 102 253 69 -69 210 hstemhm
          60 109 -70 70 -70 74 283 66 hintmask 1000101010000000
          184 646 rmoveto
          15 callsubr
          -62 7 -103 4 -127 vhcurveto
          2 -74 2 -38 -74 vvcurveto
          hintmask 1001010010000000
          -62 -43 -7 -43 vvcurveto
          15 callgsubr
          vhcurveto
          hintmask 0101000110000000
          200 2 124 2 80 vhcurveto
          1 31 37 1 43 hhcurveto
          85 87 -55 -99 -95 -64 -28 -45 hvcurveto
          hintmask 0011010010000000
          -44 callgsubr
          -31 29 -22 54 102 136 105 131 114 -98 74 -96 hvcurveto
          -68 1 -7 -85 hhcurveto
          4 70 4 9 18 vvcurveto
          endchar
        </CharString>
        <CharString name="U">
          89 -9 69 -45 -26 callgsubr
          hstemhm
          64 83 367 78 hintmask 10111000
          -18 callgsubr
          hintmask 01111000
          -101 callsubr
          -104 -4 -70 -2 -50 vhcurveto
          hintmask 10111000
          -27 -33 -53 -34 -62 hhcurveto
          -102 -111 34 251 hvcurveto
          -99 callgsubr
          -27 -114 vvcurveto
          endchar
        </CharString>
        <CharString name="U.swash">
          -31 callsubr
          hstemhm
          30 56 -22 83 73 76 218 78 hintmask 11010110
          -78 callgsubr
          hintmask 10101110
          -102 callsubr
          endchar
        </CharString>
        <CharString name="Uacute">
          -87 callgsubr
          203 304 -107 callsubr
          hintmask 00011000
          -81 callsubr
        </CharString>
        <CharString name="Uacute.swash">
          -31 callsubr
          75 -94 callsubr
          30 56 -22 83 73 76 218 78 hintmask 1100010110000000
          -78 callgsubr
          hintmask 1010001110000000
          -102 callsubr
          -24 190 -107 callsubr
          hintmask 0001100000000000
          -81 callsubr
        </CharString>
        <CharString name="Ucircumflex">
          -87 callgsubr
          hintmask 00011000
          392 304 -107 callgsubr
          endchar
        </CharString>
        <CharString name="Ucircumflex.swash">
          -31 callsubr
          75 -94 callsubr
          30 56 -22 83 73 76 218 78 hintmask 1100010110000000
          -78 callgsubr
          hintmask 1010001110000000
          -102 callsubr
          hintmask 0001100000000000
          165 190 -107 callgsubr
          endchar
        </CharString>
        <CharString name="Udieresis">
          89 -9 69 -45 -26 callgsubr
          112 93 hstemhm
          64 83 49 20 callsubr
          35 78 hintmask 10101001
          -18 callgsubr
          hintmask 01101001
          -101 callsubr
          -104 -4 -70 -2 -50 vhcurveto
          hintmask 10101001
          -27 -33 -53 -34 -62 hhcurveto
          -102 -111 34 251 hvcurveto
          -99 callgsubr
          -27 -114 vvcurveto
          hintmask 00010110
          317 370 -106 callsubr
          endchar
        </CharString>
        <CharString name="Udieresis.swash">
          -31 callsubr
          92 93 hstemhm
          30 56 -22 83 49 93 -69 76 90 93 35 78 hintmask 1100100101000000
          -78 callgsubr
          hintmask 1010010101000000
          -102 callsubr
          hintmask 0001001010000000
          90 256 -106 callsubr
          endchar
        </CharString>
        <CharString name="Ugrave">
          89 -9 69 -45 -52 callgsubr
          64 83 367 78 hintmask 10100110
          -31 callgsubr
          -163 111 -97 123 86 76 46 35 45 vhcurveto
          -29 vlineto
          hintmask 01100110
          -101 callsubr
          -104 -4 -70 -2 -50 vhcurveto
          hintmask 10100110
          -26 -33 -53 -35 -62 hhcurveto
          -102 -111 34 251 hvcurveto
          -99 callgsubr
          -27 -114 vvcurveto
          hintmask 00011000
          329 304 -105 callsubr
        </CharString>
        <CharString name="Ugrave.swash">
          -31 callsubr
          75 -94 callsubr
          30 56 -22 83 73 76 218 78 hintmask 1100010110000000
          -78 callgsubr
          hintmask 1010001110000000
          -102 callsubr
          hintmask 0001100000000000
          102 190 -105 callsubr
        </CharString>
        <CharString name="V">
          68 16 -21 701 -20 hstemhm
          520 105 -83 83 hintmask 11100000
          225 365 rmoveto
          -70 190 -15 59 -16 41 rrcurveto
          24 -10 -18 17 -24 hhcurveto
          -28 -14 -26 -25 -48 42 -80 75 -190 hvcurveto
          66 -168 26 -75 20 -52 rrcurveto
          -21 8 18 -17 23 hhcurveto
          15 13 7 10 10 hvcurveto
          42 39 237 217 345 vvcurveto
          61 -23 23 -32 -32 -18 -26 -34 vhcurveto
          hintmask 11010000
          -51 22 -26 -68 vvcurveto
          -167 -125 -171 -79 -69 vhcurveto
          -20 56 -44 95 -49 130 rrcurveto
          endchar
        </CharString>
        <CharString name="V.swash">
          63 15 -21 618 84 hstemhm
          274 55 -55 159 104 83 hintmask 11011000
          338 84 rmoveto
          -29 62 -55 141 -29 78 -57 152 -34 113 -10 25 rrcurveto
          24 -10 -18 17 -24 hhcurveto
          -28 -14 -25 -28 -43 35 -67 82 -206 hvcurveto
          55 -139 41 -113 16 -42 rrcurveto
          -21 8 18 -18 22 hhcurveto
          15 12 9 7 9 hvcurveto
          116 90 161 256 169 vvcurveto
          101 -56 70 -95 -122 -73 -115 -74 -66 58 -49 49 27 25 15 33 32 -23 8 -26 6 vhcurveto
          hintmask 11101000
          -34 8 -21 7 34 vvcurveto
          52 49 25 54 66 39 -37 -91 -153 -110 -168 -89 -79 vhcurveto
          endchar
        </CharString>
        <CharString name="W">
          278 15 -21 546 58 98 -20 hstemhm
          382 70 88 57 125 113 -74 74 hintmask 11111100
          209 382 rmoveto
          -63 192 0 23 -16 52 rrcurveto
          32 -10 -19 15 -26 hhcurveto
          hintmask 11111010
          -24 -21 -20 -32 -55 33 -49 71 -200 hvcurveto
          59 -168 33 -87 19 -52 rrcurveto
          -21 7 17 -18 22 hhcurveto
          11 9 5 7 7 hvcurveto
          16 17 58 51 70 110 22 -62 19 -56 15 -33 rrcurveto
          -20 9 15 -19 22 hhcurveto
          12 10 6 8 7 hvcurveto
          29 30 213 213 311 vvcurveto
          71 -20 63 -47 -26 -20 -21 -32 vhcurveto
          -51 39 -13 -88 vvcurveto
          -169 -108 -170 -68 -66 vhcurveto
          -13 48 -25 62 -30 83 rrcurveto
          34 56 46 81 69 vvcurveto
          66 -41 47 -61 -65 -48 -56 -74 -74 32 -81 25 -61 vhcurveto
          -37 -58 -52 -71 -38 -39 -22 67 -35 97 -46 134 rrcurveto
          283 -31 rmoveto
          -13 24 -27 79 35 vvcurveto
          30 20 21 28 21 19 -28 -30 -45 -26 -59 -22 -27 vhcurveto
          endchar
        </CharString>
        <CharString name="W.swash">
          287 15 -21 618 84 hstemhm
          518 55 -55 159 84 83 hintmask 11011000
          577 84 rmoveto
          -18 callsubr
          -24 -28 -40 27 -50 80 -227 hvcurveto
          9 -27 10 -26 9 -26 -36 -68 -44 -58 -36 -38 -18 callsubr
          -25 -28 -45 36 -75 71 -196 hvcurveto
          42 -117 53 -158 7 -19 rrcurveto
          -21 8 18 -18 22 hhcurveto
          15 12 8 8 9 hvcurveto
          39 33 53 68 39 63 27 -76 16 -51 6 -14 rrcurveto
          -24 10 17 -15 21 hhcurveto
          15 12 8 8 9 hvcurveto
          103 87 154 260 171 vvcurveto
          98 -50 70 -97 -116 -63 -99 -78 -75 58 -52 49 27 25 15 34 31 -21 7 -28 7 vhcurveto
          hintmask 11101000
          -35 9 -20 6 33 vvcurveto
          53 51 25 48 58 31 -37 -87 -161 -108 -163 -76 -80 vhcurveto
          endchar
        </CharString>
        <CharString name="X">
          -8 -16 callsubr
          hstem
          130 34 rmoveto
          15 38 52 115 82 114 91 -118 70 -120 19 -30 rrcurveto
          -19 12 15 -20 23 hhcurveto
          23 17 15 27 63 -124 140 -97 127 hvcurveto
          95 118 115 119 50 28 callsubr
          -58 -44 -75 -77 -108 -81 111 -65 108 -14 23 callgsubr
          94 -106 117 -147 hvcurveto
          -106 -141 -105 -112 -50 vvcurveto
          -25 18 -27 31 24 19 19 21 8 vhcurveto
          endchar
        </CharString>
        <CharString name="X.swash">
          -8 -269 -21 306 -21 701 -20 hstem
          130 34 rmoveto
          15 38 52 114 81 114 rrcurveto
          -288 206 185 -302 192 hhcurveto
          39 24 26 25 41 -68 1 -85 47 hvcurveto
          -97 53 -172 234 -176 227 rrcurveto
          95 119 117 119 51 28 callsubr
          -59 -44 -75 -79 -110 -82 113 -63 109 -13 23 callgsubr
          100 -102 112 -150 hvcurveto
          -107 -141 -105 -113 -50 vvcurveto
          -25 18 -26 31 24 19 18 21 8 vhcurveto
          endchar
        </CharString>
        <CharString name="Y">
          42 -16 callsubr
          hstem
          276 78 vstem
          -80 callsubr
          endchar
        </CharString>
        <CharString name="Y.swash">
          35 callgsubr
          hstem
          -95 callsubr
          endchar
        </CharString>
        <CharString name="Yacute">
          42 -16 callsubr
          96 -94 callsubr
          276 78 hintmask 11001000
          -80 callsubr
          -112 717 -107 callsubr
          hintmask 00110000
          -81 callsubr
        </CharString>
        <CharString name="Yacute.swash">
          35 callgsubr
          96 -94 callsubr
          hintmask 11000000
          -95 callsubr
          -134 511 -107 callsubr
          hintmask 00110000
          -81 callsubr
        </CharString>
        <CharString name="Ydieresis">
          42 -16 callsubr
          112 93 hstemhm
          178 93 5 78 14 93 hintmask 11001000
          363 46 rmoveto
          -26 -19 -26 27 callgsubr
          26 26 21 8 31 1 193 vhcurveto
          -17 26 -33 48 -52 71 rrcurveto
          -82 112 -62 56 48 vvcurveto
          28 16 16 28 53 32 -98 -111 73 vhcurveto
          45 -70 32 -40 18 -22 13 13 29 33 48 76 rrcurveto
          103 65 38 116 44 hhcurveto
          23 12 -16 -23 -48 -58 -74 -86 -109 hvcurveto
          -56 -71 -30 -34 -15 -16 rrcurveto
          1 -206 8 -32 -21 vvcurveto
          hintmask 00110100
          5 782 -106 callsubr
          endchar
        </CharString>
        <CharString name="Ydieresis.swash">
          35 callgsubr
          112 93 hstemhm
          178 20 callsubr
          hintmask 11000000
          -95 callsubr
          hintmask 00111000
          -17 576 -106 callsubr
          endchar
        </CharString>
        <CharString name="Z">
          25 0 72 -57 -21 630 72 -6 -20 hstemhm
          hintmask 10100000
          336 315 rmoveto
          109 135 114 130 77 vvcurveto
          26 -21 13 -20 vhcurveto
          hintmask 10010000
          -50 -83 -6 -69 -69 -83 6 -50 hhcurveto
          hintmask 01100000
          -20 -21 -13 -26 hvcurveto
          hintmask 10100000
          -26 -15 callgsubr
          vhcurveto
          -76 callgsubr
          -26 20 -26 29 vhcurveto
          30 131 6 69 69 83 -6 50 hhcurveto
          hintmask 01100000
          20 21 13 26 hvcurveto
          hintmask 10100000
          26 -21 13 -20 vhcurveto
          -62 callgsubr
          -47 -66 2 2 -53 hvcurveto
          31 56 63 91 79 98 rrcurveto
          endchar
        </CharString>
        <CharString name="Z.swash">
          25 -140 74 690 72 -6 -20 hstemhm
          473 159 -55 55 hintmask 11010000
          336 315 9 callsubr
          hintmask 10110000
          -50 -83 -6 -69 -69 -83 6 -50 20 callgsubr
          -13 -26 -26 -15 callgsubr
          hvcurveto
          -76 callgsubr
          -17 10 -19 19 -15 vhcurveto
          -57 71 174 -78 109 hhcurveto
          118 81 77 91 76 -58 45 -50 -26 -25 -17 -29 hvcurveto
          hintmask 11010000
          -29 26 -15 23 -4 vhcurveto
          hintmask 11001000
          5 callgsubr
          39 callsubr
        </CharString>
        <CharString name="Zcaron">
          25 0 72 -57 -21 630 72 -6 -20 101 -94 callsubr
          hintmask 10100000
          336 315 rmoveto
          109 135 114 130 77 vvcurveto
          26 -21 13 -20 vhcurveto
          hintmask 10010000
          -50 -83 -6 -69 -69 -83 6 -50 hhcurveto
          hintmask 01100000
          -20 -21 -13 -26 hvcurveto
          hintmask 10100000
          -26 -15 callgsubr
          vhcurveto
          -76 callgsubr
          -26 20 -26 29 vhcurveto
          30 131 6 69 69 83 -6 50 hhcurveto
          hintmask 01100000
          20 21 13 26 hvcurveto
          hintmask 10100000
          26 -21 13 -20 vhcurveto
          -62 callgsubr
          -47 -66 2 2 -53 hvcurveto
          31 56 63 91 79 98 rrcurveto
          99 552 -104 callsubr
          hintmask 00001100
          -27 callsubr
        </CharString>
        <CharString name="Zcaron.swash">
          25 -140 74 690 72 -6 -20 101 -94 callsubr
          473 159 -55 55 hintmask 00011000
          435 867 -104 callsubr
          -38 callgsubr
          -99 -552 9 callsubr
          hintmask 11000100
          -50 -83 -6 -69 -69 -83 6 -50 20 callgsubr
          -13 -26 -26 -15 callgsubr
          hvcurveto
          -76 callgsubr
          -17 10 -19 19 -15 vhcurveto
          -57 71 174 -78 109 hhcurveto
          118 81 77 91 76 -58 45 -50 -26 -25 -17 -29 hvcurveto
          hintmask 10100100
          -29 26 -15 23 -4 vhcurveto
          hintmask 11000100
          5 callgsubr
          hintmask 11000010
          39 callsubr
        </CharString>
        <CharString name="a">
          -64 callsubr
          hstemhm
          45 70 175 144 hintmask 10111000
          -80 callgsubr
          hintmask 11011000
          -103 callsubr
          endchar
        </CharString>
        <CharString name="aacute">
          -64 callsubr
          78 -94 callsubr
          45 70 175 144 hintmask 10100110
          -80 callgsubr
          hintmask 11000110
          -103 callsubr
          55 369 -107 callsubr
          hintmask 00011000
          -81 callsubr
        </CharString>
        <CharString name="acircumflex">
          -64 callsubr
          78 -94 callsubr
          45 70 175 144 hintmask 10100110
          -80 callgsubr
          hintmask 11000110
          -103 callsubr
          hintmask 00011000
          213 369 -107 callgsubr
          endchar
        </CharString>
        <CharString name="acute">
          -291 534 -88 callgsubr
          hstem
          50 -55 callsubr
          endchar
        </CharString>
        <CharString name="adieresis">
          -64 callsubr
          92 93 hstemhm
          45 70 -30 20 callsubr
          -78 144 hintmask 10101001
          -80 callgsubr
          hintmask 11001001
          -103 callsubr
          hintmask 00010110
          160 432 -106 callsubr
          endchar
        </CharString>
        <CharString name="ae">
          80 -6 79 -79 134 71 74 -28 53 56 -1 callgsubr
          hstemhm
          30 70 hintmask 01101010
          637 109 rmoveto
          10 -9 9 -10 vhcurveto
          hintmask 10100110
          -23 -27 -55 -75 hhcurveto
          -79 -63 57 76 -8 hvcurveto
          1 3 3 0 4 45 51 -8 42 hhcurveto
          -68 callsubr
          hvcurveto
          -42 -51 -8 -45 hhcurveto
          -7 hlineto
          65 17 57 48 71 hhcurveto
          hintmask 10011010
          -25 callsubr
          18 31 31 -29 22 -54 -83 -112 -63 -106 -53 hvcurveto
          122 -61 -72 47 -63 hhcurveto
          -35 -21 -22 -26 -71 93 57 71 -96 hvcurveto
          -114 -7 -74 -94 -99 vvcurveto
          -65 40 -39 68 66 49 42 59 35 vhcurveto
          -57 22 50 -44 72 hhcurveto
          106 99 84 31 hvcurveto
          -537 47 rmoveto
          49 39 40 47 49 40 -40 -49 -47 -40 -39 -49 -47 -39 39 47 vhcurveto
          endchar
        </CharString>
        <CharString name="agrave">
          -64 callsubr
          78 -94 callsubr
          45 70 175 144 hintmask 10100110
          -80 callgsubr
          hintmask 11000110
          -103 callsubr
          hintmask 00011000
          160 369 -105 callsubr
        </CharString>
        <CharString name="ampersand">
          185 -6 62 -62 108 85 78 -78 92 82 68 207 60 hstemhm
          20 82 -42 81 191 75 151 163 -45 45 hintmask 1010111011000000
          199 -6 rmoveto
          70 57 33 47 49 hvcurveto
          hintmask 1010110111000000
          -49 69 69 -31 55 hhcurveto
          102 57 68 21 8 -7 11 -11 hvcurveto
          -31 -1 -45 -60 hhcurveto
          -44 -70 31 50 -73 hvcurveto
          103 79 53 120 55 hhcurveto
          hintmask 0110111010100000
          44 15 -31 -22 -22 -19 -21 -13 hvcurveto
          18 callgsubr
          -53 callsubr
          50 -36 48 -48 hvcurveto
          hintmask 1001110111000000
          -99 -76 -147 -108 -81 hvcurveto
          -58 48 -57 57 -44 61 rrcurveto
          84 54 101 63 113 vvcurveto
          90 -77 36 -62 -98 -110 -78 -122 -43 23 -58 38 -60 vhcurveto
          -56 -47 -45 -52 -69 vvcurveto
          -111 84 -62 95 vhcurveto
          133 538 rmoveto
          -55 -70 -45 -73 -47 vhcurveto
          -29 51 -19 49 49 vvcurveto
          56 45 46 50 48 48 -29 -75 vhcurveto
          -177 -243 rmoveto
          hintmask 1010111011000000
          49 -63 61 -64 64 -52 rrcurveto
          -33 -31 -33 -21 -33 hhcurveto
          -68 -62 54 87 36 22 29 31 27 hvcurveto
          endchar
        </CharString>
        <CharString name="aring">
          -64 callsubr
          48 34 69 35 hstemhm
          45 70 0 34 69 35 37 144 hintmask 1010010010000000
          -80 callgsubr
          hintmask 1100010010000000
          -103 callsubr
          hintmask 0001101100000000
          409 vmoveto
          -85 callsubr
        </CharString>
        <CharString name="asciicircum">
          15 139 -21 419 -20 hstem
          301 537 rmoveto
          -55 -7 -201 -280 -78 vvcurveto
          -32 18 -22 26 26 14 20 32 9 vhcurveto
          23 82 57 112 83 89 83 -89 57 -111 23 -83 rrcurveto
          -32 9 13 -20 27 hhcurveto
          26 18 22 32 78 -201 280 -55 7 hvcurveto
          endchar
        </CharString>
        <CharString name="asciitilde">
          -134 184 82 -82 167 -109 24 -24 64 hstemhm
          hintmask 01000000
          418 331 rmoveto
          14 -8 6 -11 vhcurveto
          hintmask 10000000
          -25 7 -85 -63 hhcurveto
          hintmask 00010000
          -44 -44 40 -77 hhcurveto
          -81 -37 -64 -36 hvcurveto
          hintmask 10000000
          -16 9 -6 13 vhcurveto
          hintmask 00100000
          25 -17 58 74 hhcurveto
          hintmask 10000000
          57 25 -58 62 hhcurveto
          70 65 97 50 hvcurveto
          endchar
        </CharString>
        <CharString name="asterisk">
          -238 430 190 76 -20 hstemhm
          36 172 -132 198 -132 66 -66 172 hintmask 11010000
          175 517 rmoveto
          -41 16 23 -46 25 hhcurveto
          hintmask 11000100
          19 16 16 18 19 -27 24 -35 35 hvcurveto
          hintmask 11001000
          39 8 63 1 36 vvcurveto
          15 -11 18 -17 -25 -28 -27 -11 -34 vhcurveto
          3 23 6 30 22 vvcurveto
          32 -14 7 -19 vhcurveto
          hintmask 11100000
          -19 -14 -7 -32 -22 6 -30 3 -23 hvcurveto
          11 -34 -28 27 -25 hhcurveto
          hintmask 11010000
          -17 -11 -18 -15 -36 63 -1 39 -8 hvcurveto
          -35 -35 -27 -24 -19 vvcurveto
          -18 16 -16 19 25 23 46 41 16 vhcurveto
          endchar
        </CharString>
        <CharString name="at">
          195 -5 54 80 72 281 73 88 54 hstem
          50 54 79 61 278 56 100 54 vstem
          183 282 rmoveto
          -77 55 -76 89 63 83 40 70 54 vhcurveto
          -10 vlineto
          -55 42 -45 37 99 27 144 83 181 -147 159 -194 -194 -147 -165 -205 -182 147 -150 194 9 10 0 1 9 vhcurveto
          16 3 12 8 17 vvcurveto
          16 -12 10 -16 vhcurveto
          -18 hlineto
          -163 -134 138 159 168 115 129 162 163 134 -138 -169 -36 -8 -99 -53 -25 -14 37 44 hvcurveto
          37 5 57 26 vvcurveto
          77 -55 76 -88 -104 -153 -107 -166 vhcurveto
          61 60 rmoveto
          79 62 61 79 79 58 -61 -79 -79 -58 -62 -79 -79 -62 62 79 vhcurveto
          endchar
        </CharString>
        <CharString name="atilde">
          -64 callsubr
          57 -52 callsubr
          45 70 175 144 hintmask 10100011
          -80 callgsubr
          hintmask 11000011
          -103 callsubr
          hintmask 00001000
          255 470 rmoveto
          11 -6 5 -9 vhcurveto
          hintmask 00010000
          -19 5 -66 -48 hhcurveto
          hintmask 00000100
          -81 callgsubr
          hintmask 00010000
          -12 7 -5 10 vhcurveto
          hintmask 00000100
          19 -13 45 57 hhcurveto
          hintmask 00010000
          -82 callsubr
          endchar
        </CharString>
        <CharString name="b">
          -65 -20 callsubr
          294 -20 hstemhm
          71 57 -57 81 278 67 hintmask 11110100
          63 160 rmoveto
          -90 66 -76 90 146 132 150 146 90 -66 76 -90 -67 -86 -41 -71 -58 vhcurveto
          2 87 20 145 29 callgsubr
          -59 16 -19 -272 -75 -8 -28 -80 vvcurveto
          65 65 rmoveto
          85 68 67 85 85 64 -67 -85 -85 -64 -68 -85 vhcurveto
          hintmask 11101100
          -17 callgsubr
          hvcurveto
          endchar
        </CharString>
        <CharString name="backslash">
          -91 -16 callsubr
          hstem
          440 -6 rmoveto
          24 14 13 26 45 -81 83 -127 214 hvcurveto
          179 -106 -40 142 -57 hhcurveto
          -24 -14 -13 -26 -45 81 -83 127 -214 hvcurveto
          -179 106 40 -142 57 hhcurveto
          endchar
        </CharString>
        <CharString name="bar">
          21 callsubr
          3 callgsubr
          137 7 192 30 vvcurveto
          20 -14 19 -21 -21 -14 -19 -20 vhcurveto
          -30 7 -192 -137 -124 -7 -205 -38 vvcurveto
          -19 14 -18 21 21 14 18 19 vhcurveto
          38 -7 205 124 vvcurveto
          endchar
        </CharString>
        <CharString name="braceleft">
          -229 -291 79 424 36 401 19 callgsubr
          90 71 -71 215 -189 45 -45 71 hintmask 11100010
          26 212 rmoveto
          42 48 -33 -82 hvcurveto
          hintmask 11100100
          -45 -26 -78 -41 vvcurveto
          -154 85 -70 71 32 27 12 31 19 -21 17 -33 vhcurveto
          hintmask 11101000
          -43 -47 30 75 hvcurveto
          hintmask 11100001
          57 26 59 48 vvcurveto
          79 -32 59 -53 38 vhcurveto
          51 38 34 56 76 vvcurveto
          hintmask 11011000
          57 -26 69 68 vvcurveto
          54 27 21 23 vhcurveto
          hintmask 11100100
          31 1 -23 18 hhcurveto
          19 callsubr
          38 -27 15 -32 -71 -85 -61 -133 hvcurveto
          hintmask 11100010
          -49 26 -91 -54 vvcurveto
          -82 -48 -33 -42 -10 -7 -6 -11 -14 7 -5 10 vhcurveto
          endchar
        </CharString>
        <CharString name="braceright">
          -229 -291 79 -79 102 401 36 424 79 hstemhm
          9 215 -97 71 -45 45 -45 71 hintmask 01110010
          288 248 rmoveto
          -42 -48 33 82 hvcurveto
          hintmask 01111000
          45 26 78 41 vvcurveto
          154 -85 70 -71 -32 -27 -12 -31 -19 21 -17 33 vhcurveto
          hintmask 01110001
          43 47 -30 -75 hvcurveto
          hintmask 01110100
          -57 -26 -59 -48 vvcurveto
          -79 32 -59 53 -38 vhcurveto
          -51 -38 -34 -56 -76 vvcurveto
          hintmask 10110001
          -57 26 -69 -68 vvcurveto
          -54 -27 -21 -23 vhcurveto
          hintmask 01111000
          -31 -1 23 -18 hhcurveto
          -21 -23 -18 -31 -38 27 -15 32 71 85 61 133 hvcurveto
          hintmask 01110010
          49 -26 91 54 vvcurveto
          82 48 33 42 10 7 6 11 14 -7 5 -10 vhcurveto
          endchar
        </CharString>
        <CharString name="bracketleft">
          -261 -290 66 913 61 -45 -21 82 -21 hstemhm
          66 72 -72 205 hintmask 11001000
          hintmask 10110100
          138 233 rmoveto
          174 -1 226 54 vvcurveto
          1 10 11 1 10 24 27 -5 17 hhcurveto
          12 23 11 22 22 -23 11 -12 hvcurveto
          -17 -27 -5 -24 -22 -24 5 -21 hhcurveto
          -26 -20 -24 -27 hvcurveto
          -41 11 -174 -251 -232 -11 -192 -50 vvcurveto
          hintmask 11001000
          -24 16 -25 26 vhcurveto
          hintmask 10111000
          21 29 5 21 hhcurveto
          hintmask 11000100
          24 27 -5 17 hhcurveto
          12 23 11 22 hvcurveto
          hintmask 11001000
          22 -23 11 -12 vhcurveto
          -17 -27 -5 -24 hhcurveto
          -10 -11 1 1 -10 hvcurveto
          65 1 240 155 vvcurveto
          endchar
        </CharString>
        <CharString name="bracketright">
          -261 -306 21 -5 61 -16 21 908 66 hstemhm
          55 205 -72 72 hintmask 01010100
          hintmask 10111000
          188 227 rmoveto
          -174 1 -226 -54 vvcurveto
          -1 -10 -11 -1 -10 -24 -27 5 -17 hhcurveto
          -12 -23 -11 -22 -22 23 -11 12 hvcurveto
          17 27 5 24 22 24 -5 21 hhcurveto
          26 20 24 27 hvcurveto
          41 -11 174 251 232 11 192 50 vvcurveto
          hintmask 01010100
          24 -16 25 -26 vhcurveto
          hintmask 10110100
          -21 -29 -5 -21 hhcurveto
          hintmask 01011000
          -24 -27 5 -17 hhcurveto
          -12 -23 -11 -22 hvcurveto
          hintmask 01010100
          -22 23 -11 12 vhcurveto
          17 27 5 24 hhcurveto
          10 11 -1 -1 10 hvcurveto
          -65 -1 -240 -155 vvcurveto
          endchar
        </CharString>
        <CharString name="brokenbar">
          21 callsubr
          100 rmoveto
          -46 callsubr
          490 vmoveto
          -46 callsubr
          endchar
        </CharString>
        <CharString name="bullet">
          -325 145 162 hstem
          50 162 vstem
          50 214 rmoveto
          -45 33 -24 36 55 38 36 56 43 -34 27 -36 -56 -36 -38 -55 vhcurveto
          endchar
        </CharString>
        <CharString name="c">
          -191 -6 79 -79 134 226 -1 callgsubr
          hstemhm
          25 66 hintmask 10011000
          240 378 rmoveto
          hintmask 01101000
          53 24 -24 25 hhcurveto
          23 21 21 26 35 -40 20 -55 -126 -140 -107 -153 -115 80 -87 101 99 81 84 31 10 -9 9 -10 hvcurveto
          hintmask 10011000
          -24 -25 -55 -77 hhcurveto
          33 callsubr
        </CharString>
        <CharString name="caron">
          -239 534 -88 callgsubr
          hstem
          298 630 -104 callsubr
          -27 callsubr
        </CharString>
        <CharString name="ccedilla">
          -181 -290 78 75 71 61 78 281 -1 callgsubr
          hstemhm
          25 66 60 86 -29 29 26 45 hintmask 1110111010000000
          240 378 rmoveto
          53 24 -24 25 hhcurveto
          23 21 21 26 35 -40 20 -55 -126 -140 -107 -153 -110 72 -84 94 -7 hvcurveto
          11 -5 6 -10 -12 -30 callgsubr
          -53 callsubr
          hvcurveto
          hintmask 1111010110000000
          50 -36 30 -48 vhcurveto
          5 4 8 14 19 vvcurveto
          8 -4 11 -4 6 vhcurveto
          88 11 69 73 29 vvcurveto
          10 -9 9 -10 vhcurveto
          -24 -25 -55 -77 hhcurveto
          hintmask 1110111010000000
          33 callsubr
        </CharString>
        <CharString name="cedilla">
          -324 34 callgsubr
          -71 148 4 -21 27 -21 hstemhm
          56 86 -29 29 26 45 hintmask 1010100110000000
          hintmask 1010101010000000
          83 -6 rmoveto
          hintmask 0110011010000000
          18 12 -10 -16 hvcurveto
          -30 callgsubr
          hintmask 1001001010000000
          -53 callsubr
          50 -36 30 -48 hvcurveto
          5 4 8 14 19 vvcurveto
          hintmask 1010101010000000
          11 -8 18 -6 vhcurveto
          2 11 rlineto
          -47 hlineto
          endchar
        </CharString>
        <CharString name="cent">
          -176 -6 177 -79 79 281 -1 callgsubr
          -78 166 hstemhm
          20 66 93 62 -62 202 hintmask 01010101
          hintmask 10100101
          381 207 rmoveto
          10 -9 9 -10 vhcurveto
          -23 -27 -55 -75 hhcurveto
          hintmask 01001110
          -85 -66 67 85 85 64 68 85 hvcurveto
          53 23 -24 26 hhcurveto
          26 18 23 26 42 -41 11 -42 -19 -19 -2 -5 -19 hvcurveto
          1 22 0 22 17 vvcurveto
          20 -12 14 -18 vhcurveto
          hintmask 10100110
          -18 -15 -15 -20 -24 0 -33 1 -29 hvcurveto
          -92 -52 -68 -106 -105 vvcurveto
          hintmask 10100101
          -90 66 -76 92 vhcurveto
          -1 -23 0 -24 -16 vvcurveto
          -21 15 -14 18 18 13 14 21 19 -1 28 -1 25 vhcurveto
          79 23 63 58 25 vvcurveto
          endchar
        </CharString>
        <CharString name="circumflex">
          -239 534 -88 callgsubr
          hstem
          298 525 -107 callgsubr
          endchar
        </CharString>
        <CharString name="colon">
          -394 -6 113 193 113 hstemhm
          40 113 hintmask 10100000
          40 42 rmoveto
          -83 callgsubr
          hintmask 01100000
          306 vmoveto
          -83 callgsubr
          endchar
        </CharString>
        <CharString name="comma">
          -393 -133 240 hstemhm
          40 114 -73 73 hintmask 11000000
          55 -133 rmoveto
          32 67 104 74 -9 callgsubr
          -44 41 4 -49 -40 -40 -16 -25 -37 callgsubr
        </CharString>
        <CharString name="commaaccent">
          -287 -290 214 hstemhm
          93 114 -83 83 hintmask 11000000
          108 -290 rmoveto
          32 67 89 63 -9 callgsubr
          -53 callgsubr
        </CharString>
        <CharString name="copyright">
          195 -5 54 -54 122 455 125 -54 54 hstemhm
          50 54 -54 132 385 165 -54 54 hintmask 10011001
          -45 callgsubr
          54 10 -40 callsubr
          hintmask 01100110
          335 216 rmoveto
          67 61 -38 -46 -26 -19 -18 -23 -25 -13 9 15 -13 hvcurveto
          16 -14 -21 34 -56 hhcurveto
          -70 -47 -82 -77 -97 63 -89 86 48 46 33 24 18 hvcurveto
          11 9 8 4 6 hhcurveto
          7 8 -6 -9 -26 -73 -87 -122 -95 -93 65 119 152 109 119 148 hvcurveto
          endchar
        </CharString>
        <CharString name="currency">
          -83 88 58 305 59 -1 -20 hstemhm
          35 59 302 63 hintmask 11011000
          231 88 rmoveto
          42 47 14 29 40 hvcurveto
          -26 25 23 -17 17 hhcurveto
          hintmask 10111000
          20 11 12 19 18 -18 22 -25 26 hvcurveto
          hintmask 11011000
          28 38 18 50 61 vvcurveto
          33 -10 33 -20 28 vhcurveto
          hintmask 10111000
          17 19 10 17 14 vvcurveto
          19 -10 12 -21 -14 -18 -11 -18 -19 vhcurveto
          18 -31 -37 12 -43 hhcurveto
          -43 -47 -15 -30 -41 hvcurveto
          26 -26 -23 18 -17 hhcurveto
          -20 -11 -12 -19 -17 18 -24 26 -26 hvcurveto
          -27 -38 -17 -50 -59 vvcurveto
          -33 10 -33 19 -28 vhcurveto
          -18 -20 -11 -18 -13 vvcurveto
          -19 10 -12 21 14 18 12 18 21 vhcurveto
          -19 30 38 -11 44 hhcurveto
          -137 211 rmoveto
          85 68 67 85 85 64 -67 -85 33 callgsubr
        </CharString>
        <CharString name="d">
          -42 -20 callsubr
          294 -20 hstemhm
          25 66 287 72 -57 74 -74 102 hintmask 11110010
          hintmask 11111000
          25 160 rmoveto
          hintmask 11110100
          -84 59 -82 97 73 81 41 72 54 vhcurveto
          -73 6 18 -40 38 hhcurveto
          26 18 19 38 hvcurveto
          61 -45 -11 280 143 17 92 74 vvcurveto
          37 -21 23 -25 -25 -18 -21 -36 -56 12 -86 1 -132 vhcurveto
          22 -25 -32 15 -41 hhcurveto
          -112 -156 -115 -181 hvcurveto
          66 65 rmoveto
          85 68 67 85 95 54 -57 -95 vhcurveto
          hintmask 11111000
          33 callgsubr
        </CharString>
        <CharString name="degree">
          -253 398 58 124 62 hstem
          45 58 124 62 vstem
          45 506 rmoveto
          -67 54 -41 54 76 60 72 64 64 -54 44 -54 -77 -59 -73 -63 vhcurveto
          58 14 rmoveto
          32 29 28 35 32 28 -28 -32 -35 -28 -29 -32 -35 -29 29 35 vhcurveto
          endchar
        </CharString>
        <CharString name="dieresis">
          -204 548 93 hstem
          50 20 callsubr
          vstem
          240 588 -106 callsubr
          endchar
        </CharString>
        <CharString name="divide">
          -394 117 91 60 62 -46 -21 73 -20 74 91 hstemhm
          51 91 hintmask 10001100
          51 429 rmoveto
          4 callsubr
          -273 vmoveto
          4 callsubr
          hintmask 01000000
          46 174 rmoveto
          hintmask 00110000
          -66 -32 6 -21 hhcurveto
          -71 callgsubr
          hintmask 01000000
          21 32 5 66 hhcurveto
          hintmask 00110000
          66 32 -5 21 -92 callsubr
          hintmask 01000000
          -21 -32 -6 -66 hhcurveto
          endchar
        </CharString>
        <CharString name="dollar">
          -164 -6 138 -78 78 -78 102 318 -1 callgsubr
          -78 144 hstemhm
          55 72 50 64 -64 182 -58 72 hintmask 0101001101000000
          50 107 rmoveto
          -31 33 -22 50 14 15 1 3 15 vhcurveto
          -29 vlineto
          hintmask 1000101101000000
          -21 15 -14 18 18 13 14 21 13 0 18 -1 19 vhcurveto
          74 34 59 64 65 145 -246 -27 75 vvcurveto
          33 35 30 51 vhcurveto
          hintmask 1001001010000000
          -25 callsubr
          19 29 32 -29 22 -54 -12 -11 -1 -2 -11 hvcurveto
          35 vlineto
          hintmask 1000011101000000
          20 -12 14 -18 -18 -15 -15 -20 -15 0 -19 1 -18 vhcurveto
          -71 -31 -54 -61 -55 -143 246 39 -93 vvcurveto
          -53 -63 -26 -42 vhcurveto
          hintmask 0011001101000000
          -44 callgsubr
          hvcurveto
          endchar
        </CharString>
        <CharString name="dotaccent">
          -386 546 101 hstem
          50 101 vstem
          50 589 -73 callsubr
          endchar
        </CharString>
        <CharString name="dotaccentcmb">
          -386 546 101 hstem
          50 101 vstem
          50 589 -73 callsubr
          endchar
        </CharString>
        <CharString name="dotlessi">
          -371 6 callgsubr
          hstemhm
          66 65 vstemhm
          66 73 rmoveto
          -34 11 -45 35 23 21 2 callsubr
          -25 7 56 vvcurveto
          hintmask 11100000
          136 14 31 80 vvcurveto
          36 -18 21 -25 -25 -21 -23 -37 vhcurveto
          -53 10 -58 -212 vvcurveto
          endchar
        </CharString>
        <CharString name="e">
          -57 callgsubr
          hstemhm
          -101 callgsubr
          endchar
        </CharString>
        <CharString name="eacute">
          -57 callgsubr
          78 -94 callsubr
          -101 callgsubr
          -211 416 -107 callsubr
          hintmask 00000110
          -81 callsubr
        </CharString>
        <CharString name="ecircumflex">
          -57 callgsubr
          78 -94 callsubr
          -101 callgsubr
          hintmask 00000110
          -6 416 -107 callgsubr
          endchar
        </CharString>
        <CharString name="edieresis">
          -57 callgsubr
          92 93 hstemhm
          99 20 callsubr
          -101 callgsubr
          hintmask 00000111
          -97 479 -106 callsubr
          endchar
        </CharString>
        <CharString name="egrave">
          -57 callgsubr
          78 -94 callsubr
          -101 callgsubr
          hintmask 00000110
          -96 416 -105 callsubr
        </CharString>
        <CharString name="eight">
          -66 -6 56 537 55 hstemhm
          45 82 -42 42 -42 71 211 65 -21 21 -21 65 hintmask 11010100
          293 642 rmoveto
          -98 -110 -68 -108 -67 42 -34 53 -25 hvcurveto
          hintmask 11100001
          -71 -40 -64 -52 -96 vvcurveto
          -102 84 -56 95 143 109 98 123 94 -69 38 -73 28 vhcurveto
          hintmask 11100010
          54 34 44 44 77 vvcurveto
          80 -77 32 -62 vhcurveto
          118 -460 rmoveto
          -75 -66 -57 -68 -78 -72 50 82 69 49 37 58 33 vhcurveto
          86 -26 91 -25 -88 vvcurveto
          -150 405 rmoveto
          hintmask 11001100
          53 53 -26 -69 -44 -37 -28 -48 -27 hvcurveto
          -67 24 -59 23 59 vvcurveto
          51 49 37 56 vhcurveto
          endchar
        </CharString>
        <CharString name="ellipsis">
          -8 -6 113 hstem
          40 113 80 113 80 113 cntrmask 01110000
          40 42 rmoveto
          -83 callgsubr
          193 hmoveto
          -83 callgsubr
          193 hmoveto
          -83 callgsubr
          endchar
        </CharString>
        <CharString name="emdash">
          176 271 14 callsubr
          382 327 rmoveto
          hintmask 01100000
          -140 -140 -36 callsubr
          hintmask 10000000
          19 140 4 140 hhcurveto
          hintmask 01100000
          140 140 -4 19 hhcurveto
          19 13 14 19 19 -13 13 -19 hvcurveto
          hintmask 10000000
          -19 -140 -5 -140 hhcurveto
          endchar
        </CharString>
        <CharString name="endash">
          -54 271 14 callsubr
          267 327 -62 callsubr
        </CharString>
        <CharString name="equal">
          -177 193 62 -46 -21 73 -20 102 62 -46 -21 73 -20 hstemhm
          hintmask 00010000
          205 405 rmoveto
          hintmask 00001100
          -66 -22 6 -21 hhcurveto
          -71 callgsubr
          hintmask 00010000
          21 22 5 66 hhcurveto
          hintmask 00001100
          66 22 -5 21 -92 callsubr
          hintmask 00010000
          -21 -22 -6 -66 hhcurveto
          hintmask 10000000
          -150 vmoveto
          -61 callgsubr
        </CharString>
        <CharString name="eth">
          -45 -20 callsubr
          28 212 -7 -21 hstemhm
          25 66 302 56 hintmask 11011100
          416 640 rmoveto
          18 -10 10 -18 -19 -15 -27 -32 -26 vhcurveto
          68 -76 -92 19 -46 hhcurveto
          -24 -19 -19 -24 -59 116 29 97 -57 hvcurveto
          -32 -26 -31 -11 -16 vvcurveto
          hintmask 11101100
          -19 1 10 -10 18 hhcurveto
          20 15 28 34 28 hvcurveto
          34 -29 29 -42 18 -66 rrcurveto
          27 -27 -36 20 -48 hhcurveto
          -102 -156 -115 -181 -84 59 -82 97 122 146 117 181 141 -43 91 -54 61 hvcurveto
          33 26 31 11 18 vvcurveto
          -325 -415 rmoveto
          85 68 67 85 85 64 -47 -105 33 callgsubr
        </CharString>
        <CharString name="exclam">
          -348 -6 119 583 -20 hstem
          60 119 vstem
          60 -2 callsubr
          64 652 rmoveto
          -28 -20 -23 -28 hvcurveto
          -69 22 -105 -245 vvcurveto
          -16 12 -13 14 15 12 13 16 vhcurveto
          245 22 105 69 vvcurveto
          28 -21 23 -28 vhcurveto
          endchar
        </CharString>
        <CharString name="exclamdown">
          -348 -225 -21 583 119 hstem
          60 119 vstem
          179 -10 callsubr
          -64 -652 rmoveto
          -28 -21 23 28 hvcurveto
          69 22 105 245 vvcurveto
          16 12 13 15 14 12 -13 -16 vhcurveto
          -245 22 -105 -69 vvcurveto
          -28 -20 -23 -28 vhcurveto
          endchar
        </CharString>
        <CharString name="f">
          -229 -269 -21 677 71 -8 -20 25 -20 213 19 callgsubr
          10 130 -90 107 -68 68 hintmask 1100101000000000
          10 419 10 callsubr
          -75 7 -88 -95 -250 -39 -49 -61 vvcurveto
          hintmask 1100100010000000
          -35 callgsubr
          72 -3 122 -3 61 vhcurveto
          -5 89 -4 83 -2 90 rrcurveto
          hintmask 1100100100000000
          1 10 11 0 11 45 51 -8 42 hhcurveto
          -68 callsubr
          hvcurveto
          -42 -51 -8 -45 hhcurveto
          hintmask 1100101000000000
          -32 38 31 callsubr
          hintmask 1010011000000000
          19 callsubr
          hvcurveto
          hintmask 1001101000000000
          38 -39 15 -44 -110 -161 -120 -178 -25 callgsubr
        </CharString>
        <CharString name="fi">
          -14 -269 -21 305 -21 393 63 5 -20 21 -20 212 19 callgsubr
          20 130 -90 107 -68 68 226 65 -65 79 hintmask 1110010100100000
          20 421 10 callsubr
          -76 7 -88 -96 -250 -39 -49 -61 vvcurveto
          hintmask 1110010001100000
          -35 callgsubr
          72 -3 122 -3 61 vhcurveto
          -5 90 -4 83 -2 91 rrcurveto
          hintmask 1110010010100000
          1 10 11 0 11 hhcurveto
          35 102 -6 -3 64 hvcurveto
          hintmask 1110010100100000
          1 -50 9 -65 -195 vvcurveto
          -34 11 -45 35 23 21 2 callsubr
          -25 7 56 136 14 31 80 vvcurveto
          23 -11 34 -32 vhcurveto
          -47 -116 -6 -84 hhcurveto
          hintmask 1100110100010000
          -32 36 31 callsubr
          hintmask 1110001100100000
          19 callsubr
          hvcurveto
          hintmask 1101010100100000
          38 -39 15 -44 -110 -161 -119 -177 -25 callgsubr
        </CharString>
        <CharString name="five">
          -107 -7 76 -76 115 252 69 141 72 15 -21 hstemhm
          100 68 198 69 hintmask 10110110
          169 565 rmoveto
          2 23 29 3 33 50 30 -6 36 hhcurveto
          -94 callgsubr
          hvcurveto
          hintmask 10101110
          -36 -30 -6 -50 hhcurveto
          hintmask 10110110
          -49 -30 6 -36 hhcurveto
          -23 -25 -13 -26 hvcurveto
          -28 9 -33 -66 -58 -3 -37 -27 vvcurveto
          -15 11 -11 15 vhcurveto
          23 20 32 54 hhcurveto
          80 66 -65 -81 -79 -63 -65 -90 hvcurveto
          hintmask 01110110
          -51 -22 39 -38 hhcurveto
          -31 -26 -26 -31 -41 39 -17 49 159 143 131 141 90 -73 73 -90 -39 -33 -11 -23 -28 hvcurveto
          -3 18 -1 49 34 37 1 26 6 vvcurveto
          endchar
        </CharString>
        <CharString name="fl">
          -1 -269 -21 305 -21 393 71 -8 -20 25 -20 236 79 hstemhm
          20 130 -90 107 -68 68 247 88 -75 60 -60 99 hintmask 1110011001000000
          20 421 10 callsubr
          -76 7 -88 -96 vvcurveto
          hintmask 1110010011000000
          -250 -39 -49 -61 vvcurveto
          -38 18 -19 26 vhcurveto
          hintmask 1110010101000000
          45 18 59 103 72 -3 122 -3 61 hvcurveto
          -5 90 -4 83 -2 91 rrcurveto
          hintmask 1110011001000000
          1 10 11 0 11 45 51 -10 42 hhcurveto
          -68 callsubr
          hvcurveto
          -42 -51 -6 -45 hhcurveto
          hintmask 1101011001000000
          -32 36 hlineto
          102 68 83 92 35 42 -5 -10 27 vhcurveto
          3 -53 10 -75 -455 vvcurveto
          hintmask 1110011000010000
          -72 callsubr
          -5 callgsubr
          hintmask 1110011000100000
          4 140 7 62 106 vvcurveto
          hintmask 1100111001000000
          53 -69 26 -68 -110 -161 -119 -177 -25 callgsubr
        </CharString>
        <CharString name="florin">
          -219 -290 79 -79 102 484 74 170 19 callgsubr
          -7 154 -64 64 -64 229 -213 61 hintmask 1011000010000000
          160 -56 rmoveto
          107 -9 129 -4 124 vhcurveto
          44 40 -8 42 hhcurveto
          hintmask 1011001000000000
          -68 callsubr
          hvcurveto
          hintmask 1010100100000000
          -42 -41 -8 -45 hhcurveto
          -1 29 0 29 28 vvcurveto
          82 48 33 42 vhcurveto
          hintmask 1011001000000000
          24 callsubr
          -92 -114 -73 -161 hvcurveto
          -43 vlineto
          1 -16 -16 1 -19 hhcurveto
          hintmask 1011010000000000
          -19 -20 -9 -25 -25 20 -9 19 20 17 1 1 16 hvcurveto
          5 -126 9 -159 -112 vvcurveto
          -82 -48 -33 -42 vhcurveto
          hintmask 1011000010000000
          -55 -1 23 -34 hhcurveto
          -21 -23 -18 -31 hvcurveto
          hintmask 0111000010000000
          -38 35 -15 44 92 114 73 161 vhcurveto
          endchar
        </CharString>
        <CharString name="four">
          -21 16 -21 224 62 365 -20 hstemhm
          345 62 -62 176 hintmask 11110000
          420 567 rmoveto
          25 18 19 24 24 -17 12 -23 -68 -88 -63 -98 -81 hvcurveto
          -54 -65 -87 -134 -35 vvcurveto
          -21 15 -16 21 vhcurveto
          34 85 5 108 hhcurveto
          36 hlineto
          -2 -74 -3 -42 -36 vvcurveto
          -37 19 -36 34 33 21 26 32 33 -26 20 -6 37 vhcurveto
          -3 16 -2 28 -1 31 rrcurveto
          -1 36 21 -2 20 hhcurveto
          21 15 16 21 21 -15 15 -21 -21 -21 -3 -1 -36 hvcurveto
          48 vlineto
          53 0 120 5 63 vhcurveto
          -104 -286 rmoveto
          -88 -72 4 1 -42 hvcurveto
          hintmask 11101000
          72 131 80 94 83 38 rrcurveto
          1 -35 3 -51 -132 vvcurveto
          hintmask 11110000
          -50 vlineto
          endchar
        </CharString>
        <CharString name="fraction">
          -4 15 -21 648 -20 hstem
          548 598 -58 callgsubr
        </CharString>
        <CharString name="g">
          -57 -5 callsubr
          78 282 19 callgsubr
          25 66 308 65 -65 81 hintmask 10101110
          244 377 rmoveto
          48 28 -23 22 hhcurveto
          22 22 20 28 28 -24 26 -59 -63 callsubr
          -84 59 -82 97 hvcurveto
          hintmask 10110110
          68 88 42 75 59 hvcurveto
          1 -53 2 -58 -56 vvcurveto
          -84 -62 -73 -85 vhcurveto
          -95 -15 64 -39 hhcurveto
          -32 -16 -24 -22 hvcurveto
          hintmask 01110110
          -44 58 -51 73 146 132 151 126 34 2 60 3 51 vhcurveto
          5 76 6 39 42 vvcurveto
          36 -18 21 -25 -25 -21 -23 -37 -21 0 -26 1 -29 vhcurveto
          -78 -6 -62 -60 -80 hhcurveto
          hintmask 10101101
          -17 callgsubr
          85 68 67 85 hvcurveto
          endchar
        </CharString>
        <CharString name="germandbls">
          26 -6 78 -78 102 586 68 hstemhm
          50 109 -70 70 116 62 73 69 32 72 hintmask 10101111
          89 446 rmoveto
          -44 6 -45 -76 vvcurveto
          -67 -2 -30 -4 -32 vhcurveto
          -7 -56 -32 -7 -39 vvcurveto
          -39 26 -17 23 43 17 45 34 vhcurveto
          89 -9 202 122 vvcurveto
          hintmask 10110111
          102 78 94 82 59 41 -38 -65 vhcurveto
          -88 -135 -6 -115 -121 236 41 -128 vvcurveto
          -53 -43 -37 -62 vhcurveto
          -44 callgsubr
          -31 33 -22 50 116 124 104 105 hvcurveto
          hintmask 01101111
          148 -246 -18 76 64 142 10 152 vvcurveto
          58 -37 57 -77 -112 -164 -123 -181 vhcurveto
          endchar
        </CharString>
        <CharString name="grave">
          -291 534 -88 callgsubr
          hstem
          246 525 -105 callsubr
        </CharString>
        <CharString name="greater">
          -158 82 20 371 21 hstem
          384 288 rmoveto
          45 -7 -216 161 -62 hhcurveto
          -32 -22 -18 -26 -27 20 -13 32 -9 hvcurveto
          63 -18 99 -37 61 -58 -61 -58 -99 -37 -63 -18 rrcurveto
          -32 -9 -20 -13 -27 vvcurveto
          -26 22 -18 32 62 216 161 45 7 vhcurveto
          endchar
        </CharString>
        <CharString name="guillemotleft">
          -88 16 callsubr
          hstemhm
          50 75 105 75 hintmask 11100000
          135 399 rmoveto
          -82 callgsubr
          -20 -59 -44 -41 -41 vhcurveto
          180 hmoveto
          -82 callgsubr
          vhcurveto
          hintmask 11010000
          -20 -59 -44 -41 -41 hvcurveto
          endchar
        </CharString>
        <CharString name="guillemotright">
          -88 16 callsubr
          hstemhm
          194 75 105 75 hintmask 11100000
          184 399 rmoveto
          -84 callgsubr
          hintmask 11010000
          180 hmoveto
          -84 callgsubr
          endchar
        </CharString>
        <CharString name="guilsinglleft">
          -268 16 callsubr
          hstem
          50 75 vstem
          135 399 rmoveto
          -82 callgsubr
          -20 -59 -44 -41 -41 vhcurveto
          endchar
        </CharString>
        <CharString name="guilsinglright">
          -268 16 callsubr
          hstem
          194 75 vstem
          184 399 rmoveto
          -84 callgsubr
          endchar
        </CharString>
        <CharString name="h">
          -56 -4 callsubr
          294 -20 hstem
          70 79 vstem
          411 13 callgsubr
          132 9 112 90 vvcurveto
          28 -18 20 -16 callgsubr
          vhcurveto
          -90 10 -111 -120 -120 -10 -128 -90 -65 callgsubr
          66 -5 88 -3 89 vhcurveto
          -39 callgsubr
        </CharString>
        <CharString name="hbar">
          -66 -4 callsubr
          112 74 -74 182 -90 -21 hstemhm
          -40 192 -80 80 -80 227 hintmask 11100010
          423 13 callgsubr
          76 3 69 2 62 vhcurveto
          -3 35 37 -4 31 hhcurveto
          -68 callsubr
          -31 -35 -4 -3 -34 hvcurveto
          1 24 0 22 21 vvcurveto
          hintmask 11100001
          28 -18 20 -16 callgsubr
          -21 0 -22 1 -23 vhcurveto
          1 -25 -23 3 -26 hhcurveto
          -19 -20 -9 -25 hvcurveto
          hintmask 11010010
          -25 20 -9 19 27 24 2 1 26 vhcurveto
          3 -60 3 -66 -68 vvcurveto
          hintmask 11001100
          -120 -10 -128 -90 -65 callgsubr
          66 -5 88 -3 89 vhcurveto
          hintmask 11100010
          -39 callgsubr
        </CharString>
        <CharString name="hyphen">
          -197 0 callgsubr
          195 330 rmoveto
          -61 callgsubr
        </CharString>
        <CharString name="i">
          -346 6 callgsubr
          133 103 hstemhm
          60 95 -79 65 hintmask 11101000
          76 73 -95 callgsubr
          hintmask 11110000
          -16 540 -64 callgsubr
          endchar
        </CharString>
        <CharString name="iacute">
          -359 6 callgsubr
          98 -94 callsubr
          66 65 hintmask 00110000
          48 -55 callsubr
          hintmask 11001000
          18 -452 -95 callgsubr
          endchar
        </CharString>
        <CharString name="icircumflex">
          -379 6 callgsubr
          98 -94 callsubr
          68 65 hintmask 11001000
          68 73 -95 callgsubr
          hintmask 00110000
          159 452 -107 callgsubr
          endchar
        </CharString>
        <CharString name="idieresis">
          -379 6 callgsubr
          112 93 hstemhm
          -38 93 13 65 19 93 hintmask 11001000
          68 73 -95 callgsubr
          hintmask 00110100
          84 515 -106 callsubr
          endchar
        </CharString>
        <CharString name="igrave">
          -379 6 callgsubr
          98 -94 callsubr
          68 65 hintmask 00110000
          191 525 -104 callgsubr
          hintmask 11001000
          -123 -452 -95 callgsubr
          endchar
        </CharString>
        <CharString name="ij">
          -145 -269 -21 305 -21 462 -20 133 103 hstemhm
          52 95 -79 65 115 35 callsubr
          hintmask 0111010000000000
          68 73 -95 callgsubr
          hintmask 0111100000000000
          -16 540 -64 callgsubr
          hintmask 1011000001000000
          306 -486 rmoveto
          137 13 78 57 vvcurveto
          36 -18 21 -25 vhcurveto
          hintmask 1011000100000000
          -25 -21 -23 -37 hvcurveto
          hintmask 1011000010000000
          -74 17 -52 -143 vvcurveto
          hintmask 1011001000000000
          -56 callgsubr
        </CharString>
        <CharString name="integral">
          -144 -290 79 -79 102 838 19 callgsubr
          193 61 -61 205 -179 61 hintmask 10100010
          280 -26 rmoveto
          177 -26 209 208 vvcurveto
          75 27 30 23 vhcurveto
          hintmask 10011000
          31 1 -23 18 hhcurveto
          19 callsubr
          hvcurveto
          hintmask 10100100
          38 -27 15 -32 -66 -80 -70 -154 vhcurveto
          -149 26 -279 -166 vvcurveto
          -103 -39 -42 -31 vhcurveto
          hintmask 10100010
          -37 -1 23 -22 hhcurveto
          -21 -23 -18 -31 hvcurveto
          hintmask 01100010
          -38 22 -15 27 83 103 82 182 vhcurveto
          endchar
        </CharString>
        <CharString name="itilde">
          -371 6 callgsubr
          77 -52 callsubr
          66 65 hintmask 11000100
          66 73 -95 callgsubr
          hintmask 00010000
          190 553 -99 callsubr
        </CharString>
        <CharString name="j">
          -343 -269 -21 746 -20 133 103 hstemhm
          50 35 callsubr
          hintmask 11100010
          160 127 rmoveto
          137 13 78 57 vvcurveto
          36 -18 21 -25 vhcurveto
          hintmask 11101000
          -25 -21 -23 -37 hvcurveto
          hintmask 11100100
          -74 17 -52 -143 vvcurveto
          hintmask 11110000
          -56 callgsubr
        </CharString>
        <CharString name="jcircumflex">
          -353 -269 -21 746 -20 98 -94 callsubr
          50 35 callsubr
          hintmask 11000001
          160 127 rmoveto
          137 13 78 57 vvcurveto
          36 -18 21 -25 vhcurveto
          hintmask 11000100
          -25 -21 -23 -37 hvcurveto
          hintmask 11000010
          -74 17 -52 -143 vvcurveto
          hintmask 11001000
          -280 -51 -19 0 callsubr
          vhcurveto
          72 3 122 61 vvcurveto
          hintmask 00110000
          81 398 -107 callgsubr
          endchar
        </CharString>
        <CharString name="k">
          -92 15 -21 360 -1 callgsubr
          294 -20 hstemhm
          70 79 hintmask 10111000
          140 -75 callsubr
          hintmask 11011000
          -25 callsubr
          18 31 31 -29 22 -54 -74 -98 -51 -86 -58 hvcurveto
          endchar
        </CharString>
        <CharString name="kcommaaccent">
          -102 -290 214 91 -21 360 -1 callgsubr
          294 -20 hstemhm
          60 79 46 114 -83 83 hintmask 01011100
          130 -75 callsubr
          hintmask 01101100
          -25 callsubr
          18 31 31 -29 22 -54 -74 -98 -51 -86 -58 hvcurveto
          hintmask 10000010
          70 -609 rmoveto
          32 67 89 63 -69 callsubr
          hintmask 10000001
          -53 callgsubr
        </CharString>
        <CharString name="kgreenlandic">
          -102 15 -21 360 -1 callgsubr
          hstemhm
          50 89 hintmask 10110000
          130 218 rmoveto
          -159 211 38 -65 42 hhcurveto
          27 17 18 26 49 -87 23 -195 171 hvcurveto
          58 35 47 39 52 hhcurveto
          hintmask 11010000
          43 18 -24 21 hhcurveto
          19 callsubr
          31 -23 22 -40 -88 -101 -66 -110 -61 hvcurveto
          2 49 7 40 39 vvcurveto
          28 -18 20 -16 callgsubr
          vhcurveto
          -47 10 -61 -49 -73 -10 -83 -52 -65 callgsubr
          44 -7 68 -2 64 vhcurveto
          endchar
        </CharString>
        <CharString name="l">
          -372 15 -21 756 -20 hstemhm
          52 74 -60 75 -75 99 hintmask 11001000
          66 -75 callgsubr
          hintmask 11100000
          -5 callgsubr
          hintmask 11010000
          -14 callgsubr
          vhcurveto
          hintmask 11100000
          -25 -21 -21 -28 hvcurveto
          hintmask 11001000
          -73 14 -1 -554 vvcurveto
          endchar
        </CharString>
        <CharString name="ldot">
          -236 15 -21 255 101 400 -20 hstemhm
          52 74 -60 75 -75 99 50 101 hintmask 10100100
          66 -75 callgsubr
          hintmask 10110000
          -5 callgsubr
          hintmask 10101000
          -14 callgsubr
          vhcurveto
          hintmask 10110000
          -25 -21 -21 -28 hvcurveto
          hintmask 10100100
          -73 14 -1 -554 vvcurveto
          hintmask 01000010
          149 219 -73 callsubr
          endchar
        </CharString>
        <CharString name="less">
          -158 103 -21 412 -20 hstem
          45 288 rmoveto
          -45 7 216 -161 62 hhcurveto
          32 22 18 26 27 -20 13 -32 9 hvcurveto
          -63 18 -99 37 -61 58 61 58 99 37 63 18 rrcurveto
          32 9 20 13 27 vvcurveto
          26 -22 18 -32 -62 -216 -161 -45 -7 vhcurveto
          endchar
        </CharString>
        <CharString name="logicalnot">
          -54 146 181 -56 56 5 -20 hstemhm
          406 84 hintmask 10010000
          406 268 rmoveto
          -2 -32 -4 -34 -9 vvcurveto
          -24 18 -23 27 27 18 23 24 12 -3 58 -4 37 vhcurveto
          hintmask 00110000
          19 -2 -11 13 -19 hhcurveto
          hintmask 01010000
          -19 -85 -5 -80 hhcurveto
          hintmask 00110000
          -80 -85 -36 callsubr
          hintmask 01010000
          19 85 4 80 hhcurveto
          50 52 -2 -1 37 hvcurveto
          endchar
        </CharString>
        <CharString name="lslash">
          -372 15 -21 756 -20 hstemhm
          52 89 -76 61 -61 100 hintmask 11001000
          66 -75 callgsubr
          hintmask 11010000
          39 -39 7 56 vvcurveto
          41 0 45 1 44 vhcurveto
          55 45 54 41 14 11 rrcurveto
          8 6 3 9 9 vvcurveto
          8 -2 7 -6 7 vhcurveto
          8 -7 -8 4 -9 hhcurveto
          -7 -8 -3 -5 -6 hvcurveto
          -10 -8 -31 -30 -37 -33 rrcurveto
          5 vlineto
          hintmask 11100000
          -14 callgsubr
          -25 -21 -21 -28 vhcurveto
          hintmask 11010000
          -61 10 -11 3 -326 vhcurveto
          -46 -37 -41 -30 -12 -10 rrcurveto
          -8 -7 -5 -9 -9 vvcurveto
          -7 3 -7 5 -6 vhcurveto
          -8 7 9 -5 9 hhcurveto
          7 8 3 6 7 hvcurveto
          57 52 rlineto
          1 -47 0 -51 -58 vvcurveto
          endchar
        </CharString>
        <CharString name="m">
          167 -4 callsubr
          hstem
          60 89 vstem
          363 73 rmoveto
          8 callgsubr
          -32 158 rlineto
          32 17 31 49 42 hhcurveto
          50 27 -47 -53 9 hvcurveto
          37 -209 rlineto
          8 callgsubr
          -35 172 rlineto
          65 -13 -30 76 -80 hhcurveto
          -70 -54 -71 -20 -14 hvcurveto
          49 -18 -32 42 -59 hhcurveto
          -59 -43 -49 -28 -21 hvcurveto
          1 10 0 10 9 vvcurveto
          28 -18 20 -16 callgsubr
          vhcurveto
          -50 7 -57 -60 -60 -7 -88 -50 -65 callgsubr
          vhcurveto
          50 -7 88 60 vvcurveto
          14 0 13 1 19 vhcurveto
          45 2 28 51 56 hhcurveto
          50 38 -48 -52 9 hvcurveto
          endchar
        </CharString>
        <CharString name="macron">
          -234 550 54 -36 -21 61 -20 hstemhm
          hintmask 10000000
          177 604 rmoveto
          hintmask 01100000
          -45 -43 4 -11 hhcurveto
          -18 -13 -12 -18 -18 13 -13 18 hvcurveto
          hintmask 10000000
          11 43 3 45 hhcurveto
          hintmask 01100000
          44 44 -3 11 hhcurveto
          18 12 13 18 18 -12 12 -18 hvcurveto
          hintmask 10000000
          -11 -44 -4 -44 hhcurveto
          endchar
        </CharString>
        <CharString name="minus">
          -177 0 callgsubr
          205 330 rmoveto
          hintmask 01100000
          -66 -32 6 -21 hhcurveto
          -71 callgsubr
          hintmask 10000000
          21 32 5 66 hhcurveto
          hintmask 01100000
          66 32 -5 21 -92 callsubr
          hintmask 10000000
          -21 -32 -6 -66 hhcurveto
          endchar
        </CharString>
        <CharString name="mu">
          -88 -271 -21 286 74 388 -20 hstemhm
          66 98 -74 74 175 -14 callsubr
          hintmask 11110001
          350 -75 callgsubr
          hintmask 11110100
          -60 callsubr
          hintmask 11101010
          -100 callgsubr
          -1 -41 -4 -143 -77 vvcurveto
          hintmask 11110100
          -63 -24 -3 -43 vvcurveto
          -40 24 -17 25 40 9 33 25 vhcurveto
          70 -7 104 80 vvcurveto
          -16 18 24 -10 33 hhcurveto
          63 39 52 27 16 hvcurveto
          endchar
        </CharString>
        <CharString name="multiply">
          -117 139 -21 361 -20 hstem
          53 448 rmoveto
          -35 87 -64 56 -51 vhcurveto
          -56 -51 -87 -64 -34 vvcurveto
          -19 11 -12 20 35 65 85 56 51 vhcurveto
          -56 51 62 -85 35 hhcurveto
          20 11 12 19 36 -83 62 -57 51 hvcurveto
          57 52 83 62 36 vvcurveto
          19 -11 12 -20 -35 -62 -85 -56 -51 vhcurveto
          56 -51 -65 85 -35 hhcurveto
          -20 -11 -12 -19 hvcurveto
          endchar
        </CharString>
        <CharString name="n">
          -59 -4 callsubr
          hstem
          60 83 vstem
          149 42 rmoveto
          81 -6 72 91 vvcurveto
          45 3 29 51 62 hhcurveto
          65 28 -47 -53 10 hvcurveto
          38 -209 rlineto
          -32 6 13 -47 46 hhcurveto
          26 24 13 39 39 -29 8 -14 50 hvcurveto
          -38 172 rlineto
          65 -14 -33 76 -88 hhcurveto
          -62 -46 -48 -29 -21 hvcurveto
          1 10 0 10 9 vvcurveto
          28 -18 20 -16 callgsubr
          vhcurveto
          -50 7 -57 -60 -60 -7 -88 -50 -65 callgsubr
          vhcurveto
          endchar
        </CharString>
        <CharString name="nacute">
          -69 -4 callsubr
          78 -94 callsubr
          50 83 hintmask 11001000
          139 42 rmoveto
          81 -6 72 91 vvcurveto
          45 3 29 51 62 hhcurveto
          65 28 -47 -53 10 hvcurveto
          38 -209 rlineto
          -32 6 13 -47 46 hhcurveto
          26 24 13 39 39 -29 8 -14 50 hvcurveto
          -38 172 rlineto
          65 -14 -33 76 -88 hhcurveto
          -62 -46 -48 -29 -21 hvcurveto
          1 10 0 10 9 vvcurveto
          28 -18 20 -16 callgsubr
          vhcurveto
          -50 7 -57 -60 -60 -7 -88 -50 -65 callgsubr
          vhcurveto
          22 483 -107 callsubr
          hintmask 00110000
          -81 callsubr
        </CharString>
        <CharString name="nine">
          -70 -6 78 -78 92 143 68 282 63 hstemhm
          45 68 272 87 -69 69 hintmask 01111100
          249 579 rmoveto
          76 60 -60 -76 -76 -60 -70 -76 -76 -60 70 76 76 60 60 76 hvcurveto
          -123 -493 rmoveto
          -26 -21 -22 -26 -26 21 -18 36 175 161 243 189 129 -66 87 -105 -133 -123 -111 -148 -89 71 -65 79 hvcurveto
          hintmask 10111010
          89 93 58 67 26 hvcurveto
          -116 -6 -91 -166 -106 hhcurveto
          hintmask 01111100
          -43 -10 14 -21 hhcurveto
          endchar
        </CharString>
        <CharString name="ntilde">
          -65 -4 callsubr
          57 -52 callsubr
          50 83 hintmask 11000100
          139 42 rmoveto
          -28 -18 -20 -25 -25 -21 20 28 vhcurveto
          50 7 88 60 60 -7 57 50 vvcurveto
          28 21 21 25 25 18 -20 -28 -9 0 -10 -1 -10 vhcurveto
          29 21 46 48 62 hhcurveto
          88 33 -76 -65 14 hvcurveto
          38 -172 rlineto
          14 -50 29 -8 -39 vvcurveto
          -39 -24 -13 -26 -46 -13 47 32 -6 vhcurveto
          -38 209 rlineto
          53 -10 -28 47 -65 hhcurveto
          -62 -29 -51 -45 -3 hvcurveto
          -91 6 -72 -81 vvcurveto
          hintmask 00010000
          236 584 -99 callsubr
        </CharString>
        <CharString name="numbersign">
          106 15 -21 228 68 127 69 210 -20 hstem
          95 449 rmoveto
          -25 16 -12 23 24 30 3 2 48 vhcurveto
          -33 -127 rlineto
          3 -57 -35 3 -27 hhcurveto
          -23 -16 -12 -25 -25 16 -12 23 24 30 3 2 47 hvcurveto
          -39 -125 -21 -34 -35 vvcurveto
          -26 14 -13 24 47 5 79 156 29 vhcurveto
          23 25 1 29 hhcurveto
          23 22 0 -1 19 hvcurveto
          -39 -127 -21 -34 -35 vvcurveto
          -26 14 -13 24 47 5 78 155 29 vhcurveto
          -2 54 34 -3 27 hhcurveto
          -68 callsubr
          -24 -31 -3 -2 -48 hvcurveto
          12 52 6 27 6 25 7 23 rlinecurve
          -3 58 36 -3 28 hhcurveto
          -68 callsubr
          -24 -31 -3 -2 -47 hvcurveto
          30 88 27 47 36 vvcurveto
          26 -12 18 -26 -44 -10 -93 -124 -24 vhcurveto
          -1 -23 -25 0 -29 hhcurveto
          -65 hlineto
          30 90 28 48 36 vvcurveto
          26 -12 18 -26 -44 -10 -92 -124 -24 vhcurveto
          3 -54 -34 3 -26 hhcurveto
          -23 -16 -12 -25 hvcurveto
          173 -106 rmoveto
          6 28 7 25 6 23 rrcurveto
          24 28 1 32 hhcurveto
          24 22 0 -1 19 hvcurveto
          -4 -18 -4 -19 -5 -19 -7 -28 -7 -24 -6 -22 rrcurveto
          -1 -24 -27 0 -31 hhcurveto
          -65 hlineto
          3 18 4 18 5 19 rrcurveto
          endchar
        </CharString>
        <CharString name="o">
          -103 -20 callsubr
          hstem
          25 66 302 66 vstem
          91 225 -97 callsubr
          endchar
        </CharString>
        <CharString name="oacute">
          -37 callsubr
          hintmask 00110000
          195 -55 callsubr
          hintmask 11001100
          -104 -300 -97 callsubr
          endchar
        </CharString>
        <CharString name="ocircumflex">
          -37 callsubr
          hintmask 11001100
          91 225 -97 callsubr
          hintmask 00110000
          361 365 -107 callgsubr
          endchar
        </CharString>
        <CharString name="odieresis">
          -103 -20 callsubr
          92 93 hstemhm
          25 66 29 20 callsubr
          -10 66 hintmask 11010010
          91 225 -97 callsubr
          hintmask 00101100
          285 428 -106 callsubr
          endchar
        </CharString>
        <CharString name="oe">
          193 -46 callgsubr
          hstemhm
          25 66 302 250 hintmask 10110110
          25 160 rmoveto
          -84 59 -82 97 70 92 45 79 59 vhcurveto
          -74 27 64 -50 77 hhcurveto
          99 81 84 31 hvcurveto
          hintmask 01110110
          10 -9 9 -10 vhcurveto
          hintmask 10101110
          -24 -25 -55 -77 hhcurveto
          -78 -63 57 76 -8 hvcurveto
          2 7 9 1 11 36 58 -10 25 hhcurveto
          27 14 12 26 26 -15 10 -31 hvcurveto
          -27 -62 -8 -49 hhcurveto
          62 16 55 51 75 hhcurveto
          hintmask 10110110
          51 25 -24 25 hhcurveto
          23 21 21 26 35 -40 20 -55 -75 -81 -38 -64 -52 hvcurveto
          57 -22 -51 45 -71 hhcurveto
          -63 callsubr
          hvcurveto
          66 65 rmoveto
          85 68 67 85 85 64 -67 -85 33 callgsubr
        </CharString>
        <CharString name="ograve">
          -37 callsubr
          hintmask 11001100
          91 225 -97 callsubr
          hintmask 00110000
          305 365 -105 callsubr
        </CharString>
        <CharString name="one">
          -275 16 -21 553 94 -69 69 15 -21 hstemhm
          45 216 -101 101 -62 62 hintmask 10011000
          92 636 rmoveto
          -22 -25 -16 -28 hvcurveto
          hintmask 11001000
          -28 23 -16 22 vhcurveto
          hintmask 10100010
          25 30 25 33 hhcurveto
          9 5 -5 -9 1 hvcurveto
          6 -59 0 -113 -56 vvcurveto
          -49 -1 -102 -6 -38 vhcurveto
          hintmask 11000100
          -6 -37 -26 -20 -33 vvcurveto
          -32 21 -26 33 34 19 36 37 vhcurveto
          51 -6 61 152 170 4 65 41 vvcurveto
          26 -20 9 -19 vhcurveto
          hintmask 10011000
          -33 -47 -6 -54 hhcurveto
          endchar
        </CharString>
        <CharString name="onehalf">
          179 -3 81 -63 -21 220 136 -69 69 -42 6 callsubr
          397 80 hintmask 0000100110000000
          101 639 -88 callsubr
          hintmask 0110000000010000
          -179 -569 rmoveto
          -19 17 -16 17 vhcurveto
          hintmask 1010000000010000
          22 19 3 52 hhcurveto
          hintmask 0110000000010000
          36 callsubr
          hintmask 1010000000010000
          -59 callgsubr
          hintmask 1001000000010000
          -32 callgsubr
        </CharString>
        <CharString name="onequarter">
          155 28 callgsubr
          -45 6 callsubr
          166 220 -65 86 -86 100 -100 132 hintmask 1000000000000100
          617 -40 callgsubr
          hintmask 0001000000010000
          -12 callgsubr
          hintmask 0010000000001000
          36 callgsubr
          hintmask 1000000000001000
          30 callgsubr
          hintmask 1000000000010000
          -20 -12 -14 -17 vhcurveto
          -91 -112 rmoveto
          hintmask 1000000000000010
          -10 callgsubr
          hintmask 0000100110000000
          -429 472 -88 callsubr
          endchar
        </CharString>
        <CharString name="onesuperior">
          -275 308 -21 274 81 18 -21 hstemhm
          60 169 -86 86 -64 64 hintmask 10110000
          101 639 rmoveto
          -19 -22 -15 -24 hvcurveto
          hintmask 11000100
          -24 21 -15 19 vhcurveto
          15 18 13 20 hhcurveto
          5 3 -2 -5 hvcurveto
          4 -24 0 -48 -24 vvcurveto
          -23 0 -48 -4 -18 vhcurveto
          hintmask 11001000
          -6 -20 -12 -10 -19 vvcurveto
          -25 18 -21 27 29 15 26 29 vhcurveto
          25 -3 30 74 94 2 36 22 vvcurveto
          14 -11 5 -11 vhcurveto
          hintmask 10110000
          -25 -40 -3 -43 hhcurveto
          endchar
        </CharString>
        <CharString name="ordfeminine">
          -227 372 58 107 48 -48 159 hstemhm
          33 56 -37 37 118 120 hintmask 10101100
          248 567 rmoveto
          99 -34 -44 30 -79 hhcurveto
          -21 -18 -13 -21 hvcurveto
          hintmask 11010100
          -60 68 61 47 -78 vhcurveto
          -81 -4 -53 -60 -69 vvcurveto
          -46 36 -34 49 50 35 22 38 22 vhcurveto
          11 -21 rlineto
          -16 8 14 -23 24 hhcurveto
          28 17 16 23 21 -34 12 -12 26 hvcurveto
          -192 15 rmoveto
          35 31 17 32 16 14 -4 -7 15 vhcurveto
          7 -14 3 -9 -18 vvcurveto
          -30 -28 -25 -34 -30 -26 25 30 vhcurveto
          endchar
        </CharString>
        <CharString name="ordmasculine">
          -234 372 59 207 58 hstem
          30 57 179 57 vstem
          30 497 -70 callsubr
          11 callsubr
          endchar
        </CharString>
        <CharString name="oslash">
          -103 -25 -21 40 78 305 79 41 -20 hstem
          25 66 302 66 vstem
          25 160 rmoveto
          -44 15 -43 29 -31 vhcurveto
          -23 -29 -13 -20 -13 vvcurveto
          -16 9 -10 16 18 16 21 34 21 vhcurveto
          -9 20 23 -6 25 hhcurveto
          112 166 115 181 42 -15 43 -28 31 hvcurveto
          27 30 16 21 14 vvcurveto
          16 -9 10 -16 -19 -18 -22 -36 -24 vhcurveto
          11 -21 -23 6 -26 hhcurveto
          -63 callsubr
          hvcurveto
          217 46 rmoveto
          39 50 37 42 32 35 rrcurveto
          27 -27 16 -38 -43 vvcurveto
          -85 -64 -68 -85 -30 -27 8 14 -23 vhcurveto
          20 34 26 37 32 41 rrcurveto
          -151 19 rmoveto
          85 68 67 85 28 26 -8 -13 22 vhcurveto
          -22 -33 -26 -38 -32 -40 -40 -50 -35 -42 -31 -36 rrcurveto
          -27 28 -16 38 42 vvcurveto
          endchar
        </CharString>
        <CharString name="otilde">
          -103 -20 callsubr
          57 -52 callsubr
          25 66 302 66 hintmask 11000110
          91 225 -97 callsubr
          hintmask 00010000
          374 466 -99 callsubr
        </CharString>
        <CharString name="p">
          -52 -269 -21 284 78 305 79 hstemhm
          50 105 -85 101 -82 66 -66 82 277 62 hintmask 11100011
          118 -290 rmoveto
          43 10 42 37 hvcurveto
          hintmask 11110001
          -26 callsubr
          -11 callsubr
          -88 -47 -79 -58 hvcurveto
          47 vlineto
          34 -7 45 -43 -23 -26 -17 -39 -39 32 -17 2 -46 vhcurveto
          hintmask 11100101
          4 -95 1 -97 -93 vvcurveto
          hintmask 11101001
          39 callgsubr
          vhcurveto
          endchar
        </CharString>
        <CharString name="paragraph">
          -93 -269 -21 305 -21 642 60 -6 -20 hstemhm
          30 141 60 107 -68 51 -51 68 26 60 -60 74 hintmask 1110110010000000
          hintmask 1110101001000000
          374 61 rmoveto
          -34 12 -33 25 22 16 23 33 vhcurveto
          33 -25 3 86 136 14 49 80 vvcurveto
          hintmask 1101110010000000
          26 -16 21 -21 vhcurveto
          hintmask 1110100110000000
          -21 -16 -23 -27 hvcurveto
          -5 vlineto
          -2 -23 -11 -25 -29 -12 rrcurveto
          -1 38 0 38 41 vvcurveto
          58 4 52 33 34 vhcurveto
          -1 8 9 0 10 hhcurveto
          17 18 13 21 20 -18 13 -17 hvcurveto
          -18 -15 -6 -28 -27 -23 6 -31 hhcurveto
          hintmask 1110110010000000
          -108 -105 -100 -126 -107 84 -63 108 14 15 2 3 14 hvcurveto
          2 -55 3 -60 -63 -250 -39 -49 0 callsubr
          72 -3 122 -3 61 vhcurveto
          -4 69 -3 66 -2 68 17 11 15 13 11 13 rrcurveto
          4 -64 4 -96 -146 vvcurveto
          -106 575 rmoveto
          26 18 -1 -2 15 hvcurveto
          -50 -41 -17 -72 -74 vvcurveto
          -26 0 -28 2 -29 vhcurveto
          -58 7 -33 45 84 vvcurveto
          97 54 40 43 vhcurveto
          endchar
        </CharString>
        <CharString name="parenleft">
          -247 -269 -21 1040 -20 hstemhm
          65 66 -66 202 hintmask 11010000
          258 750 rmoveto
          -37 -156 -218 -316 -306 84 -200 83 22 13 19 20 21 -17 25 -12 17 hvcurveto
          hintmask 11100000
          -30 45 -77 133 284 vvcurveto
          152 42 136 36 68 vhcurveto
          38 72 28 14 18 vvcurveto
          9 -6 7 -11 vhcurveto
          endchar
        </CharString>
        <CharString name="parenright">
          -267 -291 20 999 21 hstemhm
          43 202 -66 66 hintmask 11100000
          52 -291 rmoveto
          37 156 218 316 306 -84 200 -83 -22 -13 -19 -20 -21 17 -25 12 -17 hvcurveto
          hintmask 11010000
          30 -45 77 -133 -284 vvcurveto
          -152 -42 -136 -36 -68 vhcurveto
          -38 -72 -28 -14 -18 vvcurveto
          -9 6 -7 11 vhcurveto
          endchar
        </CharString>
        <CharString name="percent">
          186 -6 59 -38 -21 266 58 0 59 207 58 0 -20 hstemhm
          50 57 179 57 87 57 179 57 hintmask 1001101111000000
          50 443 -70 callsubr
          11 callsubr
          144 -360 -70 callsubr
          vhcurveto
          hintmask 1010101111000000
          11 callsubr
          hintmask 0100010000000000
          -28 443 -58 callgsubr
        </CharString>
        <CharString name="period">
          -394 -6 113 hstem
          40 113 vstem
          40 42 rmoveto
          -83 callgsubr
          endchar
        </CharString>
        <CharString name="periodcentered">
          -325 169 113 hstem
          75 113 vstem
          75 217 rmoveto
          -83 callgsubr
          endchar
        </CharString>
        <CharString name="plus">
          -117 115 215 -62 62 -62 217 hstemhm
          50 215 -63 63 -63 218 hintmask 01010000
          86 336 rmoveto
          -71 callgsubr
          hintmask 01001000
          17 46 4 1 53 hvcurveto
          -1 -53 -4 -47 -17 vvcurveto
          hintmask 10010000
          -21 15 -15 21 21 16 15 21 vhcurveto
          hintmask 01010000
          17 -4 47 -1 53 vhcurveto
          -1 54 47 -4 18 hhcurveto
          hintmask 10000100
          -93 callsubr
          hintmask 10001000
          -18 -47 -4 -2 -54 hvcurveto
          1 54 4 47 18 vvcurveto
          hintmask 00110000
          21 -16 15 -21 -21 -15 -15 -21 vhcurveto
          hintmask 10001000
          -18 4 -47 1 -54 vhcurveto
          2 -53 -46 4 -17 hhcurveto
          endchar
        </CharString>
        <CharString name="plusminus">
          -117 99 62 -46 -21 102 185 -62 62 -62 187 hstemhm
          50 215 -63 63 -63 218 hintmask 10010100
          86 387 rmoveto
          -71 callgsubr
          hintmask 10010010
          17 46 4 1 53 hvcurveto
          -1 -45 -4 -25 -17 vvcurveto
          hintmask 10100100
          -21 15 -15 21 21 16 15 21 vhcurveto
          hintmask 10010100
          17 -4 25 -1 45 vhcurveto
          -1 54 47 -4 18 hhcurveto
          hintmask 10100001
          -93 callsubr
          hintmask 10100010
          -18 -47 -4 -2 -54 hvcurveto
          1 46 4 25 18 vvcurveto
          hintmask 10001100
          21 -16 15 -21 -21 -15 -15 -21 vhcurveto
          hintmask 10100001
          -18 4 -25 1 -46 vhcurveto
          2 -53 -46 4 -17 hhcurveto
          149 -226 rmoveto
          -66 -62 6 -21 hhcurveto
          hintmask 01100100
          -71 callgsubr
          hintmask 10100100
          21 62 5 66 hhcurveto
          hintmask 01100001
          66 62 -5 21 -92 callsubr
          hintmask 10100100
          -21 -62 -6 -66 hhcurveto
          endchar
        </CharString>
        <CharString name="q">
          -50 -290 209 -74 74 75 79 305 78 hstemhm
          25 65 134 227 -71 71 -71 107 -95 59 hintmask 1011100010000000
          181 -6 rmoveto
          66 86 41 71 59 hvcurveto
          hintmask 0111101000000000
          -1 -52 -8 -78 -3 -64 rrcurveto
          1 -39 -43 6 -35 hhcurveto
          hintmask 0111110000000000
          -23 -16 -12 -25 -25 16 -12 23 hvcurveto
          hintmask 1011100100000000
          35 42 6 2 40 hvcurveto
          -91 2 19 -52 42 hhcurveto
          26 18 19 38 hvcurveto
          61 -36 9 280 71 8 26 76 vvcurveto
          84 -59 82 -97 -63 callsubr
          -84 59 -82 97 vhcurveto
          211 231 rmoveto
          -85 -68 -67 -85 -85 -64 67 85 85 64 68 85 vhcurveto
          hintmask 1011110000000000
          85 68 -68 -85 hvcurveto
          endchar
        </CharString>
        <CharString name="question">
          -133 -6 119 517 66 hstemhm
          168 42 40 154 -80 80 hintmask 11101000
          131 -2 callsubr
          79 176 rmoveto
          130 194 -2 187 vvcurveto
          hintmask 11110000
          91 -79 70 -71 -142 -62 -137 -32 -13 6 -5 12 vhcurveto
          25 21 121 110 hhcurveto
          59 41 -53 -71 hvcurveto
          -134 -156 -3 -149 vvcurveto
          -13 10 -10 11 11 10 10 13 vhcurveto
          endchar
        </CharString>
        <CharString name="questiondown">
          -133 -246 66 517 119 hstemhm
          50 80 -80 154 40 42 hintmask 11101000
          323 -10 callsubr
          -79 -176 rmoveto
          13 10 10 11 11 10 -10 -13 vhcurveto
          -149 -156 -3 -134 vvcurveto
          -71 41 -53 59 vhcurveto
          110 21 121 25 hhcurveto
          12 6 -5 -13 hvcurveto
          hintmask 11011000
          -32 -62 -137 -142 -71 -79 70 91 vhcurveto
          187 194 -2 130 vvcurveto
          endchar
        </CharString>
        <CharString name="quotedbl">
          -234 513 -21 204 -20 hstemhm
          55 86 -65 65 74 -47 callsubr
          hintmask 11001000
          160 hmoveto
          24 51 89 68 -44 callsubr
          hintmask 11000100
          -52 21 6 -45 -30 -20 -12 -19 vvcurveto
          -11 4 0 6 vhcurveto
          endchar
        </CharString>
        <CharString name="quotedblbase">
          -238 -113 220 hstemhm
          40 114 -73 73 36 -48 callsubr
          hintmask 10010000
          150 hmoveto
          32 67 92 66 -69 callsubr
          hintmask 10001000
          -42 41 -5 -37 -32 -40 -13 -21 -37 callgsubr
        </CharString>
        <CharString name="quotedblleft">
          38 callsubr
          55 -55 86 -50 callsubr
          hintmask 11000100
          141 hmoveto
          -24 -51 -71 -56 -39 23 -8 15 30 18 20 21 hvcurveto
          hintmask 11001000
          34 -31 -3 30 30 30 12 19 vvcurveto
          7 -4 4 -6 vhcurveto
          endchar
        </CharString>
        <CharString name="quotedblright">
          38 callsubr
          86 -55 55 -48 callgsubr
          hintmask 11001000
          141 hmoveto
          24 51 71 56 -44 callsubr
          hintmask 11000100
          -34 31 3 -30 -30 -30 -12 -19 vvcurveto
          -7 4 -4 6 vhcurveto
          endchar
        </CharString>
        <CharString name="quoteleft">
          -391 543 -21 174 -20 hstemhm
          -50 callsubr
          endchar
        </CharString>
        <CharString name="quoteright">
          -391 543 -21 174 -20 hstemhm
          -48 callgsubr
          endchar
        </CharString>
        <CharString name="quotesinglbase">
          -388 -113 220 hstemhm
          40 -48 callsubr
          endchar
        </CharString>
        <CharString name="quotesingle">
          -394 513 -21 204 -20 hstemhm
          55 -47 callsubr
          endchar
        </CharString>
        <CharString name="r">
          37 callsubr
          hstemhm
          50 103 -81 81 -66 74 hintmask 10110000
          -21 callsubr
          hintmask 11000100
          -8 callsubr
          hintmask 11001000
          -9 callsubr
          hintmask 11000100
          25 21 23 37 hvcurveto
          hintmask 10110000
          -7 callgsubr
          hintmask 11010000
          -42 callsubr
          endchar
        </CharString>
        <CharString name="rcaron">
          37 callsubr
          78 -94 callsubr
          50 103 -81 81 -66 74 hintmask 10100100
          -21 callsubr
          hintmask 11000001
          -8 callsubr
          hintmask 11000010
          -9 callsubr
          hintmask 11000001
          25 21 23 37 hvcurveto
          hintmask 10100100
          -7 callgsubr
          hintmask 11000100
          -42 callsubr
          hintmask 10100100
          170 292 -104 callsubr
          hintmask 00011000
          -27 callsubr
        </CharString>
        <CharString name="rcommaaccent">
          -197 -290 214 91 -21 330 132 -79 79 hstemhm
          50 103 -91 114 -104 81 -66 74 -68 83 hintmask 0101100000000000
          -21 callsubr
          hintmask 0110000100000000
          -8 callsubr
          hintmask 0110001000000000
          -9 callsubr
          hintmask 0110000100000000
          25 21 23 37 hvcurveto
          hintmask 0101100000000000
          -7 callgsubr
          hintmask 0110100000000000
          -42 callsubr
          hintmask 0101100000000000
          hintmask 1000010000000000
          -72 -628 rmoveto
          32 67 89 63 -69 callsubr
          hintmask 1000000010000000
          -53 callgsubr
        </CharString>
        <CharString name="registered">
          195 -5 54 71 225 172 55 71 54 hstemhm
          50 54 118 110 -66 66 157 66 123 54 hintmask 1111101110000000
          -45 callgsubr
          216 hmoveto
          -70 -6 -82 -34 vvcurveto
          -25 19 -15 21 20 18 15 25 29 -5 64 -1 61 vhcurveto
          21 -6 37 -16 42 -46 rrcurveto
          -64 58 -5 -62 42 hhcurveto
          24 14 17 23 51 -77 81 -40 20 hvcurveto
          52 21 55 46 76 vvcurveto
          89 -77 28 -66 vhcurveto
          -36 -35 -4 -25 -24 -29 4 -14 hhcurveto
          hintmask 1111110110000000
          -15 -12 -12 -17 -17 12 -13 15 hvcurveto
          11 hlineto
          hintmask 1111101110000000
          1 -31 5 -59 -77 vvcurveto
          114 171 rmoveto
          64 45 -21 -62 -61 -55 -28 -47 -21 -19 7 8 -15 hvcurveto
          73 5 55 1 28 vhcurveto
          1 14 14 0 14 hhcurveto
          -276 -161 -40 callsubr
          endchar
        </CharString>
        <CharString name="ring">
          -349 504 34 69 35 hstem
          50 34 69 35 vstem
          50 565 rmoveto
          -85 callsubr
        </CharString>
        <CharString name="s">
          -160 -6 78 -78 102 258 -1 callgsubr
          hstemhm
          57 72 174 72 hintmask 10011100
          -23 callsubr
          hintmask 10101100
          -33 callsubr
          hintmask 01101100
          -44 callgsubr
          hvcurveto
          endchar
        </CharString>
        <CharString name="scaron">
          -160 -6 78 -78 102 258 -1 callgsubr
          78 -94 callsubr
          57 72 174 72 hintmask 10010011
          -23 callsubr
          hintmask 10100011
          -33 callsubr
          hintmask 01100011
          -44 callgsubr
          hvcurveto
          291 583 -104 callsubr
          hintmask 00001100
          -27 callsubr
        </CharString>
        <CharString name="section">
          -15 -288 60 -60 174 717 146 -60 60 hstemhm
          88 77 -54 77 228 71 -46 46 -46 71 hintmask 1001100100000000
          487 281 rmoveto
          235 -322 12 callgsubr
          hintmask 1010101000000000
          -42 callgsubr
          -97 73 -35 77 -29 hvcurveto
          hintmask 1010010010000000
          -66 -27 -61 -55 -92 -205 330 11 callgsubr
          hintmask 0110100010000000
          -58 callsubr
          93 -51 43 -61 28 hvcurveto
          hintmask 1010100100000000
          55 44 32 62 65 vvcurveto
          hintmask 1010011000000000
          -71 -35 rmoveto
          -53 -23 -41 -38 -24 vhcurveto
          -83 30 -84 19 81 vvcurveto
          54 50 42 54 53 27 -23 -22 23 vhcurveto
          13 -16 8 -21 -26 vvcurveto
          endchar
        </CharString>
        <CharString name="semicolon">
          -393 -133 240 193 113 hstemhm
          40 113 -113 114 -73 73 hintmask 01100000
          40 3 callgsubr
          -83 callgsubr
          hintmask 10010000
          15 -481 rmoveto
          32 67 104 74 -69 callsubr
          hintmask 10001000
          -44 41 4 -49 -40 -40 -16 -25 -37 callgsubr
        </CharString>
        <CharString name="seven">
          -91 15 -21 576 72 15 -21 hstemhm
          hintmask 11000000
          281 300 rmoveto
          99 193 71 69 41 vvcurveto
          28 -15 11 -26 vhcurveto
          -53 -42 -6 -67 -69 -43 6 -50 20 callgsubr
          -13 -26 -26 -15 callgsubr
          hvcurveto
          30 63 6 69 hhcurveto
          52 37 -4 -1 36 hvcurveto
          hintmask 10100000
          -24 -63 -65 -95 -51 -88 rrcurveto
          hintmask 11000000
          -98 -169 -28 -58 -51 vvcurveto
          -23 17 -24 28 22 17 24 23 4 vhcurveto
          9 54 16 86 61 119 rrcurveto
          endchar
        </CharString>
        <CharString name="six">
          -49 -6 73 292 68 123 92 -78 78 hstemhm
          45 69 -69 87 292 68 hintmask 11100110
          278 67 rmoveto
          -81 -65 65 81 81 65 65 81 81 65 -65 -81 -81 -65 -65 -81 hvcurveto
          113 483 rmoveto
          26 21 22 26 26 -21 18 -36 -175 -161 -233 -179 -129 56 -107 115 143 133 126 148 89 -71 70 -89 hvcurveto
          hintmask 11011010
          -87 -93 -58 -67 -38 hvcurveto
          116 6 91 146 106 hhcurveto
          hintmask 11101010
          43 10 -14 21 hhcurveto
          endchar
        </CharString>
        <CharString name="slash">
          -91 -16 callsubr
          hstem
          67 -6 rmoveto
          57 40 142 179 106 hvcurveto
          127 214 81 83 45 vvcurveto
          26 -14 13 -24 -57 -40 -142 -179 -106 vhcurveto
          -127 -214 -81 -83 -45 vvcurveto
          -26 14 -13 24 vhcurveto
          endchar
        </CharString>
        <CharString name="space">
          -287 endchar
        </CharString>
        <CharString name="sterling">
          -49 0 73 -73 91 -76 -21 277 54 215 19 callgsubr
          39 164 -79 79 -23 79 hintmask 1001100010000000
          259 228 rmoveto
          15 -3 14 -3 14 vhcurveto
          -3 41 20 -5 19 hhcurveto
          21 15 16 21 21 -15 15 -21 -22 -22 -9 -2 -56 hvcurveto
          hintmask 1001010100000000
          -15 35 -15 37 51 vvcurveto
          82 46 33 40 vhcurveto
          hintmask 1001100100000000
          24 callsubr
          -97 -123 -73 -161 -27 7 -27 8 -26 hvcurveto
          3 -31 -17 5 -16 hhcurveto
          hintmask 1001101000000000
          -21 -15 -15 -21 -21 15 -16 21 19 21 6 3 45 hvcurveto
          hintmask 1001100010000000
          11 -30 9 -29 -25 vvcurveto
          -82 -25 -33 -21 vhcurveto
          hintmask 0101101000000000
          -37 -1 18 -22 hhcurveto
          -21 -23 -16 -28 hvcurveto
          hintmask 0011101000000000
          -37 32 -16 42 vhcurveto
          hintmask 1001101000000000
          50 68 6 93 hhcurveto
          hintmask 0011100010000000
          69 33 -98 callsubr
          -43 -104 -4 -1 -100 hvcurveto
          23 38 16 53 70 vvcurveto
          endchar
        </CharString>
        <CharString name="t">
          -250 -4 callsubr
          -74 209 -140 -20 hstemhm
          20 125 -74 89 -87 72 -72 109 -109 244 hintmask 1100000100000000
          83 -75 callgsubr
          hintmask 1100001000000000
          39 -37 7 56 vvcurveto
          46 2 53 2 46 vhcurveto
          1 35 2 31 1 27 rrcurveto
          -2 42 45 -6 38 hhcurveto
          hintmask 1100000010000000
          -68 callsubr
          -37 -43 -7 -1 -41 hvcurveto
          hintmask 1010010000000000
          2 28 1 27 31 vvcurveto
          36 -18 21 -25 -25 -21 -23 -37 vhcurveto
          hintmask 1001001000000000
          -27 1 -27 1 -26 vhcurveto
          -21 hlineto
          hintmask 1100100000000000
          -19 -13 -12 -20 -20 13 -12 19 hvcurveto
          24 hlineto
          2 -33 1 -36 -42 -54 4 -85 -64 vvcurveto
          endchar
        </CharString>
        <CharString name="thorn">
          -77 -269 -21 284 78 305 79 294 -20 hstemhm
          48 97 -81 66 293 62 hintmask 11111010
          125 331 rmoveto
          2 87 18 158 29 callgsubr
          -61 16 -19 -280 vvcurveto
          -320 vlineto
          39 callgsubr
          43 10 42 37 vhcurveto
          -26 callsubr
          hintmask 11110110
          -11 callsubr
          -87 -47 -78 -58 hvcurveto
          endchar
        </CharString>
        <CharString name="three">
          -66 -6 67 -67 181 368 93 -64 64 6 -20 hstemhm
          406 70 hintmask 10100100
          55 591 rmoveto
          hintmask 10010100
          -33 27 -15 27 vhcurveto
          hintmask 01001100
          64 33 29 162 hhcurveto
          -32 -46 -61 -60 -50 -47 rrcurveto
          -13 -12 -12 -13 -16 vvcurveto
          -13 9 -12 14 vhcurveto
          13 6 5 26 hhcurveto
          35 103 -35 -107 -102 -73 -53 -67 hvcurveto
          -115 8 114 -62 hhcurveto
          hintmask 10100100
          -31 -21 -28 -31 -58 80 -64 104 139 108 107 139 94 -75 86 -84 14 hvcurveto
          48 45 28 31 25 32 rrcurveto
          21 27 5 16 19 vvcurveto
          21 -21 17 -22 vhcurveto
          hintmask 10001100
          -40 -38 -6 -65 -84 -23 6 -39 hhcurveto
          -37 -20 -23 -28 hvcurveto
          endchar
        </CharString>
        <CharString name="threequarters">
          185 28 callgsubr
          -67 30 callsubr
          0 -20 38 -21 hstemhm
          254 58 113 220 -65 86 -86 100 -100 132 hintmask 1000000000000010
          647 -40 callgsubr
          hintmask 0001000000001000
          -12 callgsubr
          hintmask 0010000000000100
          36 callgsubr
          hintmask 1000000000000100
          30 callgsubr
          hintmask 1000000000001000
          -20 -12 -14 -17 vhcurveto
          -91 -112 rmoveto
          hintmask 1000000000000001
          -10 callgsubr
          hintmask 0100000001000000
          88 431 -93 callgsubr
          hintmask 0000100100010000
          -583 1 rmoveto
          25 15 18 32 vhcurveto
          hintmask 0000100010010000
          21 13 -3 46 36 21 3 22 hhcurveto
          19 19 -15 -21 hvcurveto
          hintmask 0000101000010000
          -13 -5 -10 -14 -16 vhcurveto
          -13 -15 -17 -13 -20 -16 rrcurveto
          37 -15 35 -37 -50 vvcurveto
          -76 -59 -59 -77 vhcurveto
          hintmask 0000011000010000
          -65 -51 42 40 25 18 22 26 hvcurveto
          34 -5 -62 64 hhcurveto
          26 31 19 36 46 -46 14 -15 hvcurveto
          -9 -12 -5 -9 hhcurveto
          -11 -7 9 10 13 8 10 11 10 hvcurveto
          hintmask 0000100000110000
          22 18 31 28 16 18 rrcurveto
          hintmask 0000101000010000
          -77 -15 -21 -31 hhcurveto
          -23 -22 13 28 hvcurveto
          endchar
        </CharString>
        <CharString name="threesuperior">
          -215 286 30 callsubr
          18 -21 hstemhm
          254 58 hintmask 10010010
          65 599 rmoveto
          hintmask 10001010
          -28 22 -13 23 vhcurveto
          hintmask 10100010
          31 15 21 77 hhcurveto
          -16 -18 -31 -28 -22 -18 rrcurveto
          -11 -10 -8 -10 -13 vvcurveto
          -10 7 -9 11 vhcurveto
          9 12 5 9 hhcurveto
          15 46 -14 -46 -36 -31 -19 -26 hvcurveto
          -64 5 62 -34 hhcurveto
          hintmask 01100010
          -26 -18 -22 -25 -40 51 -42 65 77 59 59 76 50 -35 37 -37 15 hvcurveto
          hintmask 10000110
          20 16 17 13 13 15 rrcurveto
          14 16 5 10 13 vvcurveto
          21 -19 15 -19 vhcurveto
          hintmask 10100010
          -22 -21 -3 -36 -46 -13 3 -21 hhcurveto
          -32 -15 -18 -25 hvcurveto
          endchar
        </CharString>
        <CharString name="tilde">
          -192 513 -52 callsubr
          hintmask 01000000
          345 626 rmoveto
          11 -6 5 -9 vhcurveto
          hintmask 10000000
          -19 5 -66 -48 hhcurveto
          hintmask 00100000
          -81 callgsubr
          hintmask 10000000
          -12 7 -5 10 vhcurveto
          hintmask 00100000
          19 -13 45 57 hhcurveto
          hintmask 10000000
          -82 callsubr
          endchar
        </CharString>
        <CharString name="two">
          -48 0 64 -64 93 -78 -21 427 221 -71 71 hstemhm
          71 52 271 79 hintmask 00110110
          45 25 rmoveto
          -18 21 -13 22 vhcurveto
          hintmask 01010110
          40 35 6 95 hhcurveto
          hintmask 00110110
          94 46 -6 39 hhcurveto
          37 20 23 28 hvcurveto
          hintmask 01010110
          33 -27 15 -27 -26 -36 -8 -8 -57 vhcurveto
          hintmask 10010110
          -63 -9 -73 -3 -52 -1 8 6 152 126 77 80 rrcurveto
          67 69 36 68 79 vvcurveto
          80 -65 70 -96 -116 -125 -98 -94 -15 10 -14 15 14 13 14 15 vhcurveto
          hintmask 10001110
          53 59 68 80 81 51 -55 -81 -82 -67 -62 -72 -66 vhcurveto
          -66 -60 -60 -45 -38 -28 rrcurveto
          -36 -27 -10 -21 -19 vvcurveto
          endchar
        </CharString>
        <CharString name="twosuperior">
          -200 289 81 -63 -21 220 136 -69 69 hstemhm
          247 80 hintmask 01101000
          60 321 rmoveto
          -19 17 -16 17 vhcurveto
          hintmask 10101000
          22 19 3 52 hhcurveto
          hintmask 01101000
          36 callsubr
          hintmask 10101000
          -59 callgsubr
          hintmask 10011000
          -32 callgsubr
        </CharString>
        <CharString name="u">
          -88 -6 74 388 -20 hstemhm
          339 -14 callsubr
          hintmask 11001000
          350 -75 callgsubr
          hintmask 11100000
          -60 callsubr
          hintmask 11010000
          -100 callgsubr
          -67 15 39 -74 83 hhcurveto
          63 39 52 27 16 hvcurveto
          endchar
        </CharString>
        <CharString name="uacute">
          -88 -6 74 388 -20 98 -94 callsubr
          339 -14 callsubr
          hintmask 11000010
          350 -75 callgsubr
          hintmask 11001000
          -60 callsubr
          hintmask 11000100
          -100 callgsubr
          -67 15 39 -74 83 hhcurveto
          63 39 52 27 16 hvcurveto
          -195 452 -107 callsubr
          hintmask 00110000
          -81 callsubr
        </CharString>
        <CharString name="ucircumflex">
          -88 -6 74 388 -20 98 -94 callsubr
          339 -14 callsubr
          hintmask 11000010
          350 -75 callgsubr
          hintmask 11001000
          -60 callsubr
          hintmask 11000100
          -100 callgsubr
          -67 15 39 -74 83 hhcurveto
          63 39 52 27 16 hvcurveto
          hintmask 00110000
          13 452 -107 callgsubr
          endchar
        </CharString>
        <CharString name="udieresis">
          -88 -6 74 388 -20 112 93 hstemhm
          90 20 callsubr
          -34 -14 callsubr
          hintmask 11000001
          350 -75 callgsubr
          hintmask 11000100
          -60 callsubr
          hintmask 11000010
          -100 callgsubr
          -67 15 39 -74 83 hhcurveto
          63 39 52 27 16 hvcurveto
          hintmask 00111000
          -70 515 -106 callsubr
          endchar
        </CharString>
        <CharString name="ugrave">
          -88 -6 74 388 -20 98 -94 callsubr
          339 -14 callsubr
          hintmask 11000010
          350 -75 callgsubr
          hintmask 11001000
          -60 callsubr
          hintmask 11000100
          -100 callgsubr
          -67 15 39 -74 83 hhcurveto
          63 39 52 27 16 hvcurveto
          hintmask 00110000
          -38 452 -105 callsubr
        </CharString>
        <CharString name="underscore">
          -54 -170 14 callsubr
          267 -114 -62 callsubr
        </CharString>
        <CharString name="uni00AD">
          -217 0 callgsubr
          185 330 rmoveto
          hintmask 01100000
          -54 -28 6 -17 hhcurveto
          -71 callgsubr
          hintmask 10000000
          17 28 5 54 hhcurveto
          hintmask 01100000
          54 28 -5 17 -92 callsubr
          hintmask 10000000
          -17 -28 -6 -54 hhcurveto
          endchar
        </CharString>
        <CharString name="v">
          -114 6 callgsubr
          hstemhm
          351 -1 callgsubr
          hintmask 11100000
          173 47 rmoveto
          -27 10 17 -26 25 hhcurveto
          2 2 0 1 2 hvcurveto
          91 10 131 239 129 vvcurveto
          54 -22 29 -31 -31 -18 -23 -21 vhcurveto
          hintmask 11010000
          -36 24 -23 -43 vvcurveto
          -94 -79 -128 -41 -26 vhcurveto
          -8 22 -24 69 -83 210 -31 58 rlinecurve
          24 -13 -16 11 -17 hhcurveto
          -26 -17 -20 -21 -20 8 -19 15 -27 hvcurveto
          53 -96 59 -156 18 -50 rrcurveto
          endchar
        </CharString>
        <CharString name="w">
          129 6 callgsubr
          22 -20 hstemhm
          594 -1 callgsubr
          hintmask 10110000
          416 47 rmoveto
          -27 9 18 -26 25 hhcurveto
          104 124 251 126 56 -22 29 -31 -31 -18 -23 -21 hvcurveto
          hintmask 11001000
          -35 24 -23 -42 vvcurveto
          -94 -77 -128 -42 -28 vhcurveto
          -32 callsubr
          12 -27 12 -30 12 -32 -19 -84 -59 -91 -34 -23 -32 callsubr
          45 -96 48 -154 16 -52 rrcurveto
          -27 8 19 -26 25 hhcurveto
          59 68 85 96 46 hvcurveto
          19 -54 15 -49 9 -25 rrcurveto
          endchar
        </CharString>
        <CharString name="x">
          -125 6 callgsubr
          hstem
          153 77 rmoveto
          28 42 25 36 23 32 47 -58 39 -54 18 -28 rrcurveto
          -25 15 24 -28 23 hhcurveto
          23 14 21 19 17 -9 15 -16 18 hvcurveto
          -37 39 -48 59 -49 63 rrcurveto
          117 151 27 -12 39 vvcurveto
          23 -15 10 -13 -16 -14 -10 -12 -10 vhcurveto
          -27 -32 -41 -57 -42 -56 -36 46 -35 46 -29 40 rrcurveto
          20 -15 -24 15 -17 hhcurveto
          -26 -15 -22 -19 -21 13 -17 29 -28 hvcurveto
          36 -35 38 -42 36 -42 -28 -36 -26 -33 -18 -19 rrcurveto
          -35 -37 -57 -32 -38 vvcurveto
          -23 16 -18 25 40 26 60 23 16 vhcurveto
          endchar
        </CharString>
        <CharString name="y">
          22 callsubr
          hstemhm
          351 68 -68 89 hintmask 10111000
          -27 callgsubr
          hintmask 10110100
          -91 callsubr
          hintmask 01111000
          -54 callgsubr
          endchar
        </CharString>
        <CharString name="yacute">
          22 callsubr
          98 -94 callsubr
          351 68 -68 89 hintmask 10110010
          -27 callgsubr
          hintmask 10110001
          -91 callsubr
          hintmask 01110010
          -54 callgsubr
          -245 538 -107 callsubr
          hintmask 00001100
          -81 callsubr
        </CharString>
        <CharString name="ydieresis">
          22 callsubr
          112 93 hstemhm
          113 20 callsubr
          -45 68 -68 89 hintmask 1011000100000000
          -27 callgsubr
          hintmask 1011000010000000
          -91 callsubr
          hintmask 0111000100000000
          -54 callgsubr
          hintmask 0000111000000000
          -116 601 -106 callsubr
          endchar
        </CharString>
        <CharString name="yen">
          42 -6 216 -64 64 59 64 309 -20 hstemhm
          117 239 -83 83 -83 238 hintmask 10110010
          355 203 rmoveto
          -1 21 0 24 28 vvcurveto
          -3 40 42 -4 36 hhcurveto
          hintmask 01111000
          23 16 10 22 22 -16 10 -23 -30 -34 -3 -3 -34 hvcurveto
          19 21 24 29 38 49 rrcurveto
          65 84 49 55 38 vvcurveto
          hintmask 10110100
          23 -12 16 -23 -35 -33 -86 -79 -49 vhcurveto
          -46 -75 -30 -34 -13 -13 -18 21 -30 41 -48 70 rrcurveto
          84 -57 -24 71 -41 hhcurveto
          -28 -16 -16 -28 -38 47 -39 61 -85 hvcurveto
          hintmask 01110010
          32 -46 26 -36 18 -27 rrcurveto
          3 -32 -33 3 -29 hhcurveto
          -23 -16 -10 -22 -22 16 -10 23 36 43 5 2 41 hvcurveto
          -28 -1 -24 -21 vvcurveto
          2 -41 -42 5 -36 hhcurveto
          -23 -16 -10 -22 -22 16 -10 23 35 42 4 3 40 hvcurveto
          -2 -73 -4 -20 -14 vvcurveto
          -35 callsubr
          14 -4 20 -3 73 vhcurveto
          -3 40 41 -4 35 hhcurveto
          23 16 10 22 22 -16 10 -23 -36 -41 -5 -2 -40 hvcurveto
          endchar
        </CharString>
        <CharString name="z">
          -132 -6 67 -67 111 276 75 -6 -20 hstemhm
          52 98 hintmask 01101000
          -65 callsubr
          hintmask 10101000
          -41 callsubr
          hintmask 10011000
          -42 -50 -6 -45 hhcurveto
          hintmask 10101000
          37 callgsubr
          endchar
        </CharString>
        <CharString name="zcaron">
          -132 -6 67 -67 111 276 75 -6 -20 104 -94 callsubr
          52 98 hintmask 01100010
          -65 callsubr
          hintmask 10100010
          -41 callsubr
          hintmask 10010010
          -42 -50 -6 -45 hhcurveto
          hintmask 10100010
          37 callgsubr
          293 212 -104 callsubr
          hintmask 00001100
          -27 callsubr
        </CharString>
        <CharString name="zero">
          30 -6 68 514 66 hstem
          45 72 383 72 vstem
          45 244 rmoveto
          -131 80 -119 125 190 132 185 213 131 -80 119 -125 -190 -132 -185 -213 vhcurveto
          455 73 rmoveto
          -143 -81 -112 -111 -110 -81 112 143 143 81 116 111 110 81 -116 -143 vhcurveto
          -299 -80 rmoveto
          -16 11 -8 14 20 19 38 56 56 vhcurveto
          68 68 28 0 28 vvcurveto
          16 -11 8 -14 -20 -19 -38 -56 -56 vhcurveto
          -68 -68 -28 0 -28 vvcurveto
          endchar
        </CharString>
      <CharString index="0">
        rmoveto
        4 -2 5 -4 5 vhcurveto
        29 -23 -61 74 -34 hhcurveto
        -35 -63 -77 -26 -20 hvcurveto
        -4 -5 -2 -5 -4 vvcurveto
        -7 4 -5 5 3 3 2 3 4 vhcurveto
        27 21 51 25 27 6 27 -6 51 -25 27 -21 rrcurveto
        -3 4 3 -2 3 hhcurveto
        5 4 -41 callgsubr
        return
      </CharString>
      <CharString index="1">
        rmoveto
        -162 -96 153 141 175 96 97 144 162 96 -153 -141 -175 -97 -97 -143 hvcurveto
        -33 -68 rmoveto
        208 147 162 220 176 -132 144 -175 -208 -147 -162 -220 -176 132 -144 175 hvcurveto
        return
      </CharString>
      <CharString index="2">
        39 104 15 70 hhcurveto
        -63 -60 -56 -108 -42 -93 rrcurveto
        -29 -27 1 -14 hhcurveto
        -18 -20 -16 -22 -25 20 -12 19 hvcurveto
        36 hlineto
        -64 -186 -95 -20 -56 vvcurveto
        -36 23 -8 16 64 66 161 108 35 vhcurveto
        4 12 5 13 6 14 rrcurveto
        1 54 58 2 15 hhcurveto
        161 70 rmoveto
        -1 -33 -102 -3 -28 hhcurveto
        -12 -40 1 1 -43 hvcurveto
        52 121 74 130 94 9 rrcurveto
        9 8 -1 8 hhcurveto
        -31 6 -107 7 -119 vhcurveto
        return
      </CharString>
      <CharString index="3">
        rmoveto
        4 -3 5 -5 5 vhcurveto
        37 -37 -74 66 -39 hhcurveto
        -20 -18 -15 -21 -21 15 -15 22 -4 hvcurveto
        34 -6 66 -21 35 -21 rrcurveto
        -3 5 4 -2 3 hhcurveto
        7 5 -41 callgsubr
        return
      </CharString>
      <CharString index="4">
        -91 callgsubr
        49 3 rlineto
        -1 -9 -1 -10 -9 vvcurveto
        -55 43 -60 70 93 55 67 16 9 -6 5 -8 vhcurveto
        -15 -27 -43 -51 hhcurveto
        -54 -44 38 52 -9 hvcurveto
        10 hlineto
        -96 callsubr
        -68 hhcurveto
        37 17 38 27 44 return
      </CharString>
      <CharString index="5">
        -68 callgsubr
        95 -94 callsubr
        502 62 -48 100 hintmask 1110000010000000
        -90 callgsubr
        hintmask 1110000100000000
        -76 callsubr
        11 26 hvcurveto
        hintmask 1100100100000000
        23 -16 16 -24 vhcurveto
        hintmask 1110000100000000
        -24 -131 -6 -82 hhcurveto
        hintmask 1100100100000000
        -63 callgsubr
        hintmask 1110000100000000
        -26 21 -11 20 vhcurveto
        hintmask 1101000100000000
        -105 callgsubr
        return
      </CharString>
      <CharString index="6">
        hintmask 01110000
        386 109 rmoveto
        10 -9 9 -10 vhcurveto
        hintmask 10101000
        -24 -25 -55 -77 hhcurveto
        -78 -63 57 76 -8 hvcurveto
        2 7 9 1 11 36 58 -10 25 hhcurveto
        27 14 12 26 26 -15 10 -31 hvcurveto
        -27 -62 -8 -49 hhcurveto
        62 16 55 51 75 hhcurveto
        hintmask 10110000
        51 25 -24 25 hhcurveto
        23 21 21 26 35 -40 20 -55 -126 -140 -107 -153 -115 80 -87 101 99 81 84 31 hvcurveto
        return
      </CharString>
      <CharString index="7">
        4 67 10 36 50 vvcurveto
        36 -18 21 -25 -25 -21 -23 -37 -67 7 -45 3 -113 vhcurveto
        -57 -2 -35 -46 -50 hhcurveto
        -60 -25 47 53 -10 hvcurveto
        -38 209 rlineto
        32 -6 -13 47 -46 hhcurveto
        -26 -28 -17 -39 -39 35 2 12 -56 hvcurveto
        38 -172 rlineto
        return
      </CharString>
      <CharString index="8">
        38 callgsubr
        -29 -19 -28 -26 vhcurveto
        -43 9 return
      </CharString>
      <CharString index="9">
        40 6 -24 21 hhcurveto
        22 18 17 22 38 -28 11 -32 -60 -82 -49 -79 -38 hvcurveto
        -27 1 -23 1 -18 2 1 122 6 57 1 38 rrcurveto
        1 29 30 1 25 69 83 -98 callsubr
        hvcurveto
        return
      </CharString>
      <CharString index="10">
        339 305 rmoveto
        -18 -81 -3 -1 -61 hvcurveto
        -37 -77 -33 -77 -29 -61 rrcurveto
        -168 -81 -124 -208 -57 hhcurveto
        -23 -16 17 24 66 117 32 144 282 hvcurveto
        24 47 27 59 30 63 rrcurveto
        -5 hlineto
        -19 -20 12 25 22 20 16 18 hvcurveto
        return
      </CharString>
      <CharString index="11">
        -99 callgsubr
        -17 callsubr
        return
      </CharString>
</ttFont>
